<?xml version="1.0" encoding="utf-8"?>
<!-- Generator: Adobe Illustrator 15.0.0, SVG Export Plug-In  -->
<!DOCTYPE svg [
	<!ENTITY ns_flows "http://ns.adobe.com/Flows/1.0/">
]>
<svg version="1.2" baseProfile="tiny"
	 xmlns="http://www.w3.org/2000/svg" xmlns:xlink="http://www.w3.org/1999/xlink" xmlns:a="http://ns.adobe.com/AdobeSVGViewerExtensions/3.0/"
	 x="0px" y="0px" width="191px" height="210px" viewBox="-6.5 -13.7 191 210" xml:space="preserve">
<defs>
</defs>
<path fill="#1E72BA" d="M175.1,111.8H54.8c0,4.5,0.7,8.6,2.1,12.4c1.5,3.6,3.4,6.9,5.8,9.8c2.4,2.9,5.3,5.3,8.6,7.4
	c3.2,2.1,6.8,3.8,10.5,5.1c3.7,1.4,7.6,2.4,11.6,3c4,0.6,7.9,1,11.9,1c5,0,9.6-0.4,14.1-1.2c4.4-0.8,8.7-1.9,12.9-3.3
	c4.2-1.4,8.3-3,12.4-4.9c4.1-1.9,8.3-3.9,12.6-6.2v39.9c-4.8,2.4-9.5,4.3-14.2,6c-4.7,1.6-9.4,3.1-14.2,4.2
	c-4.8,1.2-9.6,2.1-14.6,2.6c-5,0.5-10.1,0.8-15.4,0.8c-7.1,0-13.9-0.8-20.4-2.4c-6.6-1.6-12.7-3.9-18.5-7c-5.8-3.1-11-6.8-15.8-11.1
	c-4.8-4.4-8.9-9.3-12.4-14.7c-3.4-5.4-6.1-11.4-8-17.8c-1.9-6.4-2.8-13.2-2.8-20.5c0-7.7,1.1-15.1,3.2-22.1
	c2.1-7.1,5.2-13.5,9.2-19.4c4-5.9,8.8-11.1,14.6-15.7c5.7-4.6,12.2-8.3,19.4-11.2c-3.9,3.9-7,8.5-9.1,13.9C56,65.6,54.6,71,54,76.4
	h67c0-6.8-0.7-12.6-2.1-17.7c-1.4-5.1-3.6-9.3-6.7-12.6c-3.1-3.4-7-5.9-11.9-7.5C95.6,36.9,89.7,36,82.9,36
	c-8.1,0-16.2,1.2-24.3,3.6c-8.1,2.4-15.8,5.7-23.1,10c-7.3,4.3-14,9.4-20.1,15.2C9.3,70.8,4.2,77.1,0,83.9C0.9,76,2.6,68.4,5.1,61.1
	c2.4-7.3,5.7-14,9.6-20.3c3.9-6.2,8.4-11.8,13.6-16.9c5.2-5.1,11-9.4,17.4-12.9C52,7.4,58.8,4.6,66.1,2.7C73.5,1,81.3,0,89.6,0
	c4.8,0,9.6,0.4,14.4,1.3c4.8,0.9,9.5,2.1,14,3.6c9.1,3.1,17.1,7.5,24.3,13c7.1,5.6,13.1,11.9,17.9,19.2c4.9,7.3,8.5,15.3,11.1,24
	c2.5,8.7,3.8,17.8,3.8,27.3L175.1,111.8L175.1,111.8z"/>
</svg>
