<svg width="350" height="184" viewBox="0 0 350 184" fill="none" xmlns="http://www.w3.org/2000/svg">
<g clip-path="url(#clip0_326:1961)">
<path d="M130.976 142.134C124.349 151.078 120.118 161.617 119.922 172.748L50.9234 173L0 172.722C0.426083 136.283 12.2671 100.894 33.8564 71.5384L116.379 131.539L130.976 142.134Z" fill="#E94843"/>
<path d="M157.704 122.894C147.059 126.331 137.748 133 131.066 141.973C131.066 142.024 130.986 142.076 130.949 142.134L116.337 131.524L33.8296 71.5384C33.9903 71.3119 34.1584 71.0927 34.3191 70.8735C55.8153 41.8543 85.745 20.1802 120.02 8.81262L152.042 105.773L157.704 122.894Z" fill="#F48846"/>
<path d="M226.791 7.77496L196.105 105.692L190.706 122.908C185.383 121.191 179.824 120.32 174.231 120.329C168.702 120.32 163.205 121.17 157.938 122.85C157.873 122.863 157.809 122.882 157.748 122.908L152.086 105.773L120.063 8.81254L120.838 8.55689C138.343 2.86974 156.636 -0.0180456 175.042 9.56107e-05C192.584 -0.0182467 210.028 2.60265 226.791 7.77496Z" fill="#FFC84C"/>
<path d="M314.464 69.3023L231.825 131.297L217.717 141.886C214.037 137.131 209.593 133.022 204.566 129.726C200.345 126.818 195.726 124.537 190.852 122.952L190.662 122.894L196.061 105.678L226.747 7.76041L227.543 8.00892C262.166 18.9413 292.538 40.3589 314.464 69.3023Z" fill="#A6C24C"/>
<path d="M349.994 172.748H228.851C228.451 161.511 224.744 150.936 217.87 142.039L217.746 141.886L231.854 131.297L314.493 69.3023C314.669 69.5215 314.837 69.7409 314.998 69.9674C337.108 99.3383 349.358 134.954 349.994 171.714C350.008 172.145 349.994 172.317 349.994 172.748Z" fill="#4FC14F"/>
<g clip-path="url(#clip1_326:1961)">
<path d="M308.966 132.14H306.467V125.483C306.467 123.653 304.968 122.155 303.136 122.155H296.474V119.659C296.474 117.362 294.608 115.498 292.31 115.498C290.011 115.498 288.146 117.362 288.146 119.659V122.155H281.484C279.651 122.155 278.169 123.653 278.169 125.483V131.807H280.651C283.132 131.807 285.148 133.821 285.148 136.301C285.148 138.781 283.132 140.794 280.651 140.794H278.152V147.118C278.152 148.949 279.651 150.447 281.484 150.447H287.813V147.951C287.813 145.471 289.828 143.457 292.31 143.457C294.792 143.457 296.807 145.471 296.807 147.951V150.447H303.136C304.968 150.447 306.467 148.949 306.467 147.118V140.462H308.966C311.264 140.462 313.13 138.598 313.13 136.301C313.13 134.004 311.264 132.14 308.966 132.14Z" fill="#A4F0A4"/>
</g>
<path d="M130.942 142.127C124.315 151.071 120.118 161.617 119.922 172.748H103.932C104.222 158.198 109.244 144.342 117.886 132.635L130.942 142.127Z" fill="#C44139"/>
<path d="M157.697 122.887C147.051 126.324 137.741 132.993 131.059 141.966C131.059 142.017 130.979 142.068 130.942 142.127L117.886 132.627C126.565 120.834 138.687 112.024 152.583 107.41L157.697 122.887Z" fill="#F36C46"/>
<path d="M195.645 106.986L190.655 122.887C185.332 121.169 179.772 120.298 174.18 120.307C168.651 120.298 163.154 121.148 157.887 122.828C157.822 122.841 157.758 122.861 157.697 122.887L152.583 107.417C159.748 105.046 167.247 103.842 174.793 103.851C181.862 103.844 188.891 104.901 195.645 106.986Z" fill="#F4AE3B"/>
<path d="M231.109 131.845L217.739 141.878C214.059 137.124 209.615 133.015 204.588 129.719C200.367 126.811 195.748 124.529 190.874 122.945L190.684 122.887L195.674 106.986C209.795 111.361 222.188 120.056 231.109 131.845Z" fill="#8DA73F"/>
<path d="M245.84 172.748H228.851C228.451 161.511 224.737 150.928 217.863 142.032L217.739 141.878L231.109 131.845C240.116 143.7 245.541 157.862 245.84 172.748Z" fill="#3F9B40"/>
<path d="M286.717 141.045L164.51 173.812C163.752 170.383 164.346 166.792 166.17 163.789C167.993 160.786 170.905 158.602 174.299 157.692C174.461 157.648 174.623 157.605 174.779 157.563C174.779 157.563 174.85 157.544 174.885 157.535C175.497 157.446 176.115 157.349 176.727 157.26C213.439 151.837 250.144 146.411 286.844 140.981C286.793 141.017 286.751 141.029 286.717 141.045Z" fill="#065981"/>
<path d="M286.712 141.024L164.504 173.791C165.561 177.14 167.87 179.952 170.95 181.64C174.029 183.328 177.642 183.763 181.036 182.853C181.199 182.81 181.361 182.766 181.516 182.725C181.516 182.725 181.587 182.706 181.622 182.696C182.197 182.467 182.78 182.242 183.355 182.012C217.858 168.341 252.357 154.676 286.853 141.017C286.791 141.011 286.749 141.022 286.712 141.024Z" fill="#003B55"/>
<path d="M185.233 168.301L169.042 172.642C168.47 170.498 168.773 168.215 169.884 166.293C170.995 164.372 172.824 162.97 174.967 162.395C176.03 162.107 177.138 162.031 178.23 162.173C179.321 162.314 180.373 162.669 181.327 163.218C182.281 163.766 183.117 164.498 183.787 165.37C184.457 166.242 184.949 167.238 185.233 168.301Z" fill="#00385B"/>
<path d="M185.233 168.301L169.042 172.642C169.618 174.785 171.021 176.611 172.944 177.719C174.866 178.827 177.15 179.127 179.294 178.552C180.358 178.27 181.355 177.78 182.23 177.112C183.104 176.444 183.838 175.61 184.39 174.657C184.942 173.705 185.3 172.654 185.445 171.563C185.59 170.472 185.517 169.364 185.233 168.301Z" fill="#0B577F"/>
</g>
<defs>
<clipPath id="clip0_326:1961">
<rect width="350" height="184" fill="white"/>
</clipPath>
<clipPath id="clip1_326:1961">
<rect width="39.974" height="39.9417" fill="white" transform="translate(274.821 113.834)"/>
</clipPath>
</defs>
</svg>
