<svg width="350" height="58" viewBox="0 0 350 58" fill="none" xmlns="http://www.w3.org/2000/svg">
<path d="M58.0645 0H0V58H58.0645V0Z" fill="#E94843"/>
<path d="M19.1312 24.7197C20.7786 24.7197 22.114 23.0379 22.114 20.9633C22.114 18.8887 20.7786 17.2068 19.1312 17.2068C17.4839 17.2068 16.1484 18.8887 16.1484 20.9633C16.1484 23.0379 17.4839 24.7197 19.1312 24.7197Z" fill="#00385B"/>
<path d="M38.9406 24.7197C40.5879 24.7197 41.9234 23.0379 41.9234 20.9633C41.9234 18.8887 40.5879 17.2068 38.9406 17.2068C37.2932 17.2068 35.9578 18.8887 35.9578 20.9633C35.9578 23.0379 37.2932 24.7197 38.9406 24.7197Z" fill="#00385B"/>
<path d="M16.9904 40.9428L16.3411 40.6293C17.4719 38.2266 19.29 36.2125 21.5659 34.8411C23.8417 33.4698 26.4734 32.8026 29.1285 32.9239C31.5512 33.0605 33.8918 33.8496 35.9019 35.2074C37.912 36.5653 39.5167 38.4413 40.5459 40.6364L39.9036 40.9428C38.9273 38.8596 37.4036 37.08 35.4948 35.7934C33.586 34.5068 31.3636 33.7614 29.0643 33.6367C26.5558 33.5354 24.0731 34.1742 21.9259 35.4735C19.7787 36.7728 18.062 38.6751 16.9904 40.9428Z" fill="#00385B"/>
<path d="M131.048 -7.62939e-06H72.9839V58H131.048V-7.62939e-06Z" fill="#F48846"/>
<path d="M92.108 24.7197C93.7554 24.7197 95.0908 23.0379 95.0908 20.9633C95.0908 18.8887 93.7554 17.2068 92.108 17.2068C90.4607 17.2068 89.1252 18.8887 89.1252 20.9633C89.1252 23.0379 90.4607 24.7197 92.108 24.7197Z" fill="#00385B"/>
<path d="M111.917 24.7197C113.565 24.7197 114.9 23.0379 114.9 20.9633C114.9 18.8887 113.565 17.2068 111.917 17.2068C110.27 17.2068 108.935 18.8887 108.935 20.9633C108.935 23.0379 110.27 24.7197 111.917 24.7197Z" fill="#00385B"/>
<path d="M90.474 41.0426L90.0173 40.4939C93.4185 37.6909 97.682 36.1428 102.091 36.1101C106.334 36.1268 110.448 37.5677 113.773 40.2015L113.33 40.7575C110.132 38.2239 106.173 36.8381 102.091 36.8229C97.8488 36.8559 93.7468 38.3458 90.474 41.0426Z" fill="#00385B"/>
<path d="M204.032 -7.62939e-06H145.968V58H204.032V-7.62939e-06Z" fill="#FFC84C"/>
<path d="M165.092 24.7197C166.739 24.7197 168.075 23.0379 168.075 20.9633C168.075 18.8887 166.739 17.2068 165.092 17.2068C163.445 17.2068 162.109 18.8887 162.109 20.9633C162.109 23.0379 163.445 24.7197 165.092 24.7197Z" fill="#00385B"/>
<path d="M184.908 24.7197C186.556 24.7197 187.891 23.0379 187.891 20.9633C187.891 18.8887 186.556 17.2068 184.908 17.2068C183.261 17.2068 181.926 18.8887 181.926 20.9633C181.926 23.0379 183.261 24.7197 184.908 24.7197Z" fill="#00385B"/>
<path d="M186.607 39.5102H163.408V40.2238H186.607V39.5102Z" fill="#00385B"/>
<path d="M277.016 -7.62939e-06H218.952V58H277.016V-7.62939e-06Z" fill="#A6C24C"/>
<path d="M238.075 24.7197C239.723 24.7197 241.058 23.0379 241.058 20.9633C241.058 18.8887 239.723 17.2068 238.075 17.2068C236.428 17.2068 235.093 18.8887 235.093 20.9633C235.093 23.0379 236.428 24.7197 238.075 24.7197Z" fill="#00385B"/>
<path d="M257.892 24.7197C259.539 24.7197 260.875 23.0379 260.875 20.9633C260.875 18.8887 259.539 17.2068 257.892 17.2068C256.244 17.2068 254.909 18.8887 254.909 20.9633C254.909 23.0379 256.244 24.7197 257.892 24.7197Z" fill="#00385B"/>
<path d="M248.03 41.1282C243.62 41.0941 239.356 39.5436 235.956 36.7375L236.42 36.1957C239.69 38.8915 243.79 40.3814 248.03 40.4154C252.111 40.3953 256.068 39.01 259.269 36.4808L259.711 37.0368C256.387 39.6706 252.273 41.1116 248.03 41.1282Z" fill="#00385B"/>
<path d="M350 -7.62939e-06H291.936V58H350V-7.62939e-06Z" fill="#4FC14F"/>
<path d="M311.06 24.7197C312.707 24.7197 314.042 23.0379 314.042 20.9633C314.042 18.8887 312.707 17.2068 311.06 17.2068C309.412 17.2068 308.077 18.8887 308.077 20.9633C308.077 23.0379 309.412 24.7197 311.06 24.7197Z" fill="#00385B"/>
<path d="M330.869 24.7197C332.516 24.7197 333.852 23.0379 333.852 20.9633C333.852 18.8887 332.516 17.2068 330.869 17.2068C329.221 17.2068 327.886 18.8887 327.886 20.9633C327.886 23.0379 329.221 24.7197 330.869 24.7197Z" fill="#00385B"/>
<path d="M320.4 41.1425C317.854 41.1297 315.364 40.3972 313.217 39.0299C311.07 37.6625 309.355 35.7161 308.269 33.4158L308.912 33.1093C309.986 35.3869 311.712 37.2959 313.87 38.596C316.029 39.8961 318.524 40.5292 321.042 40.4154C323.342 40.29 325.564 39.5443 327.472 38.2577C329.381 36.9712 330.905 35.192 331.882 33.1093L332.524 33.4158C331.494 35.61 329.889 37.4852 327.879 38.8428C325.869 40.2005 323.529 40.9901 321.107 41.1282L320.4 41.1425Z" fill="#00385B"/>
</svg>
