<?xml version="1.0" encoding="utf-8"?>
<!-- Generator: Adobe Illustrator 15.0.0, SVG Export Plug-In  -->
<!DOCTYPE svg [
	<!ENTITY ns_flows "http://ns.adobe.com/Flows/1.0/">
]>
<svg version="1.2" baseProfile="tiny"
	 xmlns="http://www.w3.org/2000/svg" xmlns:xlink="http://www.w3.org/1999/xlink" xmlns:a="http://ns.adobe.com/AdobeSVGViewerExtensions/3.0/"
	 x="0px" y="0px" width="110px" height="156px" viewBox="-13.4 -7.1 110 156" xml:space="preserve">
<defs>
</defs>
<path id="SVGCleanerId_0_3_" fill="#FFC944" d="M62.9,88.9c0-13,26.8-20.4,26.8-49.1C89.7,17.8,69.6,0,44.9,0S0,17.8,0,39.9
	c0,28.6,26.8,36,26.8,49.1H62.9z"/>
<g>
	<path fill="#1E72BA" d="M62.9,88.9c0-13,26.8-20.4,26.8-49.1C89.7,17.8,69.6,0,44.9,0S0,17.8,0,39.9c0,28.6,26.8,36,26.8,49.1H62.9
		z"/>
</g>
<g>
	<path fill="#1660A9" d="M36.2,91.1c-1.4,0-2.5-1-2.5-2.2c0-11.5-3.7-16.4-7.6-21.7c-3.7-4.9-7.4-9.9-7.4-19.8
		c0-1.2,1.1-2.2,2.5-2.2c1.4,0,2.5,1,2.5,2.2c0,8.5,3.1,12.6,6.6,17.3c4,5.3,8.5,11.3,8.5,24.1C38.7,90.1,37.6,91.1,36.2,91.1z"/>
	<path fill="#1660A9" d="M53.6,91.1c-1.4,0-2.5-1-2.5-2.2c0-12.8,4.5-18.8,8.5-24.1c3.5-4.7,6.6-8.8,6.6-17.3c0-1.2,1.1-2.2,2.5-2.2
		c1.4,0,2.5,1,2.5,2.2c0,9.8-3.8,14.9-7.4,19.8C59.8,72.5,56,77.5,56,88.9C56,90.1,54.9,91.1,53.6,91.1z"/>
</g>
<path fill="#FFFFFF" d="M53,57.6c-0.8,0-1.5-0.3-1.9-0.8L44.9,50l-6.2,6.8c-0.5,0.5-1.2,0.8-1.9,0.8l0,0c-0.8,0-1.5-0.3-1.9-0.8
	l-8.1-9c-0.9-1-0.7-2.3,0.4-3.1c1.1-0.8,2.6-0.6,3.5,0.3l6.2,6.8l6.2-6.8c0.5-0.5,1.2-0.8,1.9-0.8s1.5,0.3,1.9,0.8l6.2,6.8l6.2-6.8
	c0.9-1,2.4-1.1,3.5-0.3c1.1,0.8,1.2,2.2,0.4,3.1l-8.1,9C54.5,57.3,53.7,57.6,53,57.6z"/>
<path fill="#010101" d="M25.2,83.4c1,1.8,1.6,3.6,1.6,5.5h36.1c0-1.9,0.6-3.8,1.6-5.5H25.2z"/>
<ellipse fill="#5D6771" cx="44.9" cy="131.9" rx="6.1" ry="5.4"/>
<path fill="#010101" d="M44.9,126.4c-3.4,0-6.1,2.4-6.1,5.4c0,0.2,0,0.5,0.1,0.7c1.9,0.5,3.9,0.8,6.1,0.8c2.1,0,4.1-0.3,6.1-0.8
	c0-0.2,0.1-0.5,0.1-0.7C51,128.9,48.2,126.4,44.9,126.4z"/>
<ellipse fill="#343F49" cx="44.9" cy="115.8" rx="18.1" ry="16.1"/>
<path fill="#010101" d="M44.9,99.7c-10,0-18.1,7.2-18.1,16.1c0,1.2,0.1,2.3,0.4,3.4h35.4c0.3-1.1,0.4-2.2,0.4-3.4
	C63,106.9,54.9,99.7,44.9,99.7z"/>
<path fill="#5D6771" d="M70.6,110.3c0,3-2.8,5.4-6.1,5.4H25.3c-3.4,0-6.1-2.4-6.1-5.4V93.4c0-3,2.8-5.4,6.1-5.4h39.1
	c3.4,0,6.1,2.5,6.1,5.4V110.3z"/>
<rect x="19.2" y="94.5" fill="#343F49" width="51.4" height="4.4"/>
<rect x="19.2" y="104.9" fill="#343F49" width="51.4" height="4.4"/>
</svg>
