<?xml version="1.0" encoding="utf-8"?>
<!-- Generator: Adobe Illustrator 15.0.0, SVG Export Plug-In  -->
<!DOCTYPE svg [
	<!ENTITY ns_flows "http://ns.adobe.com/Flows/1.0/">
]>
<svg version="1.2" baseProfile="tiny"
	 xmlns="http://www.w3.org/2000/svg" xmlns:xlink="http://www.w3.org/1999/xlink" xmlns:a="http://ns.adobe.com/AdobeSVGViewerExtensions/3.0/"
	 x="0px" y="0px" width="163px" height="213px" viewBox="-6.3 -10.7 163 213" xml:space="preserve">
<defs>
</defs>
<path fill="#1E72BA" d="M142.3,0H29.6c-2.5,0-4.5,2-4.5,4.5v67.4h6.2c-1.9-2.4-2.9-5.3-2.9-8.4c0-3.6,1.4-7.1,4-9.6
	c0.5-0.5,1.1-1,1.7-1.4V9h103.7v3.2L90.5,46.6v147.1l47.6-34.5c0.6,1.8,2.3,3.1,4.2,3.1c2.5,0,4.5-2,4.5-4.5V4.5
	C146.8,2,144.8,0,142.3,0z M108.4,123.6c-2.1,0-3.9-2.6-4.4-6.1h-5.1v-3.9h5.1c0.5-3.3,2.2-5.7,4.3-5.7c2.5,0,4.5,3.5,4.5,7.9
	C112.8,120.1,110.8,123.6,108.4,123.6z M32.4,117.1c0.5,0.5,1.1,1,1.7,1.4v39.2c0,2.5-2,4.5-4.5,4.5s-4.5-2-4.5-4.5V99.1h6.2
	C27.2,104.4,27.5,112.2,32.4,117.1z M64.7,81.3c1.8,1.8,1.8,4.7,0,6.5l-22,22c-0.9,0.9-2.1,1.3-3.2,1.3c-1.2,0-2.3-0.4-3.2-1.3
	c-1.8-1.8-1.8-4.7,0-6.5l14.1-14.1H4.6c-2.5,0-4.6-2.1-4.6-4.6C0,82,2,80,4.6,80h45.8L36.2,65.8c-1.8-1.8-1.8-4.7,0-6.5
	c1.8-1.8,4.7-1.8,6.5,0L64.7,81.3z"/>
</svg>
