<svg xmlns="http://www.w3.org/2000/svg" width="24" height="24" viewBox="0 0 24 24"><g><g><path fill="#fff" d="M12 23.998C6.033 23.988.954 19.598.118 13.711a14.765 14.765 0 0 1-.117-1.68 1.154 1.154 0 0 1 1.157-1.221c.664 0 1.178.503 1.189 1.188.021 1.66.386 3.222 1.221 4.657 1.661 2.869 4.147 4.56 7.457 4.902 4.104.418 7.8-1.659 9.643-5.341a9.152 9.152 0 0 0 .975-4.047c0-.535.16-.963.653-1.22A1.16 1.16 0 0 1 24 12c-.01 2.718-.825 5.18-2.507 7.321-1.96 2.505-4.521 4.014-7.671 4.518a6.575 6.575 0 0 1-.643.075c-.397.042-.782.053-1.179.085z"/></g><g><path fill="#fff" d="M10.817 13.178V9.473 1.23C10.817.514 11.31 0 11.985 0c.685 0 1.189.514 1.189 1.242v11.925c.086-.064.14-.107.182-.15l1.457-1.456c.536-.535 1.243-.557 1.736-.075.471.471.45 1.21-.064 1.724-.943.952-1.886 1.894-2.84 2.836-.975.964-2.346.964-3.32-.01a352.867 352.867 0 0 1-2.84-2.837c-.525-.525-.536-1.242-.054-1.713.493-.482 1.2-.46 1.715.054.492.481.974.974 1.457 1.455.053.043.107.086.214.182z"/></g></g></svg>