<svg width="182" height="32" viewBox="0 0 182 32" fill="none" xmlns="http://www.w3.org/2000/svg">
<g clip-path="url(#clip0)">
<path d="M21.3453 24.8933H15.7368C15.2127 24.8931 14.6974 25.0279 14.2406 25.2847C13.7839 25.5415 13.4011 25.9117 13.1291 26.3593L9.97395 31.5617C9.89314 31.6955 9.7791 31.8062 9.64289 31.883C9.50667 31.9598 9.3529 32.0001 9.1965 32H0.91072C0.752614 32 0.597261 31.9587 0.46005 31.8802C0.322838 31.8017 0.20853 31.6887 0.128447 31.5525C0.0483637 31.4163 0.00528488 31.2615 0.0034773 31.1035C0.00166971 30.9455 0.0411961 30.7898 0.118141 30.6518L6.65238 18.9443C7.24948 17.875 8.12137 16.9842 9.17803 16.3641C10.2347 15.744 11.4378 15.4169 12.6633 15.4166H16.1754L21.3453 24.8933Z" fill="#6A35FF"/>
<path d="M32.1237 24.8933H21.3452L16.1753 15.4166H26.9507L32.1237 24.8933Z" fill="#3811CA"/>
<path d="M26.9507 15.4166H16.1753L13.1501 9.69734C12.9593 9.33853 12.8621 8.93746 12.8674 8.53118C12.8727 8.1249 12.9803 7.72649 13.1804 7.37276L17.113 0.459478C17.192 0.319193 17.3068 0.202425 17.4459 0.121162C17.5849 0.0399 17.743 -0.00292969 17.9041 -0.00292969C18.0652 -0.00292969 18.2233 0.0399 18.3623 0.121162C18.5014 0.202425 18.6162 0.319193 18.6952 0.459478L26.9507 15.4166Z" fill="#6A35FF"/>
<path d="M34.6466 32H25.9676C25.8082 32.0001 25.6516 31.9582 25.5135 31.8786C25.3754 31.799 25.2608 31.6845 25.1811 31.5466L21.3452 24.8963H32.1237L35.4332 30.6397C35.5128 30.7776 35.5548 30.934 35.5547 31.0933C35.5547 31.2525 35.5127 31.4089 35.433 31.5468C35.3533 31.6847 35.2386 31.7992 35.1006 31.8787C34.9626 31.9583 34.806 32.0001 34.6466 32Z" fill="#6A35FF"/>
</g>
<path d="M44.8208 25.4655H47.8265L49.57 20.889H56.7366L58.4694 25.4655H61.4858L54.4476 7.90458H51.8483L44.8208 25.4655ZM50.522 18.4411L53.1426 11.6509L55.7846 18.4411H50.522Z" fill="#3811CA"/>
<path d="M68.6964 25.8061C69.5307 25.8061 70.3008 25.6216 71.0068 25.2526C71.7199 24.8837 72.3153 24.3728 72.7931 23.72V25.4655H75.4565V7.14893H72.7931V16.238C72.3581 15.6065 71.7876 15.1134 71.0817 14.7587C70.3757 14.4039 69.602 14.2265 68.7605 14.2265C67.7052 14.2265 66.7639 14.4784 65.9367 14.9822C65.1166 15.4859 64.4677 16.1742 63.9899 17.0469C63.5193 17.9196 63.284 18.9094 63.284 20.0163C63.284 21.1444 63.5229 22.1449 64.0006 23.0176C64.4855 23.8832 65.138 24.5644 65.9581 25.0611C66.7781 25.5577 67.6909 25.8061 68.6964 25.8061ZM69.4558 23.5391C68.7998 23.5391 68.215 23.3901 67.7016 23.0921C67.1953 22.787 66.796 22.3684 66.5036 21.8362C66.2184 21.3041 66.0757 20.701 66.0757 20.0269C66.0757 19.3387 66.2219 18.732 66.5143 18.207C66.8067 17.6748 67.2096 17.2562 67.723 16.9511C68.2364 16.646 68.8211 16.4935 69.4772 16.4935C70.1332 16.4935 70.7144 16.646 71.2207 16.9511C71.7341 17.2562 72.137 17.6748 72.4294 18.207C72.7218 18.732 72.868 19.3387 72.868 20.0269C72.868 20.7081 72.7218 21.3147 72.4294 21.8469C72.137 22.3719 71.7341 22.787 71.2207 23.0921C70.7073 23.3901 70.119 23.5391 69.4558 23.5391Z" fill="#3811CA"/>
<path d="M83.7415 25.4655H86.7472L88.4907 20.889H95.6573L97.3901 25.4655H100.407L93.3683 7.90458H90.7691L83.7415 25.4655ZM89.4427 18.4411L92.0633 11.6509L94.7053 18.4411H89.4427Z" fill="#3811CA"/>
<path d="M106.593 25.4655H108.369L113.974 14.5671H110.829L107.481 21.9001L104.133 14.5671H100.988L106.593 25.4655Z" fill="#3811CA"/>
<path d="M121.347 25.8061C122.481 25.8061 123.508 25.5648 124.428 25.0823C125.355 24.5928 126.078 23.9152 126.599 23.0495L124.663 22.0597C123.829 23.1382 122.77 23.6775 121.486 23.6775C120.431 23.6775 119.571 23.3688 118.908 22.7515C118.252 22.1342 117.924 21.3325 117.924 20.3462H126.845C126.881 20.1121 126.899 19.9347 126.899 19.8141C126.899 18.7001 126.656 17.7245 126.171 16.8873C125.693 16.05 125.023 15.3972 124.16 14.9289C123.305 14.4607 122.306 14.2265 121.165 14.2265C120.06 14.2265 119.054 14.4855 118.149 15.0034C117.25 15.5214 116.534 16.2203 115.999 17.1001C115.471 17.9728 115.207 18.952 115.207 20.0376C115.207 21.1303 115.475 22.113 116.01 22.9857C116.544 23.8584 117.275 24.5467 118.202 25.0504C119.129 25.5542 120.178 25.8061 121.347 25.8061ZM118.042 18.6859C118.149 17.9409 118.484 17.3485 119.047 16.9085C119.611 16.4686 120.313 16.2487 121.155 16.2487C121.96 16.2487 122.645 16.4722 123.208 16.9192C123.772 17.3591 124.121 17.948 124.257 18.6859H118.042Z" fill="#3811CA"/>
<path d="M130.083 25.4655H132.746V18.7817C132.746 18.1006 132.981 17.5187 133.452 17.0363C133.93 16.5538 134.582 16.3125 135.41 16.3125C136.208 16.3125 136.832 16.5609 137.281 17.0575C137.738 17.5471 137.966 18.246 137.966 19.1542V25.4655H140.629V18.6008C140.629 17.2669 140.244 16.2061 139.474 15.4185C138.704 14.6238 137.688 14.2265 136.426 14.2265C135.613 14.2265 134.889 14.3826 134.254 14.6948C133.627 14.9999 133.124 15.3937 132.746 15.8762V14.5671H130.083V25.4655Z" fill="#3811CA"/>
<path d="M149.673 31.3191C151.72 31.3191 153.271 30.8118 154.326 29.7972C155.382 28.7826 155.909 27.438 155.909 25.7635V14.5671H153.246V16.238C152.811 15.6065 152.24 15.1134 151.535 14.7587C150.836 14.4039 150.062 14.2265 149.213 14.2265C148.158 14.2265 147.217 14.4784 146.39 14.9822C145.569 15.4859 144.921 16.1742 144.443 17.0469C143.972 17.9196 143.737 18.9094 143.737 20.0163C143.737 21.1444 143.979 22.1449 144.464 23.0176C144.949 23.8832 145.602 24.5644 146.422 25.0611C147.242 25.5577 148.151 25.8061 149.149 25.8061C149.991 25.8061 150.764 25.6216 151.47 25.2526C152.183 24.8837 152.775 24.3728 153.246 23.72V25.6571C153.246 26.6859 152.911 27.5054 152.24 28.1156C151.57 28.7329 150.714 29.0415 149.673 29.0415C148.882 29.0415 148.158 28.8642 147.502 28.5094C146.846 28.1617 146.361 27.6934 146.047 27.1045L143.865 28.1475C144.329 29.1834 145.052 29.971 146.037 30.5103C147.021 31.0495 148.233 31.3191 149.673 31.3191ZM149.909 23.5391C149.253 23.5391 148.668 23.3901 148.154 23.0921C147.648 22.787 147.249 22.3684 146.956 21.8362C146.671 21.3041 146.529 20.701 146.529 20.0269C146.529 19.3387 146.675 18.732 146.967 18.207C147.26 17.6748 147.662 17.2562 148.176 16.9511C148.689 16.646 149.274 16.4935 149.93 16.4935C150.586 16.4935 151.167 16.646 151.674 16.9511C152.187 17.2562 152.59 17.6748 152.882 18.207C153.182 18.732 153.332 19.3387 153.332 20.0269C153.332 20.7081 153.185 21.3147 152.893 21.8469C152.601 22.3719 152.198 22.787 151.684 23.0921C151.171 23.3901 150.579 23.5391 149.909 23.5391Z" fill="#3811CA"/>
<path d="M165.156 25.8061C166.29 25.8061 167.317 25.5648 168.237 25.0823C169.164 24.5928 169.888 23.9152 170.408 23.0495L168.472 22.0597C167.638 23.1382 166.579 23.6775 165.295 23.6775C164.24 23.6775 163.381 23.3688 162.718 22.7515C162.062 22.1342 161.734 21.3325 161.734 20.3462H170.654C170.69 20.1121 170.708 19.9347 170.708 19.8141C170.708 18.7001 170.465 17.7245 169.98 16.8873C169.503 16.05 168.832 15.3972 167.97 14.9289C167.114 14.4607 166.116 14.2265 164.975 14.2265C163.869 14.2265 162.864 14.4855 161.958 15.0034C161.06 15.5214 160.343 16.2203 159.808 17.1001C159.281 17.9728 159.017 18.952 159.017 20.0376C159.017 21.1303 159.284 22.113 159.819 22.9857C160.354 23.8584 161.085 24.5467 162.012 25.0504C162.939 25.5542 163.987 25.8061 165.156 25.8061ZM161.851 18.6859C161.958 17.9409 162.293 17.3485 162.857 16.9085C163.42 16.4686 164.122 16.2487 164.964 16.2487C165.77 16.2487 166.454 16.4722 167.018 16.9192C167.581 17.3591 167.93 17.948 168.066 18.6859H161.851Z" fill="#3811CA"/>
<path d="M173.892 25.4655H176.555V18.9733C176.555 18.5476 176.68 18.1502 176.93 17.7813C177.187 17.4052 177.518 17.1037 177.925 16.8766C178.331 16.6425 178.762 16.5254 179.219 16.5254C179.49 16.5254 179.779 16.568 180.085 16.6531C180.392 16.7383 180.663 16.8518 180.898 16.9937L182 14.748C181.729 14.5919 181.401 14.4678 181.016 14.3755C180.638 14.2762 180.267 14.2265 179.903 14.2265C178.456 14.2265 177.34 14.8686 176.555 16.1529V14.5671H173.892V25.4655Z" fill="#3811CA"/>
<defs>
<clipPath id="clip0">
<rect width="35.5541" height="32" fill="white"/>
</clipPath>
</defs>
</svg>
