<?xml version="1.0" encoding="utf-8"?>
<!-- Generator: Adobe Illustrator 19.2.1, SVG Export Plug-In . SVG Version: 6.00 Build 0)  -->
<svg version="1.1" id="GLYPHS" xmlns="http://www.w3.org/2000/svg" xmlns:xlink="http://www.w3.org/1999/xlink" x="0px" y="0px"
	 width="64px" height="42px" viewBox="0 0 64 42" style="enable-background:new 0 0 64 42;" xml:space="preserve">
<g id="Support_1_">
	<g>
		<rect style="fill:none;" width="64" height="42"/>
	</g>
	<g>
		<path style="fill:#FFFFFF;" d="M2.51,23.87c0.18,1.25,1.38,2.05,3.08,2.05c1.61,0,2.8-0.87,2.8-2.06c0-1.02-0.75-1.67-2.4-2.08
			l-1.54-0.4c-2.17-0.55-3.11-1.53-3.11-3.23c0-2.03,1.7-3.41,4.23-3.41c2.32,0,4.04,1.38,4.17,3.31h-1.5
			c-0.21-1.23-1.22-1.96-2.71-1.96c-1.59,0-2.65,0.8-2.65,2.01c0,0.94,0.66,1.48,2.31,1.9l1.25,0.33c2.48,0.62,3.48,1.59,3.48,3.35
			c0,2.2-1.74,3.6-4.47,3.6c-2.54,0-4.29-1.34-4.45-3.41H2.51z M19.15,27h-1.36v-1.4h-0.13c-0.45,1-1.4,1.56-2.77,1.56
			c-2.01,0-3.05-1.2-3.05-3.31v-5.79h1.43v5.45c0,1.61,0.6,2.36,2.03,2.36c1.58,0,2.44-0.94,2.44-2.51v-5.3h1.43V27z M29.66,22.53
			c0,2.8-1.49,4.63-3.76,4.63c-1.28,0-2.31-0.56-2.8-1.5h-0.13v4.33h-1.43V18.05h1.36v1.49h0.13c0.57-1.03,1.64-1.65,2.86-1.65
			C28.18,17.89,29.66,19.71,29.66,22.53z M28.18,22.53c0-2.09-0.98-3.35-2.61-3.35c-1.62,0-2.64,1.29-2.64,3.35
			c0,2.05,1.02,3.35,2.63,3.35C27.2,25.87,28.18,24.62,28.18,22.53z M39.71,22.53c0,2.8-1.49,4.63-3.76,4.63
			c-1.28,0-2.31-0.56-2.8-1.5h-0.13v4.33h-1.43V18.05h1.36v1.49h0.13c0.57-1.03,1.64-1.65,2.86-1.65
			C38.23,17.89,39.71,19.71,39.71,22.53z M38.23,22.53c0-2.09-0.98-3.35-2.61-3.35c-1.62,0-2.64,1.29-2.64,3.35
			c0,2.05,1.02,3.35,2.63,3.35C37.25,25.87,38.23,24.62,38.23,22.53z M41.2,22.53c0-2.88,1.58-4.63,4.13-4.63
			c2.55,0,4.12,1.75,4.12,4.63c0,2.87-1.58,4.63-4.12,4.63C42.77,27.16,41.2,25.4,41.2,22.53z M47.97,22.53
			c0-2.12-0.95-3.35-2.65-3.35s-2.65,1.22-2.65,3.35c0,2.12,0.96,3.35,2.65,3.35S47.97,24.64,47.97,22.53z M51.38,18.05h1.36v1.33
			h0.13c0.27-0.87,1.29-1.49,2.48-1.49c0.23,0,0.53,0.02,0.71,0.04v1.43c-0.12-0.03-0.63-0.08-0.91-0.08
			c-1.36,0-2.35,0.91-2.35,2.17V27h-1.43V18.05z M60.07,15.74v2.32h1.99v1.2h-1.99v5.06c0,1.05,0.4,1.5,1.33,1.5
			c0.26,0,0.4-0.01,0.66-0.03v1.2c-0.28,0.05-0.56,0.08-0.84,0.08c-1.84,0-2.58-0.68-2.58-2.39v-5.43H57.2v-1.2h1.44v-2.32H60.07z"
			/>
	</g>
</g>
</svg>
