<?xml version="1.0" encoding="utf-8"?>
<!-- Generator: Adobe Illustrator 19.2.1, SVG Export Plug-In . SVG Version: 6.00 Build 0)  -->
<svg version="1.1" id="GLYPHS" xmlns="http://www.w3.org/2000/svg" xmlns:xlink="http://www.w3.org/1999/xlink" x="0px" y="0px"
	 width="52px" height="44px" viewBox="0 0 52 44" style="enable-background:new 0 0 52 44;" xml:space="preserve">
<g id="Support">
	<g>
		<path style="fill:#FFFFFF;" d="M1.76,24.42c0.15,1.03,1.13,1.69,2.54,1.69c1.33,0,2.3-0.72,2.3-1.7c0-0.84-0.62-1.37-1.98-1.72
			l-1.26-0.33c-1.78-0.45-2.56-1.26-2.56-2.66c0-1.67,1.4-2.81,3.49-2.81c1.91,0,3.33,1.13,3.43,2.73H6.49
			c-0.17-1.01-1-1.61-2.24-1.61c-1.31,0-2.18,0.66-2.18,1.65c0,0.77,0.54,1.22,1.9,1.57L5,21.51c2.04,0.51,2.86,1.31,2.86,2.75
			c0,1.81-1.43,2.97-3.68,2.97c-2.09,0-3.53-1.11-3.66-2.81H1.76z"/>
	</g>
	<g>
		<path style="fill:#FFFFFF;" d="M15.58,27h-1.12v-1.16h-0.11c-0.37,0.82-1.16,1.29-2.28,1.29c-1.65,0-2.52-0.98-2.52-2.73v-4.77
			h1.18v4.48c0,1.33,0.49,1.94,1.67,1.94c1.3,0,2.01-0.77,2.01-2.06v-4.36h1.18V27z"/>
	</g>
	<g>
		<path style="fill:#FFFFFF;" d="M24.34,23.32c0,2.3-1.22,3.81-3.1,3.81c-1.05,0-1.9-0.46-2.3-1.24h-0.11v3.57h-1.18v-9.83h1.12
			v1.23h0.11c0.47-0.85,1.35-1.36,2.36-1.36C23.12,19.5,24.34,21,24.34,23.32z M23.12,23.32c0-1.72-0.81-2.75-2.15-2.75
			c-1.33,0-2.17,1.06-2.17,2.75c0,1.69,0.84,2.75,2.17,2.75C22.32,26.07,23.12,25.04,23.12,23.32z"/>
	</g>
	<g>
		<path style="fill:#FFFFFF;" d="M32.73,23.32c0,2.3-1.22,3.81-3.1,3.81c-1.05,0-1.9-0.46-2.3-1.24h-0.11v3.57h-1.18v-9.83h1.12
			v1.23h0.11c0.47-0.85,1.35-1.36,2.36-1.36C31.52,19.5,32.73,21,32.73,23.32z M31.52,23.32c0-1.72-0.81-2.75-2.15-2.75
			c-1.33,0-2.17,1.06-2.17,2.75c0,1.69,0.84,2.75,2.17,2.75C30.71,26.07,31.52,25.04,31.52,23.32z"/>
	</g>
	<g>
		<path style="fill:#FFFFFF;" d="M34.07,23.32c0-2.37,1.3-3.81,3.4-3.81s3.4,1.44,3.4,3.81c0,2.37-1.3,3.81-3.4,3.81
			S34.07,25.68,34.07,23.32z M39.65,23.32c0-1.75-0.79-2.75-2.18-2.75s-2.18,1-2.18,2.75c0,1.74,0.79,2.75,2.18,2.75
			S39.65,25.06,39.65,23.32z"/>
	</g>
	<g>
		<path style="fill:#FFFFFF;" d="M42.57,19.63h1.12v1.09h0.11c0.22-0.72,1.07-1.22,2.04-1.22c0.19,0,0.44,0.01,0.59,0.03v1.18
			c-0.1-0.03-0.52-0.07-0.75-0.07c-1.12,0-1.93,0.75-1.93,1.79V27h-1.18V19.63z"/>
	</g>
	<g>
		<path style="fill:#FFFFFF;" d="M49.84,17.72v1.91h1.64v0.98h-1.64v4.17c0,0.87,0.33,1.24,1.09,1.24c0.21,0,0.33-0.01,0.55-0.03
			v0.99c-0.23,0.04-0.46,0.07-0.69,0.07c-1.52,0-2.13-0.56-2.13-1.97v-4.47h-1.19v-0.98h1.19v-1.91H49.84z"/>
	</g>
	<g>
		<rect y="0" style="fill:none;" width="52" height="44"/>
	</g>
</g>
</svg>
