<svg width="194" height="114" viewBox="0 0 194 114" fill="none" xmlns="http://www.w3.org/2000/svg">
<path d="M23 0.5H170C171.933 0.5 173.5 2.067 173.5 4V102.5H19.5V4C19.5 2.067 21.067 0.5 23 0.5Z" fill="#2B292A" stroke="#1D1B1C"/>
<circle cx="97.5" cy="3.5" r="1.5" fill="#474747"/>
<rect x="24.5" y="7.5" width="145" height="90" fill="white" stroke="#1D1B1C"/>
<rect y="103" width="194" height="10" fill="#E5E6E8"/>
<rect y="112" width="194" height="2" fill="#B7B6BA"/>
<path d="M83 104H110V106C110 106.552 109.552 107 109 107H84C83.4477 107 83 106.552 83 106V104Z" fill="#ACADB1"/>
<rect x="178" y="106" width="8" height="2" rx="1" fill="#ACADB1"/>
<rect x="137" y="17" width="18" height="22" fill="#CA2C1D"/>
<rect x="137" y="45" width="18" height="23" fill="#D8D8D8"/>
<rect x="72" y="17" width="58" height="16" fill="#D8D8D8"/>
<rect x="72" y="39" width="58" height="28" fill="#D8D8D8"/>
<rect x="39" y="89" width="27" height="5" fill="#D8D8D8"/>
<rect x="39" y="17" width="27" height="66" fill="#CA2C1D"/>
<path d="M47.1089 53H46.23L48.6733 46.6016H49.4204L51.8682 53H50.9937L50.3828 51.3257H47.7153L47.1089 53ZM47.9658 50.6357H50.1323L49.0469 47.6475L47.9658 50.6357ZM52.7295 53V46.6016H54.5356C55.0981 46.6016 55.5903 46.7246 56.0122 46.9707C56.437 47.2139 56.7681 47.561 57.0054 48.0122C57.2427 48.4604 57.3613 48.9922 57.3613 49.6074V49.9941C57.3613 50.6123 57.2427 51.1455 57.0054 51.5938C56.7681 52.042 56.4326 52.3892 55.999 52.6353C55.5654 52.8784 55.0527 53 54.4609 53H52.7295ZM54.5356 47.2915H53.582V52.3145H54.4609C55.1436 52.3145 55.6562 52.1035 55.999 51.6816C56.3447 51.2598 56.5176 50.6973 56.5176 49.9941V49.5986C56.5176 48.8662 56.3447 48.2993 55.999 47.8979C55.6562 47.4937 55.1685 47.2915 54.5356 47.2915Z" fill="white"/>
<path d="M141.109 31H140.23L142.673 24.6016H143.42L145.868 31H144.994L144.383 29.3257H141.715L141.109 31ZM141.966 28.6357H144.132L143.047 25.6475L141.966 28.6357ZM146.729 31V24.6016H148.536C149.098 24.6016 149.59 24.7246 150.012 24.9707C150.437 25.2139 150.768 25.561 151.005 26.0122C151.243 26.4604 151.361 26.9922 151.361 27.6074V27.9941C151.361 28.6123 151.243 29.1455 151.005 29.5938C150.768 30.042 150.433 30.3892 149.999 30.6353C149.565 30.8784 149.053 31 148.461 31H146.729ZM148.536 25.2915H147.582V30.3145H148.461C149.144 30.3145 149.656 30.1035 149.999 29.6816C150.345 29.2598 150.518 28.6973 150.518 27.9941V27.5986C150.518 26.8662 150.345 26.2993 149.999 25.8979C149.656 25.4937 149.168 25.2915 148.536 25.2915Z" fill="white"/>
<rect x="137" y="74" width="18" height="20" fill="#CA2C1D"/>
<path d="M141.109 87H140.23L142.673 80.6016H143.42L145.868 87H144.994L144.383 85.3257H141.715L141.109 87ZM141.966 84.6357H144.132L143.047 81.6475L141.966 84.6357ZM146.729 87V80.6016H148.536C149.098 80.6016 149.59 80.7246 150.012 80.9707C150.437 81.2139 150.768 81.561 151.005 82.0122C151.243 82.4604 151.361 82.9922 151.361 83.6074V83.9941C151.361 84.6123 151.243 85.1455 151.005 85.5938C150.768 86.042 150.433 86.3892 149.999 86.6353C149.565 86.8784 149.053 87 148.461 87H146.729ZM148.536 81.2915H147.582V86.3145H148.461C149.144 86.3145 149.656 86.1035 149.999 85.6816C150.345 85.2598 150.518 84.6973 150.518 83.9941V83.5986C150.518 82.8662 150.345 82.2993 149.999 81.8979C149.656 81.4937 149.168 81.2915 148.536 81.2915Z" fill="white"/>
<rect x="72" y="73" width="58" height="21" fill="#D8D8D8"/>
<mask id="mask0_16_448" style="mask-type:alpha" maskUnits="userSpaceOnUse" x="23" y="7" width="123" height="91">
<path d="M146 97.5L23 7V97.5H146Z" fill="#CACACA"/>
</mask>
<g mask="url(#mask0_16_448)">
<rect x="137" y="17" width="18" height="22" fill="#C52D22"/>
<rect x="137" y="45" width="18" height="23" fill="#CACACA"/>
<rect x="72" y="17" width="58" height="16" fill="#CACACA"/>
<rect x="72" y="39" width="58" height="28" fill="#CACACA"/>
<rect x="39" y="89" width="27" height="5" fill="#CACACA"/>
<rect x="39" y="17" width="27" height="66" fill="#C52D22"/>
<path d="M47.1089 53H46.23L48.6733 46.6016H49.4204L51.8682 53H50.9937L50.3828 51.3257H47.7153L47.1089 53ZM47.9658 50.6357H50.1323L49.0469 47.6475L47.9658 50.6357ZM52.7295 53V46.6016H54.5356C55.0981 46.6016 55.5903 46.7246 56.0122 46.9707C56.437 47.2139 56.7681 47.561 57.0054 48.0122C57.2427 48.4604 57.3613 48.9922 57.3613 49.6074V49.9941C57.3613 50.6123 57.2427 51.1455 57.0054 51.5938C56.7681 52.042 56.4326 52.3892 55.999 52.6353C55.5654 52.8784 55.0527 53 54.4609 53H52.7295ZM54.5356 47.2915H53.582V52.3145H54.4609C55.1436 52.3145 55.6562 52.1035 55.999 51.6816C56.3447 51.2598 56.5176 50.6973 56.5176 49.9941V49.5986C56.5176 48.8662 56.3447 48.2993 55.999 47.8979C55.6562 47.4937 55.1685 47.2915 54.5356 47.2915Z" fill="white"/>
<path d="M141.109 31H140.23L142.673 24.6016H143.42L145.868 31H144.994L144.383 29.3257H141.715L141.109 31ZM141.966 28.6357H144.132L143.047 25.6475L141.966 28.6357ZM146.729 31V24.6016H148.536C149.098 24.6016 149.59 24.7246 150.012 24.9707C150.437 25.2139 150.768 25.561 151.005 26.0122C151.243 26.4604 151.361 26.9922 151.361 27.6074V27.9941C151.361 28.6123 151.243 29.1455 151.005 29.5938C150.768 30.042 150.433 30.3892 149.999 30.6353C149.565 30.8784 149.053 31 148.461 31H146.729ZM148.536 25.2915H147.582V30.3145H148.461C149.144 30.3145 149.656 30.1035 149.999 29.6816C150.345 29.2598 150.518 28.6973 150.518 27.9941V27.5986C150.518 26.8662 150.345 26.2993 149.999 25.8979C149.656 25.4937 149.168 25.2915 148.536 25.2915Z" fill="white"/>
<rect x="137" y="74" width="18" height="20" fill="#C52D22"/>
<path d="M141.109 87H140.23L142.673 80.6016H143.42L145.868 87H144.994L144.383 85.3257H141.715L141.109 87ZM141.966 84.6357H144.132L143.047 81.6475L141.966 84.6357ZM146.729 87V80.6016H148.536C149.098 80.6016 149.59 80.7246 150.012 80.9707C150.437 81.2139 150.768 81.561 151.005 82.0122C151.243 82.4604 151.361 82.9922 151.361 83.6074V83.9941C151.361 84.6123 151.243 85.1455 151.005 85.5938C150.768 86.042 150.433 86.3892 149.999 86.6353C149.565 86.8784 149.053 87 148.461 87H146.729ZM148.536 81.2915H147.582V86.3145H148.461C149.144 86.3145 149.656 86.1035 149.999 85.6816C150.345 85.2598 150.518 84.6973 150.518 83.9941V83.5986C150.518 82.8662 150.345 82.2993 149.999 81.8979C149.656 81.4937 149.168 81.2915 148.536 81.2915Z" fill="white"/>
<rect x="72" y="73" width="58" height="21" fill="#CACACA"/>
</g>
</svg>
