<?xml version="1.0" encoding="UTF-8"?>
<!-- Generator: Adobe Illustrator 18.0.0, SVG Export Plug-In . SVG Version: 6.00 Build 0)  -->
<!DOCTYPE svg PUBLIC "-//W3C//DTD SVG 1.1//EN" "http://www.w3.org/Graphics/SVG/1.1/DTD/svg11.dtd">
<svg version="1.1" id="community" xmlns="http://www.w3.org/2000/svg" xmlns:xlink="http://www.w3.org/1999/xlink" x="0px" y="0px" viewBox="0 0 32 32" enable-background="new 0 0 32 32" xml:space="preserve">
<g>
	<path fill="#187E3F" d="M11.9,9.3C11.9,9.3,11.9,9.3,11.9,9.3C11.9,9.3,11.9,9.3,11.9,9.3c-5.1-5.1-6.4-4-6.4-4v0   C2.7,8,1,11.8,1,16c0,3.4,1.1,6.6,3.1,9.1c0,0,0.1,0,0.1,0c0,0,0,0,0-0.1C3,21.5,8.9,12.9,11.9,9.3z"/>
	<path fill="#187E3F" d="M26.5,5.3L26.5,5.3c0,0-1.3-1.1-6.4,3.9c0,0,0,0,0,0c0,0,0,0,0,0c3,3.6,8.9,12.2,7.7,15.7c0,0,0,0.1,0,0.1   c0,0,0.1,0,0.1,0c1.9-2.5,3.1-5.7,3.1-9.1C31,11.8,29.3,8,26.5,5.3z"/>
	<path fill="#187E3F" d="M16,5.4C16,5.4,16,5.4,16,5.4C16,5.4,16,5.4,16,5.4c0.5-0.2,4.9-2.8,7.8-2.1c0,0,0.1,0,0.1,0   c0,0,0-0.1,0-0.1C21.5,1.8,19,1,16,1c-3,0-5.5,0.8-7.8,2.2c0,0,0,0,0,0.1c0,0,0,0,0.1,0C10.8,2.7,14.9,4.8,16,5.4z"/>
	<path fill="#187E3F" d="M16,13.1C16,13,16,13,16,13.1C16,13,16,13,16,13.1c-4.6,3.4-12.3,11.9-9.9,14.2C8.8,29.6,12.2,31,16,31   c3.8,0,7.2-1.4,9.9-3.7h0C28.2,24.9,20.5,16.5,16,13.1z"/>
</g>
</svg>