<?xml version="1.0" encoding="UTF-8"?>
<!-- Generator: Adobe Illustrator 18.0.0, SVG Export Plug-In . SVG Version: 6.00 Build 0)  -->
<!DOCTYPE svg PUBLIC "-//W3C//DTD SVG 1.1//EN" "http://www.w3.org/Graphics/SVG/1.1/DTD/svg11.dtd">
<svg version="1.1" id="community" xmlns="http://www.w3.org/2000/svg" xmlns:xlink="http://www.w3.org/1999/xlink" x="0px" y="0px" viewBox="0 0 32 32" enable-background="new 0 0 32 32" xml:space="preserve">
<path fill-rule="evenodd" clip-rule="evenodd" fill="#1EBBEE" d="M30.4,9.6C31.9,6,32,3,30.2,1.2c-2-2-6.8-1.4-11.9,1  c-0.2,0-0.4,0-0.6,0c-3.6,0-7.1,1.3-9.7,3.6c-2.2,2-3.8,4.6-4.5,7.5c0.5-0.6,3.3-3.9,6.5-5.7c0.1,0,0.9-0.5,0.9-0.5  c-0.1,0-1.6,1.5-1.9,1.8C2,16.1-2.1,27,1.1,30.2c2.1,2.1,5.9,1.6,10.3-0.8c1.9,0.9,4,1.3,6.3,1.3c3,0,5.8-0.8,8.2-2.4  c2.5-1.6,4.3-4.1,5.4-7h-7.8c-1,1.9-3.3,3.2-5.7,3.2c-3.4,0-6.2-2.8-6.3-6l0-0.1l0-0.2h0.2h20.2c0-0.1,0-0.2,0-0.3  c0-0.5,0.1-1.1,0.1-1.5C32,14,31.4,11.7,30.4,9.6z M3.3,29.6c-1.6-1.6-1.1-4.7,0.8-8.4c0.9,2.5,2.4,4.7,4.3,6.3c0.6,0.5,1.3,1,2,1.4  C7.2,30.6,4.6,30.9,3.3,29.6z M23.8,14.4H11.7h-0.1l0-0.1c0.2-3.1,3.1-5.8,6.5-5.8c3.2,0,5.8,2.5,6,5.8l0,0.1H23.8z M29.9,8.8  C29.9,8.8,29.9,8.8,29.9,8.8c-0.6-1-1.4-2-2.3-2.8c-1.4-1.3-3-2.3-4.8-3c3.2-1.5,5.9-1.7,7.3-0.3C31.2,4,31.1,6.2,29.9,8.8  C29.9,8.9,29.9,8.9,29.9,8.8C29.9,8.9,29.9,8.9,29.9,8.8z"/>
</svg>