<?xml version="1.0" encoding="UTF-8"?>
<!-- Generator: Adobe Illustrator 18.0.0, SVG Export Plug-In . SVG Version: 6.00 Build 0)  -->
<!DOCTYPE svg PUBLIC "-//W3C//DTD SVG 1.1//EN" "http://www.w3.org/Graphics/SVG/1.1/DTD/svg11.dtd">
<svg version="1.1" id="community" xmlns="http://www.w3.org/2000/svg" xmlns:xlink="http://www.w3.org/1999/xlink" x="0px" y="0px" viewBox="0 0 32 32" enable-background="new 0 0 32 32" xml:space="preserve">
<g>
	<path fill="#2752A3" d="M29,19.1c0.1-2.4-1.1-4-2.5-4.6c-2.3-1-4.4,0.2-4.4,0.2c-0.9-1.4-2.8-3.1-6.2-2.4c-3.8,0.9-4.1,5.1-4.1,5.1   s-4.3,0.1-4.3,4c0,2.3,1.2,4.6,4.5,4.6c1,0,16.8,0,16.8,0c1.9,0,3.1-1.9,3.1-3.4C32,19.3,29,19.1,29,19.1z"/>
	<path fill="#2752A3" d="M10.1,16.2c0.2,0,0.3-0.1,0.5-0.1c0,0,0,0,0,0c0.4-1.4,1.3-3.6,3.7-4.7c0.1,0,0.1-0.1,0.2-0.1   c0,0,0.1,0,0.1,0c0.4-0.2,0.8-0.3,1.2-0.5c2.1-0.5,3.8-0.1,5.1,0.7c0.7,0.4,1.2,1,1.6,1.6c0,0,0.1-0.1,0.2-0.1c0.3-0.1,1-0.4,2-0.3   c-0.2-1.4-1.1-4.4-4.4-5.7c-3.7-1.4-6.9,0.4-8.4,3.1c0,0-2.3-1.5-5-0.1c-1.9,1-3.1,3.3-2.8,5.5c0,0-3.9,0.3-3.9,4.4   C0.2,22,2.3,24,4.5,24h2C6.2,23.2,6,22.4,6,21.4C6,18.2,8.2,16.7,10.1,16.2z"/>
</g>
</svg>