<?xml version="1.0" encoding="UTF-8"?>
<!-- Generator: Adobe Illustrator 18.0.0, SVG Export Plug-In . SVG Version: 6.00 Build 0)  -->
<!DOCTYPE svg PUBLIC "-//W3C//DTD SVG 1.1//EN" "http://www.w3.org/Graphics/SVG/1.1/DTD/svg11.dtd">
<svg version="1.1" id="community" xmlns="http://www.w3.org/2000/svg" xmlns:xlink="http://www.w3.org/1999/xlink" x="0px" y="0px" viewBox="0 0 32 32" enable-background="new 0 0 32 32" xml:space="preserve">
<g>
	<path fill="#2272B9" d="M30,9v14H15V9H30 M30,8H15c-0.6,0-1,0.4-1,1v14c0,0.6,0.4,1,1,1h15c0.6,0,1-0.4,1-1V9C31,8.4,30.6,8,30,8   L30,8z"/>
</g>
<g>
	<path fill-rule="evenodd" clip-rule="evenodd" fill="#2272B9" d="M30,9.5l-7.4,7.3c0,0-0.1,0-0.2,0L15,9.5v2.2l7,6.5   c0.3,0.3,0.8,0.3,1.1,0l7-6.5V9.5z"/>
</g>
<g>
	<g>
		<path fill-rule="evenodd" clip-rule="evenodd" fill="#2272B9" d="M19,0.8L1,4v24.1l18,3.2V0.8z"/>
	</g>
	<g opacity="5.000000e-002">
		<linearGradient id="SVGID_1_" gradientUnits="userSpaceOnUse" x1="1" y1="16.0266" x2="18.9956" y2="16.0266">
			<stop offset="0" style="stop-color:#FFFFFF"/>
			<stop offset="1" style="stop-color:#000000"/>
		</linearGradient>
		<path fill-rule="evenodd" clip-rule="evenodd" fill="url(#SVGID_1_)" d="M19,0.8L1,4v24.1l18,3.2V0.8z"/>
	</g>
</g>
<path fill="#FFFFFF" d="M9.8,19.7c-0.2,0-0.4,0-0.5-0.1c-0.2,0-0.3-0.1-0.5-0.2c-0.1-0.1-0.3-0.2-0.4-0.3C8.2,19,8.1,18.9,8,18.8  c-0.1-0.2-0.2-0.4-0.3-0.5c-0.1-0.2-0.2-0.4-0.2-0.6c-0.1-0.2-0.1-0.5-0.1-0.7c0-0.3,0-0.5,0-0.8c0-0.3,0-0.5,0-0.8  c0-0.2,0.1-0.5,0.1-0.7c0.1-0.2,0.1-0.4,0.2-0.6c0.1-0.2,0.2-0.4,0.3-0.5C8,13.2,8.1,13,8.3,12.9c0.1-0.1,0.3-0.3,0.4-0.3  c0.2-0.1,0.3-0.2,0.5-0.2c0.2-0.1,0.4-0.1,0.6-0.1c0.2,0,0.4,0,0.6,0c0.2,0,0.3,0.1,0.5,0.2c0.2,0.1,0.3,0.2,0.4,0.3  c0.1,0.1,0.3,0.3,0.4,0.4c0.1,0.2,0.2,0.4,0.3,0.6c0.1,0.2,0.2,0.4,0.2,0.7c0.1,0.2,0.1,0.5,0.1,0.8c0,0.3,0,0.6,0,0.9  c0,0.3,0,0.6,0,0.9c0,0.3-0.1,0.5-0.1,0.8c-0.1,0.2-0.1,0.5-0.2,0.6c-0.1,0.2-0.2,0.4-0.3,0.5c-0.1,0.2-0.2,0.3-0.4,0.4  c-0.1,0.1-0.3,0.2-0.4,0.3c-0.2,0.1-0.3,0.1-0.5,0.2C10.1,19.7,9.9,19.7,9.8,19.7 M9.9,10c-0.4,0-0.8,0.1-1.1,0.2  c-0.3,0.1-0.7,0.2-1,0.4c-0.3,0.2-0.6,0.3-0.8,0.6c-0.3,0.2-0.5,0.5-0.7,0.8c-0.2,0.3-0.4,0.6-0.6,0.9c-0.2,0.3-0.3,0.7-0.4,1  c-0.1,0.4-0.2,0.7-0.2,1.1C5,15.3,5,15.7,5,16.1c0,0.4,0,0.8,0.1,1.2c0.1,0.4,0.1,0.7,0.2,1.1c0.1,0.3,0.2,0.7,0.4,1  c0.2,0.3,0.4,0.6,0.6,0.9C6.5,20.5,6.7,20.7,7,21c0.2,0.2,0.5,0.4,0.8,0.5c0.3,0.1,0.6,0.3,0.9,0.3C9,21.9,9.4,22,9.7,22  c0.4,0,0.7,0,1.1,0c0.3-0.1,0.7-0.1,1-0.3c0.3-0.1,0.6-0.3,0.9-0.5c0.3-0.2,0.6-0.4,0.8-0.7c0.3-0.3,0.5-0.6,0.7-0.9  c0.2-0.3,0.4-0.7,0.5-1.1c0.1-0.4,0.2-0.8,0.3-1.2c0.1-0.4,0.1-0.9,0.1-1.4c0-0.5,0-0.9-0.1-1.3c-0.1-0.4-0.2-0.8-0.3-1.2  c-0.1-0.4-0.3-0.7-0.5-1c-0.2-0.3-0.4-0.6-0.6-0.9c-0.2-0.3-0.5-0.5-0.8-0.7c-0.3-0.2-0.6-0.4-0.9-0.5c-0.3-0.1-0.6-0.2-1-0.3  C10.6,10,10.2,10,9.9,10"/>
</svg>