<?xml version="1.0" encoding="UTF-8"?>
<!-- Generator: Adobe Illustrator 18.0.0, SVG Export Plug-In . SVG Version: 6.00 Build 0)  -->
<!DOCTYPE svg PUBLIC "-//W3C//DTD SVG 1.1//EN" "http://www.w3.org/Graphics/SVG/1.1/DTD/svg11.dtd">
<svg version="1.1" id="community" xmlns="http://www.w3.org/2000/svg" xmlns:xlink="http://www.w3.org/1999/xlink" x="0px" y="0px" viewBox="0 0 32 32" enable-background="new 0 0 32 32" xml:space="preserve">
<path fill-rule="evenodd" clip-rule="evenodd" fill="#00A1DF" d="M30.8,18.6c0.1-0.8,0.2-1.7,0.2-2.6c0-8.3-6.7-15.1-15.1-15.1  c-0.9,0-1.8,0.1-2.6,0.2C12.1,0.4,10.6,0,8.9,0C4,0,0,4,0,8.9c0,1.6,0.4,3.1,1.2,4.4C1,14.2,0.9,15.1,0.9,16  c0,8.3,6.7,15.1,15.1,15.1c0.9,0,1.8-0.1,2.6-0.2c1.3,0.7,2.8,1.2,4.4,1.2c4.9,0,8.9-4,8.9-8.9C32,21.4,31.6,19.9,30.8,18.6z   M16.1,25.6c-5.3,0-7.8-2.7-7.8-4.7c0-1,0.8-1.7,1.8-1.7c2.3,0,1.7,3.4,6,3.4c2.2,0,3.5-1.3,3.5-2.5c0-0.7-0.4-1.6-1.9-1.9L12.9,17  c-3.8-1-4.5-3.1-4.5-5c0-4.1,3.7-5.6,7.3-5.6c3.3,0,7.2,1.8,7.2,4.3c0,1-0.9,1.6-1.9,1.6c-2,0-1.6-2.7-5.6-2.7c-2,0-3,0.9-3,2.2  c0,1.3,1.5,1.7,2.8,2l3.5,0.8c3.9,0.9,4.9,3.1,4.9,5.3C23.7,23.1,21.1,25.6,16.1,25.6z"/>
</svg>