<svg width="436" height="95" viewBox="0 0 436 95" fill="none" xmlns="http://www.w3.org/2000/svg">
<g clip-path="url(#clip0)">
<g clip-path="url(#clip1)">
<path fill-rule="evenodd" clip-rule="evenodd" d="M110.2 0H0V95.2H110.2V0ZM42 10C39.2386 10 37 12.2386 37 15C37 17.7614 39.2386 20 42 20H68C70.7614 20 73 17.7614 73 15C73 12.2386 70.7614 10 68 10H42Z" fill="#EEEEEE"/>
<g clip-path="url(#clip2)">
<path d="M15.0996 40.1V98.5H36.3996L55.0996 66H102.7V40H15.0996V40.1ZM15.0996 40.1V98.5H36.3996L55.0996 66H102.7V40H15.0996V40.1Z" fill="#DB4437"/>
<path d="M7.5 135.3H52.8L73.8 114.3V98.5H36.3L7.5 49V135.3ZM7.5 135.3H52.8L73.8 114.3V98.5H36.3L7.5 49V135.3Z" fill="#0F9D58"/>
<path d="M55.0998 66L73.7998 98.4L52.7998 135.2H102.7V66H55.0998ZM55.0998 66L73.7998 98.4L52.7998 135.2H102.7V66H55.0998Z" fill="#FFCD40"/>
<path d="M55.1 109.3C67.0294 109.3 76.7 99.6293 76.7 87.7C76.7 75.7706 67.0294 66.1 55.1 66.1C43.1706 66.1 33.5 75.7706 33.5 87.7C33.5 99.6293 43.1706 109.3 55.1 109.3Z" fill="#F1F1F1"/>
<path d="M55.0998 105C64.6543 105 72.3998 97.2545 72.3998 87.7C72.3998 78.1455 64.6543 70.4 55.0998 70.4C45.5453 70.4 37.7998 78.1455 37.7998 87.7C37.7998 97.2545 45.5453 105 55.0998 105Z" fill="#4285F4"/>
</g>
<path d="M0 47H110.2V47.6H0V47Z" fill="#212121" fill-opacity="0.02"/>
<path d="M0 47.6H110.2V48.2H0V47.6Z" fill="white" fill-opacity="0.05"/>
<path d="M67.6 20H42.6C39.9 20 37.8 17.9 37.6 15.3C37.6 15.4 37.6 15.5 37.6 15.6C37.6 18.4 39.8 20.6 42.6 20.6H67.7C70.5 20.6 72.7 18.4 72.7 15.6C72.7 15.5 72.7 15.4 72.7 15.3C72.5 18 70.3 20 67.6 20ZM0 0V0.6H110.2V0H0Z" fill="#212121" fill-opacity="0.02"/>
<path d="M42.6 10H67.7C70.4 10 72.5 12.1 72.7 14.7C72.7 14.6 72.7 14.5 72.7 14.4C72.7 11.6 70.5 9.4 67.7 9.4H42.7C39.9 9.4 37.7 11.6 37.7 14.4C37.7 14.5 37.7 14.6 37.7 14.7C37.8 12.1 39.9 10 42.6 10ZM102.7 94.6H7.5C3.4 94.6 0 91.2 0 87V87.6C0 91.7 3.4 95.1 7.5 95.1H102.7C106.8 95.1 110.2 91.7 110.2 87.6V87C110.2 91.2 106.8 94.6 102.7 94.6Z" fill="#231F20" fill-opacity="0.1"/>
<path fill-rule="evenodd" clip-rule="evenodd" d="M110.2 0H0V47.6H110.2V0ZM42 10C39.2386 10 37 12.2386 37 15C37 17.7614 39.2386 20 42 20H68C70.7614 20 73 17.7614 73 15C73 12.2386 70.7614 10 68 10H42Z" fill="#212121" fill-opacity="0.05"/>
</g>
<path d="M149.994 78.4349C146.099 78.4349 142.804 77.1376 140.207 74.4433C137.611 71.8487 136.213 68.5557 136.213 64.5641C136.213 60.5725 137.511 57.3792 140.207 54.6849C142.804 52.0903 146.099 50.6933 149.994 50.6933C153.988 50.6933 157.184 52.0903 159.681 54.9842L157.284 57.2794C155.486 55.084 153.09 53.8866 149.894 53.8866C146.998 53.8866 144.601 54.8845 142.604 56.7805C140.607 58.7763 139.608 61.271 139.608 64.4643C139.608 67.6576 140.607 70.1523 142.604 72.1481C144.601 74.0441 146.998 75.042 149.894 75.042C153.09 75.042 155.786 73.7448 157.983 71.25L160.38 73.645C159.181 75.1418 157.683 76.2395 155.786 77.1376C154.188 78.0357 152.191 78.4349 149.994 78.4349Z" fill="#5F6368"/>
<path d="M166.971 51.3923V59.7747L166.871 62.2694H166.971C167.47 61.3713 168.269 60.6728 169.267 60.074C170.366 59.4753 171.464 59.1759 172.663 59.1759C174.86 59.1759 176.657 59.8745 177.756 61.2715C178.854 62.6686 179.553 64.4648 179.553 66.76V77.8366H176.158V67.2589C176.158 63.9658 174.66 62.2694 171.664 62.2694C170.266 62.2694 169.068 62.8682 168.269 63.9658C167.37 65.0635 166.971 66.3608 166.971 67.8577V77.8366H163.575V51.3923H166.971Z" fill="#5F6368"/>
<path d="M186.943 77.8361H183.548V59.7742H186.843V62.7679H186.943C187.343 61.77 188.042 60.9716 189.04 60.3729C190.139 59.7742 191.137 59.375 192.136 59.375C193.135 59.375 194.033 59.5746 194.732 59.7742L193.434 62.9674C193.035 62.7679 192.336 62.6681 191.637 62.6681C190.438 62.6681 189.34 63.167 188.341 64.1649C187.442 65.1628 186.943 66.3603 186.943 67.9569V77.8361Z" fill="#5F6368"/>
<path d="M197.528 61.8697C199.326 60.0735 201.523 59.0756 204.219 59.0756C206.915 59.0756 209.112 59.9737 210.91 61.8697C212.707 63.7658 213.506 65.9611 213.506 68.7553C213.506 71.5494 212.607 73.8445 210.91 75.6408C209.112 77.437 206.915 78.4349 204.219 78.4349C201.523 78.4349 199.326 77.5368 197.528 75.6408C195.731 73.8445 194.932 71.5494 194.932 68.7553C194.932 65.9611 195.731 63.7658 197.528 61.8697ZM200.025 73.5452C201.223 74.7426 202.621 75.3414 204.219 75.3414C205.817 75.3414 207.215 74.7426 208.413 73.5452C209.611 72.3477 210.211 70.7511 210.211 68.7553C210.211 66.7595 209.611 65.1628 208.413 63.9653C207.215 62.7679 205.817 62.1691 204.219 62.1691C202.621 62.1691 201.223 62.7679 200.025 63.9653C198.826 65.1628 198.227 66.7595 198.227 68.7553C198.227 70.7511 198.826 72.3477 200.025 73.5452Z" fill="#5F6368"/>
<path d="M216.203 77.8361V59.7742H219.499V62.2689H219.598C220.098 61.3708 220.897 60.6723 221.995 60.0735C223.094 59.4748 224.092 59.1754 225.191 59.1754C227.987 59.1754 229.884 60.3729 230.883 62.6681C232.381 60.3729 234.478 59.1754 237.174 59.1754C239.271 59.1754 240.969 59.874 242.068 61.1712C243.166 62.5683 243.665 64.3645 243.665 66.7595V77.8361H240.27V67.2584C240.27 65.4622 239.97 64.1649 239.271 63.3666C238.572 62.5683 237.574 62.1691 236.276 62.1691C234.977 62.1691 233.879 62.7679 232.98 63.8656C232.081 64.9632 231.682 66.2605 231.682 67.7574V77.7364H228.287V67.2584C228.287 65.4622 227.987 64.1649 227.288 63.3666C226.589 62.5683 225.59 62.1691 224.292 62.1691C222.994 62.1691 221.895 62.7679 220.997 63.8656C220.098 64.9632 219.698 66.2605 219.698 67.7574V77.7364H216.203V77.8361Z" fill="#5F6368"/>
<path d="M255.848 78.4349C253.151 78.4349 250.855 77.5368 249.157 75.7405C247.459 73.9443 246.561 71.6492 246.561 68.855C246.561 66.2605 247.359 63.9653 249.057 62.0693C250.755 60.1733 252.852 59.2752 255.448 59.2752C258.145 59.2752 260.242 60.1733 261.939 61.8697C263.637 63.5662 264.336 65.9611 264.336 68.855V69.4538H250.056C250.156 71.25 250.755 72.7468 251.853 73.7447C252.952 74.8424 254.25 75.3414 255.748 75.3414C258.145 75.3414 259.842 74.3435 260.741 72.2479L263.737 73.5452C263.138 74.9422 262.139 76.1397 260.841 77.0378C259.543 77.9359 257.845 78.4349 255.848 78.4349ZM260.741 66.6597C260.641 65.6618 260.242 64.6639 259.343 63.666C258.444 62.7679 257.146 62.2689 255.448 62.2689C254.15 62.2689 253.052 62.6681 252.153 63.4664C251.254 64.2647 250.555 65.3624 250.255 66.6597H260.741Z" fill="#5F6368"/>
<path d="M305.58 51.3923L298.489 77.8366H294.994L289.302 60.3734H289.202L283.51 77.8366H280.015L272.625 51.3923H276.12L281.713 72.1486H281.812L287.505 54.885H290.7L296.392 72.1486H296.492L301.785 51.3923H305.58Z" fill="#5F6368"/>
<path d="M314.367 78.4349C311.671 78.4349 309.374 77.5368 307.677 75.7405C305.979 73.9443 305.08 71.6492 305.08 68.855C305.08 66.2605 305.879 63.9653 307.577 62.0693C309.274 60.1733 311.371 59.2752 313.968 59.2752C316.664 59.2752 318.761 60.1733 320.459 61.8697C322.157 63.5662 322.856 65.9611 322.856 68.855V69.4538H308.575C308.675 71.25 309.274 72.7468 310.373 73.7447C311.471 74.8424 312.77 75.3414 314.267 75.3414C316.664 75.3414 318.362 74.3435 319.261 72.2479L322.256 73.5452C321.657 74.9422 320.659 76.1397 319.36 77.0378C318.062 77.9359 316.365 78.4349 314.367 78.4349ZM319.261 66.6597C319.161 65.6618 318.761 64.6639 317.862 63.666C316.964 62.7679 315.665 62.2689 313.968 62.2689C312.67 62.2689 311.571 62.6681 310.672 63.4664C309.774 64.2647 309.075 65.3624 308.775 66.6597H319.261Z" fill="#5F6368"/>
<path d="M335.539 78.4354C334.141 78.4354 332.943 78.136 331.844 77.5373C330.746 76.9385 329.947 76.24 329.347 75.3419H329.248V77.8366H325.952V51.3923H329.347V59.7747L329.248 62.2694H329.347C329.847 61.3713 330.746 60.6728 331.844 60.074C332.943 59.4753 334.141 59.1759 335.539 59.1759C337.836 59.1759 339.933 60.074 341.631 61.97C343.328 63.7663 344.127 66.0614 344.127 68.8555C344.127 71.6497 343.228 73.845 341.631 75.7411C339.933 77.5373 337.936 78.4354 335.539 78.4354ZM335.04 75.3419C336.637 75.3419 337.936 74.7432 339.134 73.5457C340.332 72.3482 340.832 70.7516 340.832 68.7558C340.832 66.76 340.232 65.1633 339.134 63.9658C338.036 62.7684 336.637 62.1696 335.04 62.1696C333.442 62.1696 332.044 62.7684 330.945 63.9658C329.847 65.1633 329.248 66.76 329.248 68.7558C329.248 70.7516 329.847 72.3482 330.945 73.5457C332.044 74.7432 333.442 75.3419 335.04 75.3419Z" fill="#5F6368"/>
<path d="M362.302 78.4349C360.404 78.4349 358.507 77.8361 356.709 76.5389C354.912 75.2416 353.713 73.5452 353.114 71.25L356.21 69.9527C356.609 71.4496 357.308 72.6471 358.507 73.645C359.705 74.6429 360.904 75.1418 362.401 75.1418C363.899 75.1418 365.098 74.7426 366.196 73.9443C367.195 73.146 367.794 72.1481 367.794 70.7511C367.794 69.2542 367.295 68.1565 366.196 67.3582C365.198 66.5599 363.5 65.7616 361.203 65.1628C358.906 64.4643 357.109 63.4664 355.91 62.2689C354.712 61.0714 354.113 59.5746 354.113 57.7784C354.113 55.8824 354.912 54.2857 356.41 52.7889C357.908 51.3918 359.905 50.6933 362.302 50.6933C364.499 50.6933 366.396 51.292 367.794 52.3897C369.192 53.4874 370.091 54.6849 370.49 56.0819L367.395 57.3792C367.195 56.5809 366.596 55.7826 365.797 55.084C364.998 54.3855 363.8 53.9863 362.401 53.9863C361.103 53.9863 360.005 54.3855 359.006 55.084C358.008 55.7826 357.508 56.7805 357.508 57.8782C357.508 58.8761 357.908 59.6744 358.806 60.3729C359.705 61.0714 360.904 61.6702 362.601 62.1691C363.899 62.5683 364.998 62.9674 365.897 63.3666C366.795 63.7658 367.694 64.2647 368.593 64.9632C369.492 65.6618 370.191 66.4601 370.59 67.3582C371.09 68.3561 371.289 69.4538 371.289 70.7511C371.289 72.0483 370.99 73.146 370.49 74.1439C369.991 75.1418 369.292 75.9401 368.393 76.5389C367.494 77.1376 366.596 77.5368 365.597 77.8361C364.399 78.2353 363.4 78.4349 362.302 78.4349Z" fill="#5F6368"/>
<path d="M381.575 78.1355C379.677 78.1355 378.179 77.6366 377.181 76.6387C376.182 75.6408 375.683 74.2437 375.683 72.3477V62.8676H372.487V59.7742H375.683V54.2857H379.078V59.7742H383.472V62.8676H379.078V72.0483C379.078 74.0441 379.877 75.042 381.475 75.042C382.074 75.042 382.573 74.9422 382.973 74.7426L384.171 77.6366C383.572 77.9359 382.673 78.1355 381.575 78.1355Z" fill="#5F6368"/>
<path d="M388.266 61.8697C390.064 60.0735 392.261 59.0756 394.957 59.0756C397.653 59.0756 399.95 59.9737 401.648 61.8697C403.346 63.7658 404.244 65.9611 404.244 68.7553C404.244 71.5494 403.346 73.8445 401.648 75.6408C399.85 77.437 397.653 78.4349 394.957 78.4349C392.261 78.4349 389.964 77.5368 388.266 75.6408C386.469 73.8445 385.67 71.5494 385.67 68.7553C385.67 66.0609 386.569 63.7658 388.266 61.8697ZM390.863 73.5452C392.061 74.7426 393.459 75.3414 395.057 75.3414C396.655 75.3414 398.053 74.7426 399.251 73.5452C400.45 72.3477 401.049 70.7511 401.049 68.7553C401.049 66.7595 400.45 65.1628 399.251 63.9653C398.053 62.7679 396.655 62.1691 395.057 62.1691C393.459 62.1691 392.061 62.7679 390.863 63.9653C389.664 65.1628 389.065 66.7595 389.065 68.7553C389.065 70.7511 389.664 72.3477 390.863 73.5452Z" fill="#5F6368"/>
<path d="M410.435 77.8361H407.04V59.7742H410.335V62.7679H410.435C410.835 61.77 411.434 60.9716 412.532 60.3729C413.631 59.7742 414.63 59.375 415.628 59.375C416.627 59.375 417.526 59.5746 418.125 59.7742L416.827 62.9674C416.427 62.7679 415.828 62.6681 415.029 62.6681C413.831 62.6681 412.732 63.167 411.734 64.1649C410.735 65.1628 410.335 66.3603 410.335 67.9569L410.435 77.8361Z" fill="#5F6368"/>
<path d="M427.512 78.4349C424.816 78.4349 422.519 77.5368 420.821 75.7405C419.123 73.9443 418.225 71.6492 418.225 68.855C418.225 66.2605 419.024 63.9653 420.721 62.0693C422.419 60.1733 424.516 59.2752 427.112 59.2752C429.809 59.2752 431.906 60.1733 433.603 61.8697C435.301 63.5662 436 65.9611 436 68.855V69.4538H421.72C421.82 71.25 422.419 72.7468 423.517 73.7447C424.616 74.8424 425.914 75.3414 427.412 75.3414C429.809 75.3414 431.506 74.3435 432.405 72.2479L435.401 73.5452C434.802 74.9422 433.803 76.1397 432.505 77.0378C431.107 77.9359 429.509 78.4349 427.512 78.4349ZM432.405 66.6597C432.305 65.6618 431.906 64.6639 431.007 63.666C430.108 62.7679 428.81 62.2689 427.112 62.2689C425.814 62.2689 424.716 62.6681 423.817 63.4664C422.918 64.2647 422.219 65.3624 421.92 66.6597H432.405Z" fill="#5F6368"/>
<path d="M138.21 36.8231L145.8 16.8651H148.696L156.285 36.8231H153.389L151.492 31.4345H143.103L141.106 36.8231H138.21ZM143.902 28.9397H150.593L147.297 19.9586H147.198L143.902 28.9397Z" fill="#5F6368"/>
<path d="M160.879 36.8225L155.387 23.1513H158.183L162.177 33.729H162.277L166.372 23.1513H169.068L163.476 36.8225H160.879V36.8225Z" fill="#5F6368"/>
<path d="M174.76 37.2216C173.262 37.2216 172.064 36.8225 171.165 35.9244C170.266 35.0263 169.667 33.9286 169.667 32.6313C169.667 31.1345 170.266 29.937 171.365 29.1387C172.563 28.2405 173.961 27.8414 175.659 27.8414C177.157 27.8414 178.455 28.1408 179.354 28.6397V28.2405C179.354 27.2426 178.954 26.4443 178.355 25.8456C177.656 25.2469 176.857 24.9475 175.759 24.9475C174.96 24.9475 174.361 25.1471 173.761 25.4464C173.162 25.8456 172.763 26.2447 172.563 26.9433L170.166 25.9454C170.466 25.1471 171.065 24.3487 172.064 23.6502C172.962 22.9517 174.261 22.6523 175.759 22.6523C177.556 22.6523 178.954 23.1513 180.153 24.1492C181.351 25.1471 181.85 26.6439 181.85 28.4401V36.7227H179.354V34.9265H179.254C178.255 36.4233 176.757 37.2216 174.76 37.2216ZM175.159 34.9265C176.258 34.9265 177.157 34.5273 178.055 33.729C178.954 32.9307 179.354 32.0326 179.354 30.9349C178.655 30.3361 177.556 30.0368 176.058 30.0368C174.86 30.0368 173.861 30.3361 173.262 30.8351C172.663 31.334 172.363 32.0326 172.363 32.7311C172.363 33.4296 172.663 33.9286 173.262 34.3277C173.761 34.7269 174.361 34.9265 175.159 34.9265Z" fill="#5F6368"/>
<path d="M187.542 19.6586C187.143 20.0578 186.743 20.1576 186.244 20.1576C185.745 20.1576 185.345 19.958 184.946 19.6586C184.546 19.2595 184.446 18.8603 184.446 18.3613C184.446 17.8624 184.646 17.4632 184.946 17.0641C185.345 16.6649 185.745 16.5651 186.244 16.5651C186.743 16.5651 187.143 16.7647 187.542 17.0641C187.941 17.4632 188.041 17.8624 188.041 18.3613C188.041 18.8603 187.842 19.3592 187.542 19.6586ZM187.542 36.8225H184.946V23.0515H187.542V36.8225Z" fill="#5F6368"/>
<path d="M193.434 36.8227H190.838V16.8647H193.434V36.8227Z" fill="#5F6368"/>
<path d="M200.823 37.2216C199.326 37.2216 198.127 36.8225 197.228 35.9244C196.33 35.0263 195.73 33.9286 195.73 32.6313C195.73 31.1345 196.33 29.937 197.428 29.1387C198.626 28.2405 200.025 27.8414 201.722 27.8414C203.22 27.8414 204.518 28.1408 205.417 28.6397V28.2405C205.417 27.2426 205.018 26.4443 204.419 25.8456C203.719 25.2469 202.921 24.9475 201.822 24.9475C201.023 24.9475 200.424 25.1471 199.825 25.4464C199.226 25.8456 198.826 26.2447 198.626 26.9433L196.23 25.9454C196.529 25.1471 197.129 24.3487 198.127 23.6502C199.026 22.9517 200.324 22.6523 201.822 22.6523C203.62 22.6523 205.018 23.1513 206.216 24.1492C207.414 25.1471 207.914 26.6439 207.914 28.4401V36.7227H205.417V34.9265H205.317C204.219 36.4233 202.721 37.2216 200.823 37.2216ZM201.223 34.9265C202.321 34.9265 203.22 34.5273 204.119 33.729C205.018 32.9307 205.417 32.0326 205.417 30.9349C204.718 30.3361 203.62 30.0368 202.122 30.0368C200.923 30.0368 199.925 30.3361 199.326 30.8351C198.726 31.334 198.427 32.0326 198.427 32.7311C198.427 33.4296 198.726 33.9286 199.326 34.3277C199.825 34.7269 200.424 34.9265 201.223 34.9265Z" fill="#5F6368"/>
<path d="M218 37.2218C216.901 37.2218 216.003 37.0222 215.204 36.5232C214.405 36.0243 213.806 35.5254 213.306 34.8268H213.207V36.7228H210.71V16.7648H213.306V23.0516L213.207 24.9476H213.306C213.706 24.2491 214.305 23.7501 215.204 23.2512C216.103 22.7522 217.001 22.5527 218 22.5527C219.797 22.5527 221.295 23.2512 222.594 24.6483C223.892 26.0453 224.491 27.7417 224.491 29.8373C224.491 31.9329 223.892 33.6293 222.594 35.0264C221.295 36.5232 219.797 37.2218 218 37.2218ZM217.6 34.9266C218.799 34.9266 219.797 34.4277 220.696 33.5296C221.595 32.6314 221.994 31.434 221.994 29.9371C221.994 28.4403 221.595 27.2428 220.696 26.3447C219.797 25.4466 218.799 24.9476 217.6 24.9476C216.402 24.9476 215.404 25.4466 214.505 26.2449C213.606 27.143 213.207 28.3405 213.207 29.8373C213.207 31.3342 213.606 32.5317 214.505 33.4298C215.304 34.4277 216.402 34.9266 217.6 34.9266Z" fill="#5F6368"/>
<path d="M229.285 36.8227H226.688V16.8647H229.285V36.8227Z" fill="#5F6368"/>
<path d="M238.472 37.2216C236.375 37.2216 234.677 36.5231 233.379 35.1261C232.081 33.729 231.481 32.0326 231.481 29.937C231.481 27.9412 232.081 26.2447 233.379 24.8477C234.677 23.4506 236.275 22.6523 238.172 22.6523C240.169 22.6523 241.867 23.3508 243.065 24.6481C244.264 25.9454 244.863 27.7416 244.863 29.937V30.4359H234.078C234.178 31.833 234.577 32.9307 235.476 33.729C236.375 34.5273 237.273 34.9265 238.472 34.9265C240.369 34.9265 241.568 34.1282 242.267 32.6313L244.563 33.6292C244.164 34.7269 243.365 35.625 242.366 36.3235C241.268 36.9223 239.97 37.2216 238.472 37.2216ZM242.167 28.3403C242.067 27.542 241.767 26.8435 241.068 26.145C240.369 25.4464 239.47 25.0473 238.172 25.0473C237.273 25.0473 236.375 25.3466 235.676 25.9454C234.977 26.5441 234.477 27.3424 234.278 28.3403H242.167Z" fill="#5F6368"/>
<path d="M256.247 19.6586C255.848 20.0578 255.448 20.1576 254.949 20.1576C254.45 20.1576 254.05 19.958 253.651 19.6586C253.251 19.3592 253.151 18.8603 253.151 18.3613C253.151 17.8624 253.351 17.4632 253.651 17.0641C254.05 16.6649 254.45 16.5651 254.949 16.5651C255.448 16.5651 255.848 16.7647 256.247 17.0641C256.647 17.4632 256.746 17.8624 256.746 18.3613C256.746 18.8603 256.547 19.3592 256.247 19.6586ZM256.247 36.8225H253.651V23.0515H256.247V36.8225Z" fill="#5F6368"/>
<path d="M262.04 23.0515V24.9475H262.139C262.539 24.3487 263.138 23.75 263.937 23.251C264.736 22.7521 265.635 22.5525 266.533 22.5525C268.231 22.5525 269.529 23.0515 270.428 24.1492C271.327 25.1471 271.726 26.6439 271.726 28.3403V36.7227H269.13V28.7395C269.13 26.2447 268.031 24.9475 265.734 24.9475C264.636 24.9475 263.837 25.3466 263.138 26.2447C262.439 27.1429 262.139 28.041 262.139 29.2384V36.8225H259.543V23.0515H262.04Z" fill="#5F6368"/>
<path d="M286.805 37.0221C285.407 37.0221 284.309 36.6229 283.51 35.8246C282.711 35.0263 282.411 34.0284 282.411 32.6313V25.4464H280.015V23.0515H282.411V18.8603H285.008V23.0515H288.403V25.4464H285.008V32.4317C285.008 33.9286 285.607 34.6271 286.905 34.6271C287.404 34.6271 287.804 34.5273 288.104 34.4275L289.002 36.6229C288.303 36.9223 287.604 37.0221 286.805 37.0221Z" fill="#5F6368"/>
<path d="M293.496 16.7648V23.0516L293.396 24.9476H293.496C293.895 24.3489 294.494 23.7501 295.293 23.2512C296.092 22.7522 296.991 22.5527 297.89 22.5527C299.587 22.5527 300.886 23.0516 301.784 24.1493C302.683 25.1472 303.083 26.644 303.083 28.3405V36.7228H300.486V28.7396C300.486 26.2449 299.388 24.9476 297.091 24.9476C295.992 24.9476 295.194 25.3468 294.494 26.2449C293.795 27.143 293.496 28.0411 293.496 29.2386V36.8226H290.899V16.8646H293.496V16.7648Z" fill="#5F6368"/>
<path d="M312.271 37.2216C310.174 37.2216 308.476 36.5231 307.278 35.1261C305.979 33.729 305.28 32.0326 305.28 29.937C305.28 27.9412 305.879 26.2447 307.178 24.8477C308.476 23.4506 310.074 22.6523 311.971 22.6523C313.968 22.6523 315.666 23.3508 316.864 24.6481C318.063 25.9454 318.662 27.7416 318.662 29.937V30.4359H307.877C307.977 31.833 308.376 32.9307 309.275 33.729C310.174 34.5273 311.072 34.9265 312.271 34.9265C314.168 34.9265 315.366 34.1282 316.065 32.6313L318.362 33.6292C317.863 34.7269 317.164 35.625 316.165 36.3235C315.067 36.9223 313.769 37.2216 312.271 37.2216ZM315.966 28.3403C315.866 27.542 315.566 26.8435 314.867 26.145C314.168 25.4464 313.269 25.0473 311.871 25.0473C310.873 25.0473 310.074 25.3466 309.375 25.9454C308.676 26.5441 308.176 27.3424 307.977 28.3403H315.966Z" fill="#5F6368"/>
</g>
<defs>
<clipPath id="clip0">
<rect width="436" height="95" fill="white"/>
</clipPath>
<clipPath id="clip1">
<path d="M0 0H110V87C110 91.4183 106.418 95 102 95H8C3.58172 95 0 91.4183 0 87V0Z" fill="white"/>
</clipPath>
<clipPath id="clip2">
<rect x="7.5" y="40" width="95.2" height="95.3" rx="47.6" fill="white"/>
</clipPath>
</defs>
</svg>
