<svg width="262" height="98" viewBox="0 0 262 98" fill="none" xmlns="http://www.w3.org/2000/svg">
<path d="M254.976 43.3538H249.393L243.444 53.7444L237.525 43.3538H231.725L240.477 56.7604L230.596 71.7302H236.181L243.216 59.7225L250.143 71.7302H256.102L246.275 56.5448L254.976 43.3538ZM135.686 71.7302H140.627V43.3538H135.686V71.7302ZM151.813 49.3397L151.329 43.3538H147.103V71.7276H152.056V57.0967C152.056 52.6843 155.279 47.7816 158.822 47.7816C159.657 47.7721 160.488 47.881 161.292 48.105L162.206 43.2589C161.291 43.0423 160.354 42.9338 159.413 42.9354C155.976 42.9354 153.349 45.0839 151.841 49.3397H151.813ZM111.787 71.7276H116.889V55.4128H128.971V51.3752H116.889V38.7207H130.85L131.442 34.6292H111.787V71.7276ZM138.108 32.8093C136.06 32.8093 134.67 34.2621 134.67 36.2026C134.67 38.0867 136.065 39.5395 138.108 39.5395C140.202 39.5395 141.599 38.0867 141.599 36.2026C141.599 34.2621 140.202 32.8093 138.108 32.8093ZM218.15 42.9329C210.094 42.9329 205.476 48.793 205.476 57.5638C205.476 66.5477 210.04 72.3719 218.096 72.3719C226.098 72.3719 230.716 66.2885 230.716 57.5099C230.716 48.5132 226.205 42.9303 218.15 42.9303V42.9329ZM218.101 68.3907C213.375 68.3907 210.798 64.9435 210.798 57.569C210.798 50.138 213.429 46.9166 218.155 46.9166C222.826 46.9166 225.404 50.138 225.404 57.5151C225.399 64.9409 222.821 68.3907 218.101 68.3907ZM198.09 41.3876C198.09 38.6411 199.166 36.6236 202.278 36.6236C203.982 36.6312 205.666 36.9985 207.219 37.7017L208.775 34.1081C206.52 33.1378 204.695 32.6553 202.01 32.6553C196.263 32.6553 193.15 36.2719 193.15 41.0103V43.3692H188.097V47.1784H193.145V71.7302H198.085V47.1759H204.421L204.959 43.3538H198.085L198.09 41.3876ZM174.54 42.9277C167.236 42.9277 162.78 49.0034 162.78 57.8333C162.78 66.8173 167.387 72.3719 175.292 72.3719C179.211 72.3719 182.381 71.0269 185.173 68.8194L183.031 65.8573C180.561 67.5796 178.467 68.3343 175.674 68.3343C171.593 68.3343 168.532 65.8034 168.048 59.2348H186.09C186.144 58.588 186.197 57.6742 186.197 56.7039C186.179 48.0383 182.153 42.9303 174.527 42.9303L174.54 42.9277ZM181.305 55.572H168.025C168.401 49.273 170.871 46.8576 174.629 46.8576C179.086 46.8576 181.285 49.7016 181.285 55.2485L181.305 55.572ZM260.687 44.994C260.687 44.5166 260.359 44.2753 259.678 44.2753H259.059V46.6856H259.43V45.7025H259.747L260.321 46.6856H260.764L260.111 45.6409C260.265 45.6183 260.406 45.5413 260.509 45.4237C260.612 45.306 260.67 45.1555 260.672 44.9992L260.687 44.994ZM259.44 45.3919V44.5859H259.732C260.103 44.5859 260.305 44.6835 260.305 44.994C260.305 45.3046 260.103 45.3919 259.794 45.3919H259.44ZM259.804 43.3795C259.526 43.3802 259.251 43.4358 258.994 43.5431C258.737 43.6504 258.504 43.8073 258.308 44.0049C258.112 44.2025 257.957 44.4369 257.851 44.6947C257.745 44.9525 257.691 45.2286 257.692 45.5074V45.5254C257.688 45.7988 257.738 46.0702 257.839 46.3242C257.94 46.5782 258.09 46.8098 258.28 47.0057C258.47 47.2016 258.697 47.3581 258.947 47.4661C259.198 47.5741 259.467 47.6316 259.74 47.6353H259.804C260.366 47.6551 260.914 47.4499 261.325 47.0651C261.737 46.6802 261.979 46.1471 261.999 45.5831C262.019 45.0191 261.814 44.4704 261.43 44.0576C261.046 43.6448 260.515 43.4018 259.952 43.3821H259.804V43.3795ZM259.804 47.3145C259.575 47.3172 259.348 47.2746 259.136 47.1892C258.924 47.1038 258.73 46.9772 258.567 46.8167C258.403 46.6562 258.273 46.465 258.184 46.254C258.094 46.043 258.047 45.8163 258.045 45.587V45.5177C258.039 45.2847 258.079 45.0529 258.163 44.8355C258.247 44.6181 258.372 44.4193 258.532 44.2506C258.693 44.0818 258.884 43.9463 259.097 43.8519C259.309 43.7575 259.538 43.706 259.77 43.7004H259.804C260.033 43.6966 260.261 43.7383 260.475 43.8229C260.689 43.9076 260.883 44.0336 261.048 44.1938C261.213 44.354 261.345 44.5452 261.436 44.7565C261.528 44.9678 261.577 45.195 261.58 45.4253V45.4971C261.587 45.7298 261.548 45.9614 261.466 46.1789C261.383 46.3964 261.259 46.5955 261.099 46.7648C260.94 46.934 260.749 47.0701 260.537 47.1653C260.326 47.2605 260.097 47.313 259.865 47.3196H259.786L259.804 47.3145Z" fill="white" fill-opacity="0.9"/>
<path d="M76.5069 9.1174C74.1288 11.8947 73.0203 18.145 75.4317 24.4799C77.8431 30.8149 81.5396 29.439 83.8435 35.8998C86.8846 44.4242 85.469 55.8774 85.469 55.8774C85.469 55.8774 89.1245 66.4938 91.6741 55.2177C97.3135 34.0337 76.5069 14.3358 76.5069 9.1174Z" fill="url(#paint0_radial)"/>
<path d="M47.483 97.0649C71.8402 97.0649 91.5716 77.1719 91.5716 52.6432C91.5716 28.1146 71.8402 8.2139 47.5061 8.2139C23.172 8.2139 3.44051 28.1171 3.44051 52.6458C3.39443 77.1976 23.1489 97.0649 47.483 97.0649Z" fill="url(#paint1_radial)"/>
<path d="M80.5174 80.0365C79.5646 80.7117 78.5645 81.3174 77.525 81.8487C78.902 79.8269 80.1717 77.7337 81.3289 75.5779C82.2467 74.5972 83.0832 73.543 83.8299 72.4258C84.1704 71.8868 84.5569 71.222 84.9639 70.4519C87.4393 65.9805 90.1681 58.7446 90.2449 51.311V50.7437C90.2591 48.8728 90.0694 47.0059 89.6792 45.1763C89.6997 45.32 89.7176 45.4612 89.7355 45.6024C89.7125 45.492 89.6946 45.3816 89.6715 45.2713C89.7074 45.474 89.7381 45.6691 89.7688 45.8668C90.2808 50.1713 89.9147 54.3681 88.1126 57.4637L88.0255 57.5946C88.9599 52.8896 89.2722 47.6969 88.2329 42.4965C88.2329 42.4965 87.8182 39.9682 84.7182 32.2933C82.9263 27.8758 79.77 24.254 76.972 21.6153C74.5197 18.5736 72.2926 16.533 71.0638 15.2367C68.504 12.5287 67.4237 10.4983 66.9834 9.17386C66.5994 8.98135 61.705 4.21474 61.3159 4.04019C59.1784 7.36168 52.4613 17.7522 55.656 27.46C57.1049 31.8595 60.7757 36.4259 64.6155 38.9851C64.7845 39.1776 66.8964 41.48 67.9024 46.6702C68.9417 52.0323 68.3939 56.2162 66.259 62.4049C63.7477 67.8337 57.2994 73.1984 51.2889 73.7477C38.4102 74.9208 33.6949 67.2639 33.6949 67.2639C38.3027 69.1094 43.3866 68.7219 46.4789 66.8096C49.5712 64.8973 51.4834 63.4419 53.0142 64.0066C54.545 64.5713 55.7251 62.9362 54.6474 61.2421C53.8143 59.956 52.6225 58.9439 51.2201 58.3319C49.8178 57.7199 48.2669 57.5349 46.7605 57.8C43.6374 58.3133 40.7781 60.7878 36.6874 58.3878C36.422 58.2313 36.1656 58.0599 35.9194 57.8744C35.6506 57.6973 36.7949 58.1439 36.5287 57.9437C35.6331 57.4384 34.7773 56.8652 33.9688 56.2291C33.9074 56.1726 34.5857 56.4473 34.5269 56.3908C30.7024 53.2336 31.1786 51.098 31.2989 49.7606C31.3961 48.6903 32.0899 47.3196 33.2597 46.7626C33.8255 47.0732 34.1762 47.3093 34.1762 47.3093C34.1762 47.3093 33.9355 46.8165 33.805 46.5547C33.8511 46.5341 33.8946 46.5393 33.9406 46.5213C34.404 46.7446 35.4279 47.3273 35.9681 47.6841C36.3426 47.9244 36.6592 48.2453 36.8947 48.6235C36.8947 48.6235 37.079 48.5209 36.9434 48.0871C36.7613 47.5635 36.4269 47.1066 35.9834 46.7754H36.0269C36.4428 47.0139 36.8369 47.2888 37.2045 47.5968C37.4016 46.8807 37.7523 46.1337 37.6755 44.799C37.6269 43.8595 37.6499 43.6156 37.4861 43.2589C37.3376 42.9483 37.568 42.8251 37.8265 43.1485C37.7829 42.895 37.709 42.6476 37.6064 42.4118V42.3887C37.9264 41.2696 44.3849 38.3588 44.8559 38.0251C45.628 37.477 46.2754 36.771 46.7553 35.9536C47.1137 35.3787 47.3851 34.5753 47.4516 33.3534C47.4875 32.473 47.0779 31.8852 40.54 31.1999C38.7481 31.0228 37.7062 29.7265 37.1098 28.5278C37.0023 28.2711 36.8896 28.035 36.7795 27.8014C36.6726 27.5287 36.587 27.248 36.5236 26.962C37.5365 23.913 39.4574 21.2487 42.0273 19.3283C42.1706 19.1974 41.4539 19.3616 41.5972 19.2307C42.0749 18.974 42.5653 18.7418 43.0666 18.5351C43.3226 18.417 41.9863 17.8472 40.8088 17.9858C40.0818 18.0322 39.3706 18.2196 38.7148 18.5377C38.9708 18.281 39.8258 17.9242 39.6261 17.9268C38.3462 18.1244 36.7283 18.8791 35.3537 19.7236C35.3512 19.5749 35.379 19.4272 35.4356 19.2898C34.7956 19.5618 33.2239 20.663 32.7682 21.5999C32.7883 21.4218 32.7969 21.2426 32.7938 21.0634C32.3075 21.4731 31.8687 21.9363 31.4857 22.4444L31.4627 22.4675C27.7534 20.9685 24.4871 20.8709 21.7352 21.5434C21.1311 20.9351 20.8367 21.3792 19.4595 18.3503C19.3648 18.168 19.5312 18.53 19.4595 18.3503C19.2342 17.7625 19.5977 19.1332 19.4595 18.3503C17.1223 20.1779 14.0838 22.2519 12.6195 23.715C12.6016 23.774 14.3244 23.2273 12.6195 23.715C12.0231 23.887 12.064 24.2283 11.9719 27.4497C11.9488 27.7064 11.9719 27.9631 11.9488 28.1838C11.0835 29.241 10.3255 30.3821 9.6859 31.59C8.17814 34.1979 6.51423 38.2638 4.90407 44.6809C5.61413 42.9377 6.4705 41.2581 7.46394 39.6602C6.12513 43.074 4.82984 48.431 4.57129 56.686C4.89467 54.9825 5.30998 53.2979 5.81538 51.6396C5.50046 58.4855 6.67805 65.318 9.26609 71.6609C10.6021 75.0039 12.3019 78.189 14.3346 81.1582C22.5297 89.8188 33.8202 94.8606 45.7224 95.1745C57.6246 95.4883 69.1637 91.0485 77.8014 82.8318C78.7435 81.9334 79.6471 80.9922 80.5123 80.0082L80.5174 80.0365Z" fill="url(#paint2_linear)"/>
<path d="M70.6263 86.3175C86.8021 84.4386 93.9647 67.7234 84.7671 67.3948C76.4603 67.1381 62.9723 87.2031 70.6263 86.3175Z" fill="url(#paint3_radial)"/>
<path d="M85.9321 63.9809C97.0624 57.4868 94.1595 43.4462 94.1595 43.4462C94.1595 43.4462 89.8641 48.449 86.9458 56.4241C84.066 64.3326 79.2432 67.903 85.9321 63.9809Z" fill="url(#paint4_radial)"/>
<path d="M50.6014 94.6186C66.1167 99.5829 79.4536 87.3262 71.2339 83.2321C63.7591 79.541 43.2366 92.27 50.6014 94.6186Z" fill="url(#paint5_radial)"/>
<path d="M87.0893 69.9368C87.4681 69.4029 87.9775 67.6933 88.4281 66.9284C91.1671 62.4929 91.1876 58.9713 91.1876 58.8788C92.8413 50.5905 92.6928 47.2074 91.674 40.9469C90.8548 35.9082 87.271 28.6877 84.1684 25.2122C80.9712 21.6187 83.2239 22.7969 80.1264 20.1813C77.413 17.1652 74.7814 14.1774 73.3479 12.9761C62.9907 4.29255 63.2287 2.44956 63.4233 2.13384L63.2774 2.29812C63.1545 1.80785 63.0675 1.39459 63.0675 1.39459C63.0675 1.39459 57.405 7.07243 56.2147 16.5389C55.4467 22.7147 57.7506 29.1549 61.0784 33.2695C62.817 35.402 64.7818 37.3385 66.938 39.0449V39.0449C69.462 42.677 70.8495 47.1612 70.8495 51.9818C70.8433 55.2678 70.0996 58.5104 68.6735 61.469C67.2474 64.4276 65.1755 67.0263 62.6113 69.0726C60.0471 71.1189 57.0564 72.5602 53.861 73.2897C50.6656 74.0191 47.3475 74.0181 44.1526 73.2865C38.4671 72.2007 35.1931 69.3259 33.5471 67.3828C33.0321 66.7888 32.5839 66.1398 32.2108 65.4474C37.3049 67.2775 42.9367 66.8951 46.3618 64.9982C49.7869 63.1013 51.9013 61.6613 53.5959 62.2183C55.2906 62.7753 56.5961 61.1556 55.4032 59.4769C54.2103 57.7982 51.1922 55.3957 46.6741 56.063C43.2182 56.5764 40.0542 59.0277 35.5258 56.6457C35.2335 56.4902 34.9498 56.3188 34.676 56.1323C34.3765 55.9552 35.6462 56.389 35.3492 56.1991C34.3624 55.7056 33.4135 55.1394 32.5103 54.505C32.4438 54.4485 33.1938 54.7206 33.1272 54.6641C28.8932 51.5326 29.4231 49.4175 29.5434 48.0904C29.6248 47.451 29.8667 46.8426 30.2463 46.3223C30.626 45.8021 31.131 45.3868 31.7142 45.1155C32.3388 45.4235 32.7381 45.6571 32.7381 45.6571C32.7381 45.6571 32.4822 45.1668 32.326 44.9076C32.3772 44.887 32.4258 44.8922 32.4745 44.8742C32.9865 45.0975 34.1205 45.675 34.7169 46.0267C35.1239 46.256 35.4739 46.5745 35.7409 46.9585C35.7409 46.9585 35.9457 46.8584 35.7946 46.4271C35.5844 45.8937 35.2141 45.4389 34.7348 45.1257H34.7835C35.2431 45.3613 35.6816 45.6361 36.0941 45.9471C36.3117 45.2387 36.7008 44.4969 36.6061 43.1724C36.5549 42.2406 36.5779 41.9993 36.3962 41.6323C36.2324 41.3243 36.4883 41.2036 36.7725 41.5245C36.7196 41.2704 36.6335 41.0244 36.5165 40.7929V40.7698C36.8851 39.661 44.0297 36.7733 44.5417 36.4498C45.3809 35.9234 46.0984 35.2233 46.6459 34.3964C47.0427 33.8265 47.3422 33.0283 47.4139 31.8295C47.4395 31.2828 47.2705 30.8516 45.366 30.4383C43.5124 30.0864 41.6409 29.8379 39.7599 29.6939C37.7836 29.5194 36.624 28.2334 35.9636 27.045C35.8433 26.7883 35.7204 26.5573 35.5975 26.3263C35.4808 26.0573 35.3866 25.7792 35.3159 25.4946C36.4983 22.3896 38.6288 19.7385 41.4033 17.9199C41.562 17.789 40.7685 17.9532 40.9272 17.8223C41.0859 17.6914 42.3248 17.232 42.5527 17.1344C42.8317 17.0163 41.3572 16.4542 40.0542 16.5902C39.26 16.6338 38.4798 16.8189 37.7504 17.137C38.0448 16.8803 38.9791 16.5286 38.759 16.5312C37.328 16.7289 35.5514 17.4758 34.0309 18.328C34.0278 18.1799 34.0594 18.0331 34.123 17.8993C33.414 18.156 31.6758 19.2623 31.1689 20.1838C31.1899 20.0067 31.1993 19.8283 31.1971 19.6499C30.6634 20.0487 30.1765 20.5068 29.7457 21.0155L29.7201 21.036C25.6243 19.5216 22.0046 19.4369 18.9686 20.1042C18.3005 19.501 17.2228 18.5872 15.7022 15.5841C15.5998 15.4018 15.5435 15.9588 15.4642 15.7791C14.8728 14.4033 14.5144 12.1496 14.5733 10.5967C14.5733 10.5967 13.3497 11.1563 12.336 13.4921C12.1466 13.8951 12.0314 14.1184 11.9059 14.3571C11.8496 14.4238 12.0314 13.5871 12.0032 13.6358C11.8266 13.9361 11.3709 14.352 11.1713 14.8936C11.033 15.294 10.841 15.5173 10.7182 16.0178L10.69 16.064C10.69 15.9177 10.7258 15.4583 10.69 15.5507C10.2168 16.5125 9.80972 17.5056 9.47151 18.5231C8.70889 20.9282 8.27824 23.4267 8.19158 25.9489C8.16854 26.1902 8.19158 26.4623 8.16598 26.6779C6.88604 28.1564 5.99521 29.409 5.66243 30.0559C3.99083 32.6432 2.15029 36.6732 0.368621 43.0492C1.16139 41.3069 2.10986 39.6402 3.20239 38.0695C1.72023 41.4552 0.286705 46.7711 0 54.9542C0.359865 53.2607 0.819745 51.5902 1.37721 49.9514C1.03171 56.7859 2.34217 63.6027 5.19653 69.8187C7.24442 74.3081 11.9418 83.4229 23.433 90.5433C23.433 90.5433 27.3419 93.4618 34.0616 95.6487C34.5582 95.8284 35.0599 96.0081 35.5745 96.1801C35.4132 96.1159 35.2571 96.0466 35.106 95.9747C39.5794 97.3174 44.224 97.9996 48.8935 98C66.3006 98.0154 71.4203 91.0079 71.4203 91.0079L71.3691 91.0464C71.6251 90.8154 71.8504 90.5741 72.0782 90.3226C69.334 92.9228 63.0675 93.0947 60.7252 92.9074C64.7211 91.7318 67.3501 90.7358 72.4622 88.7722C73.0578 88.5497 73.6696 88.2931 74.2976 88.0021L74.5024 87.9097L74.8736 87.7352C77.3644 86.5569 79.7069 85.086 81.8518 83.3536C86.9869 79.2467 88.103 75.2321 88.6892 72.5883C88.6073 72.845 88.3538 73.4328 88.1772 73.8153C86.8537 76.6516 83.9227 78.3919 80.7382 79.8858C82.2536 77.8919 83.6594 75.8165 84.9492 73.6689C85.9885 72.6422 86.3136 71.0251 87.0893 69.9368Z" fill="url(#paint6_radial)"/>
<path d="M80.8409 79.7721C83.0185 77.3984 84.8375 74.7175 86.2396 71.8149C89.9054 64.0887 95.5704 51.2417 91.1034 37.8249C87.5759 27.2213 82.7326 21.4202 76.5838 15.7501C66.6003 6.548 63.8126 2.44106 63.8126 0C63.8126 0 52.2932 12.8881 57.2824 26.3306C62.2716 39.7731 72.5239 39.2803 79.2973 53.308C87.2738 69.8179 72.849 87.8268 60.9251 92.8681C61.6547 92.7064 87.4402 86.854 88.7969 72.0767C88.7611 72.3385 88.18 76.4275 80.8409 79.7721Z" fill="url(#paint7_radial)"/>
<path d="M47.4348 31.8057C47.4732 30.9329 47.0226 30.3451 39.8192 29.6675C36.8548 29.3928 35.7234 26.6463 35.3752 25.4912C34.3206 28.2378 33.8854 31.1177 34.1209 34.6009C34.2796 36.8829 35.8104 39.3342 36.5425 40.7613C36.5425 40.7613 36.7038 40.5509 36.7806 40.4713C38.1578 39.0339 43.9252 36.8444 44.4602 36.5338C45.0541 36.1667 47.3349 34.5008 47.4348 31.8057Z" fill="url(#paint8_linear)"/>
<path d="M15.7221 15.5832C15.6197 15.401 15.5634 15.958 15.484 15.7783C14.8542 14.1268 14.56 12.3656 14.6188 10.5984C14.6188 10.5984 13.3952 11.158 12.384 13.4938C12.1946 13.9122 12.0743 14.1432 11.9539 14.3743C11.8976 14.441 12.0794 13.6042 12.0512 13.653C11.8746 13.9533 11.4189 14.3691 11.2218 14.8851C11.0309 15.2615 10.8733 15.654 10.7508 16.0581C10.7124 16.1993 10.7892 15.4292 10.7508 15.5216C8.39573 20.0855 7.93496 26.9851 8.19094 26.6951C13.2057 21.3278 18.9424 20.0547 18.9424 20.0547C18.3306 19.6029 17.002 18.299 15.6939 15.5832H15.7221Z" fill="url(#paint9_linear)"/>
<path d="M34.7481 71.7173C27.8236 68.7526 19.9495 64.5713 20.2464 55.0714C20.6509 42.5607 31.881 45.0325 31.881 45.0325C31.4561 45.1352 30.3246 45.9438 29.9227 46.8062C29.4978 47.8843 28.7247 50.3202 31.0696 52.8716C34.7532 56.8733 23.5026 62.3689 40.8687 72.7466C41.3065 72.9853 36.7985 72.6055 34.7455 71.7199L34.7481 71.7173Z" fill="url(#paint10_linear)"/>
<path d="M32.2881 65.4826C37.198 67.1972 42.9193 66.8969 46.3444 65C48.6482 63.7166 51.5793 61.6631 53.3891 62.1765C52.0638 61.6061 50.6489 61.2734 49.2089 61.1934C48.9423 61.1981 48.6756 61.1878 48.4102 61.1626C47.8876 61.16 47.3654 61.1883 46.8461 61.2473C45.9629 61.3294 44.9825 61.889 44.0917 61.7992C44.043 61.7992 44.9569 61.4244 44.8827 61.4398C44.4117 61.5373 43.8971 61.5604 43.3468 61.6272C43.0012 61.6657 42.7068 61.7093 42.3638 61.7221C32.1243 62.5923 23.4899 56.1624 23.4899 56.1624C22.7552 58.6471 26.7844 63.5626 32.283 65.4826H32.2881Z" fill="url(#paint11_linear)"/>
<path d="M80.8208 79.8286C91.1652 69.6434 96.4002 57.2635 94.1884 43.3795C94.5906 48.3122 93.7417 53.2668 91.7207 57.782C93.3309 50.6719 93.5126 41.8369 89.2402 32.6861C83.5291 20.4731 74.137 14.0457 70.5532 11.366C65.1211 7.30267 62.8736 3.1675 62.8275 2.31274C61.2045 5.64963 56.2947 17.072 62.3002 26.9107C67.9319 36.1282 76.7865 38.8645 82.9916 47.3222C94.4214 62.908 80.8208 79.8286 80.8208 79.8286Z" fill="url(#paint12_linear)"/>
<path d="M79.3378 53.3362C75.7233 45.8462 71.2102 42.5812 66.9404 39.039C67.437 39.7371 67.5598 39.9836 67.8337 40.4328C71.5916 44.4473 77.1312 54.2423 73.1096 66.5375C65.5324 89.68 35.2543 78.7813 32.0801 75.7216C33.36 89.1153 55.723 95.5247 70.2784 86.8386C78.5622 78.9763 85.2639 65.6108 79.3378 53.3362Z" fill="url(#paint13_linear)"/>
<defs>
<radialGradient id="paint0_radial" cx="0" cy="0" r="1" gradientUnits="userSpaceOnUse" gradientTransform="translate(98.2093 40.3777) rotate(2.26665) scale(34.0612 50.3419)">
<stop offset="0.1" stop-color="#FFEA00"/>
<stop offset="0.17" stop-color="#FFDE00"/>
<stop offset="0.28" stop-color="#FFBF00"/>
<stop offset="0.43" stop-color="#FF8E00"/>
<stop offset="0.77" stop-color="#FF272D"/>
<stop offset="0.87" stop-color="#E0255A"/>
<stop offset="0.95" stop-color="#CC2477"/>
<stop offset="1" stop-color="#C42482"/>
</radialGradient>
<radialGradient id="paint1_radial" cx="0" cy="0" r="1" gradientUnits="userSpaceOnUse" gradientTransform="translate(56.368 8.61535) scale(96.66 96.9231)">
<stop stop-color="#00CCDA"/>
<stop offset="0.22" stop-color="#0083FF"/>
<stop offset="0.26" stop-color="#007AF9"/>
<stop offset="0.33" stop-color="#005FE7"/>
<stop offset="0.44" stop-color="#2639AD"/>
<stop offset="0.52" stop-color="#401E84"/>
<stop offset="0.57" stop-color="#4A1475"/>
</radialGradient>
<linearGradient id="paint2_linear" x1="53.7003" y1="72.6209" x2="34.5908" y2="10.2835" gradientUnits="userSpaceOnUse">
<stop stop-color="#000F43" stop-opacity="0.4"/>
<stop offset="0.48" stop-color="#001962" stop-opacity="0.17"/>
<stop offset="1" stop-color="#002079" stop-opacity="0"/>
</linearGradient>
<radialGradient id="paint3_radial" cx="0" cy="0" r="1" gradientUnits="userSpaceOnUse" gradientTransform="translate(91.9235 67.3189) rotate(5.63277) scale(32.496 32.5827)">
<stop stop-color="#FFEA00"/>
<stop offset="0.5" stop-color="#FF272D"/>
<stop offset="1" stop-color="#C42482"/>
</radialGradient>
<radialGradient id="paint4_radial" cx="0" cy="0" r="1" gradientUnits="userSpaceOnUse" gradientTransform="translate(92.0507 35.9375) rotate(5.63277) scale(54.2656 54.4105)">
<stop stop-color="#FFE900"/>
<stop offset="0.16" stop-color="#FFAF0E"/>
<stop offset="0.32" stop-color="#FF7A1B"/>
<stop offset="0.47" stop-color="#FF4E26"/>
<stop offset="0.62" stop-color="#FF2C2E"/>
<stop offset="0.76" stop-color="#FF1434"/>
<stop offset="0.89" stop-color="#FF0538"/>
<stop offset="1" stop-color="#FF0039"/>
</radialGradient>
<radialGradient id="paint5_radial" cx="0" cy="0" r="1" gradientUnits="userSpaceOnUse" gradientTransform="translate(94.7632 86.886) rotate(5.63277) scale(49.7937 49.9266)">
<stop stop-color="#FF272D"/>
<stop offset="0.5" stop-color="#C42482"/>
<stop offset="0.99" stop-color="#620700"/>
</radialGradient>
<radialGradient id="paint6_radial" cx="0" cy="0" r="1" gradientUnits="userSpaceOnUse" gradientTransform="translate(71.0338 39.2451) scale(77.6869 77.8983)">
<stop offset="0.16" stop-color="#FFEA00"/>
<stop offset="0.23" stop-color="#FFDE00"/>
<stop offset="0.37" stop-color="#FFBF00"/>
<stop offset="0.54" stop-color="#FF8E00"/>
<stop offset="0.76" stop-color="#FF272D"/>
<stop offset="0.8" stop-color="#F92433"/>
<stop offset="0.84" stop-color="#E91C45"/>
<stop offset="0.89" stop-color="#CF0E62"/>
<stop offset="0.94" stop-color="#B5007F"/>
</radialGradient>
<radialGradient id="paint7_radial" cx="0" cy="0" r="1" gradientUnits="userSpaceOnUse" gradientTransform="translate(66.5799 3.11613) scale(88.5381 88.7791)">
<stop offset="0.28" stop-color="#FFEA00"/>
<stop offset="0.4" stop-color="#FFDD00"/>
<stop offset="0.63" stop-color="#FFBA00"/>
<stop offset="0.86" stop-color="#FF9100"/>
<stop offset="0.93" stop-color="#FF6711"/>
<stop offset="0.99" stop-color="#FF4A1D"/>
</radialGradient>
<linearGradient id="paint8_linear" x1="10.6115" y1="37.005" x2="48.7536" y2="31.1981" gradientUnits="userSpaceOnUse">
<stop stop-color="#C42482" stop-opacity="0.5"/>
<stop offset="0.47" stop-color="#FF272D" stop-opacity="0.5"/>
<stop offset="0.49" stop-color="#FF2C2C" stop-opacity="0.51"/>
<stop offset="0.68" stop-color="#FF7A1A" stop-opacity="0.72"/>
<stop offset="0.83" stop-color="#FFB20D" stop-opacity="0.87"/>
<stop offset="0.94" stop-color="#FFD605" stop-opacity="0.96"/>
<stop offset="1" stop-color="#FFE302"/>
</linearGradient>
<linearGradient id="paint9_linear" x1="14.6356" y1="27.2899" x2="10.6395" y2="12.9638" gradientUnits="userSpaceOnUse">
<stop stop-color="#891551" stop-opacity="0.6"/>
<stop offset="1" stop-color="#C42482" stop-opacity="0"/>
</linearGradient>
<linearGradient id="paint10_linear" x1="21.6932" y1="46.4198" x2="29.9163" y2="57.8743" gradientUnits="userSpaceOnUse">
<stop offset="0.01" stop-color="#891551" stop-opacity="0.5"/>
<stop offset="0.48" stop-color="#FF272D" stop-opacity="0.5"/>
<stop offset="1" stop-color="#FF272D" stop-opacity="0"/>
</linearGradient>
<linearGradient id="paint11_linear" x1="37.7055" y1="66.2064" x2="38.4597" y2="58.8357" gradientUnits="userSpaceOnUse">
<stop stop-color="#C42482"/>
<stop offset="0.08" stop-color="#C42482" stop-opacity="0.81"/>
<stop offset="0.21" stop-color="#C42482" stop-opacity="0.57"/>
<stop offset="0.33" stop-color="#C42482" stop-opacity="0.36"/>
<stop offset="0.45" stop-color="#C42482" stop-opacity="0.2"/>
<stop offset="0.56" stop-color="#C42482" stop-opacity="0.09"/>
<stop offset="0.67" stop-color="#C42482" stop-opacity="0.02"/>
<stop offset="0.77" stop-color="#C42482" stop-opacity="0"/>
</linearGradient>
<linearGradient id="paint12_linear" x1="61.6346" y1="3.59359" x2="92.1298" y2="71.6043" gradientUnits="userSpaceOnUse">
<stop stop-color="#FFF14F"/>
<stop offset="0.27" stop-color="#FFEE4C"/>
<stop offset="0.45" stop-color="#FFE643"/>
<stop offset="0.61" stop-color="#FFD834"/>
<stop offset="0.76" stop-color="#FFC41E"/>
<stop offset="0.89" stop-color="#FFAB02"/>
<stop offset="0.9" stop-color="#FFA900"/>
<stop offset="0.95" stop-color="#FFA000"/>
<stop offset="1" stop-color="#FF9100"/>
</linearGradient>
<linearGradient id="paint13_linear" x1="67.6264" y1="42.7455" x2="53.1763" y2="81.4353" gradientUnits="userSpaceOnUse">
<stop stop-color="#FF8E00"/>
<stop offset="0.04" stop-color="#FF8E00" stop-opacity="0.86"/>
<stop offset="0.08" stop-color="#FF8E00" stop-opacity="0.73"/>
<stop offset="0.13" stop-color="#FF8E00" stop-opacity="0.63"/>
<stop offset="0.18" stop-color="#FF8E00" stop-opacity="0.56"/>
<stop offset="0.23" stop-color="#FF8E00" stop-opacity="0.51"/>
<stop offset="0.28" stop-color="#FF8E00" stop-opacity="0.5"/>
<stop offset="0.39" stop-color="#FF8E00" stop-opacity="0.48"/>
<stop offset="0.52" stop-color="#FF8E00" stop-opacity="0.42"/>
<stop offset="0.68" stop-color="#FF8E00" stop-opacity="0.31"/>
<stop offset="0.84" stop-color="#FF8E00" stop-opacity="0.17"/>
<stop offset="1" stop-color="#FF8E00" stop-opacity="0"/>
</linearGradient>
</defs>
</svg>
