<svg width="262" height="180" viewBox="0 0 262 180" fill="none" xmlns="http://www.w3.org/2000/svg">
<rect width="262" height="180" rx="4" fill="white"/>
<path d="M0 4C0 1.79086 1.79086 0 4 0H258C260.209 0 262 1.79086 262 4V19H0V4Z" fill="#DADDE2"/>
<circle cx="11.5" cy="9.5" r="3.5" fill="#F15F52"/>
<circle cx="23.5" cy="9.5" r="3.5" fill="#F7B544"/>
<circle cx="35.5" cy="9.5" r="3.5" fill="#4DBC4B"/>
<line x1="10" y1="130.5" x2="252" y2="130.5" stroke="#E8E8E8"/>
<rect x="10" y="24" width="20" height="4" rx="1" fill="#E8E8E8"/>
<rect x="45" y="24" width="20" height="4" rx="1" fill="#E8E8E8"/>
<rect x="80" y="24" width="20" height="4" rx="1" fill="#E8E8E8"/>
<path d="M36.2671 24.0753C36.0884 24.2541 36.0884 24.5428 36.2671 24.7216L38.0455 26.4999L36.2671 28.2782C36.0884 28.457 36.0884 28.7457 36.2671 28.9245C36.4459 29.1032 36.7346 29.1032 36.9134 28.9245L39.0171 26.8207C39.1959 26.642 39.1959 26.3532 39.0171 26.1745L36.9134 24.0707C36.7392 23.8966 36.4459 23.8966 36.2671 24.0753Z" fill="#E8E8E8"/>
<path d="M71.2671 24.0753C71.0884 24.2541 71.0884 24.5428 71.2671 24.7216L73.0455 26.4999L71.2671 28.2782C71.0884 28.457 71.0884 28.7457 71.2671 28.9245C71.4459 29.1032 71.7346 29.1032 71.9134 28.9245L74.0171 26.8207C74.1959 26.642 74.1959 26.3532 74.0171 26.1745L71.9134 24.0707C71.7392 23.8966 71.4459 23.8966 71.2671 24.0753Z" fill="#E8E8E8"/>
<rect x="47" y="79" width="114" height="6" rx="1" fill="#E8E8E8"/>
<rect x="47" y="107" width="101" height="6" rx="1" fill="#E8E8E8"/>
<rect x="163" y="93" width="47" height="6" rx="1" fill="#E8E8E8"/>
<rect x="104" y="93" width="47" height="6" rx="1" fill="#E8E8E8"/>
<rect x="47" y="51" width="51" height="13" rx="1" fill="#E8E8E8"/>
<path d="M50.8889 92L51.762 94.7639H54.5874L52.3016 96.4721L53.1747 99.2359L50.8889 97.5278L48.6031 99.2359L49.4762 96.4721L47.1903 94.7639H50.0158L50.8889 92Z" fill="#E8E8E8"/>
<path d="M61.4448 92L62.3179 94.7639H65.1433L62.8575 96.4721L63.7306 99.2359L61.4448 97.5278L59.159 99.2359L60.0321 96.4721L57.7462 94.7639H60.5717L61.4448 92Z" fill="#E8E8E8"/>
<path d="M71.9995 92L72.8726 94.7639H75.698L73.4122 96.4721L74.2853 99.2359L71.9995 97.5278L69.7136 99.2359L70.5868 96.4721L68.3009 94.7639H71.1264L71.9995 92Z" fill="#E8E8E8"/>
<path d="M82.5554 92L83.4285 94.7639H86.2539L83.9681 96.4721L84.8412 99.2359L82.5554 97.5278L80.2696 99.2359L81.1427 96.4721L78.8568 94.7639H81.6823L82.5554 92Z" fill="#E8E8E8"/>
<path d="M93.111 92L93.9842 94.7639H96.8096L94.5238 96.4721L95.3969 99.2359L93.111 97.5278L90.8252 99.2359L91.6983 96.4721L89.4125 94.7639H92.2379L93.111 92Z" fill="#E8E8E8"/>
<rect x="11" y="149" width="48" height="13" rx="6.5" fill="#E8E8E8"/>
<rect x="78" y="153" width="29" height="6" rx="1" fill="#E8E8E8"/>
<rect x="126" y="153" width="29" height="6" rx="1" fill="#E8E8E8"/>
<rect x="174" y="153" width="29" height="6" rx="1" fill="#E8E8E8"/>
<rect x="222" y="153" width="29" height="6" rx="1" fill="#E8E8E8"/>
</svg>
