<svg width="304" height="77" viewBox="0 0 304 77" fill="none" xmlns="http://www.w3.org/2000/svg">
<path d="M132.401 4.84746V43.2881H125.912V13.1229H125.826L114.233 43.2881H109.908L98.0558 13.1229H97.9693V43.2881H92V4.84746H101.343L112.071 33.322H112.244L123.576 4.84746H132.401V4.84746ZM137.764 7.7839C137.764 6.7161 138.11 5.82627 138.889 5.11441C139.667 4.40254 140.533 4.04661 141.571 4.04661C142.695 4.04661 143.647 4.40254 144.339 5.11441C145.031 5.82627 145.464 6.7161 145.464 7.7839C145.464 8.8517 145.118 9.74153 144.339 10.4534C143.56 11.1653 142.695 11.5212 141.571 11.5212C140.446 11.5212 139.581 11.1653 138.889 10.4534C138.197 9.65254 137.764 8.76271 137.764 7.7839ZM144.772 15.7034V43.2881H138.456V15.7034H144.772ZM163.891 38.572C164.842 38.572 165.88 38.3941 167.005 37.8602C168.13 37.4153 169.168 36.7924 170.119 36.0805V42.1314C169.081 42.7542 167.957 43.1991 166.659 43.4661C165.361 43.733 163.977 43.911 162.42 43.911C158.44 43.911 155.239 42.6653 152.817 40.0847C150.308 37.5042 149.097 34.2119 149.097 30.2966C149.097 25.8475 150.395 22.1992 152.904 19.3517C155.412 16.5042 158.959 15.0805 163.631 15.0805C164.842 15.0805 166.053 15.2585 167.178 15.5254C168.389 15.7924 169.341 16.2373 170.033 16.5932V22.822C169.081 22.1102 168.043 21.4873 167.091 21.1314C166.053 20.7754 165.015 20.5085 163.977 20.5085C161.468 20.5085 159.478 21.3093 157.921 23C156.364 24.6907 155.672 26.9153 155.672 29.7627C155.672 32.5212 156.451 34.7458 157.921 36.2585C159.392 37.7712 161.382 38.572 163.891 38.572ZM188.027 15.2585C188.546 15.2585 188.979 15.2585 189.411 15.3475C189.844 15.4364 190.19 15.5254 190.449 15.6144V22.1992C190.103 21.9322 189.671 21.6653 188.979 21.4873C188.287 21.3093 187.595 21.1314 186.643 21.1314C185.086 21.1314 183.788 21.8432 182.75 23.178C181.712 24.5127 181.106 26.5593 181.106 29.4068V43.2881H174.791V15.7034H181.106V20.0636H181.193C181.798 18.5508 182.663 17.3941 183.788 16.5042C184.999 15.7034 186.383 15.2585 188.027 15.2585ZM190.795 29.9407C190.795 25.4025 192.093 21.7542 194.515 19.0847C197.024 16.4153 200.485 15.0805 204.897 15.0805C209.049 15.0805 212.337 16.3263 214.672 18.9068C217.008 21.4873 218.219 24.9576 218.219 29.3178C218.219 33.7669 216.922 37.3263 214.499 39.9958C211.991 42.6653 208.617 44 204.291 44C200.139 44 196.851 42.7542 194.429 40.2627C192.007 37.6822 190.795 34.2119 190.795 29.9407ZM197.37 29.6737C197.37 32.5212 197.976 34.7458 199.273 36.2585C200.571 37.7712 202.388 38.572 204.724 38.572C206.973 38.572 208.79 37.8602 210.001 36.2585C211.212 34.7458 211.818 32.5212 211.818 29.4958C211.818 26.5593 211.212 24.3347 210.001 22.733C208.79 21.2203 206.973 20.4195 204.81 20.4195C202.474 20.4195 200.744 21.2203 199.446 22.822C197.976 24.5127 197.37 26.7373 197.37 29.6737ZM227.649 23C227.649 23.8898 227.909 24.6907 228.514 25.2246C229.12 25.7585 230.331 26.3814 232.321 27.1822C234.829 28.25 236.646 29.4068 237.598 30.6525C238.636 31.9873 239.155 33.5 239.155 35.3686C239.155 37.9492 238.203 39.9958 236.214 41.5975C234.31 43.1992 231.629 43.911 228.341 43.911C227.216 43.911 226.005 43.733 224.621 43.4661C223.237 43.1991 222.112 42.8432 221.161 42.3983V35.9915C222.285 36.7924 223.583 37.5042 224.881 37.9491C226.178 38.3941 227.39 38.661 228.514 38.661C229.898 38.661 231.023 38.483 231.629 38.0381C232.321 37.5932 232.667 36.9703 232.667 35.9915C232.667 35.1017 232.321 34.3898 231.629 33.678C230.936 33.0551 229.552 32.3432 227.649 31.5424C225.313 30.5636 223.67 29.4068 222.718 28.161C221.766 26.9153 221.247 25.3136 221.247 23.3559C221.247 20.8644 222.199 18.8178 224.102 17.2161C226.005 15.6144 228.514 14.8136 231.542 14.8136C232.494 14.8136 233.532 14.9025 234.656 15.1695C235.781 15.4364 236.819 15.7034 237.598 15.9703V22.2881C236.733 21.7542 235.781 21.2203 234.656 20.7754C233.532 20.3305 232.407 20.1525 231.369 20.1525C230.158 20.1525 229.206 20.4195 228.601 20.8644C227.995 21.4873 227.649 22.1102 227.649 23ZM241.837 29.9407C241.837 25.4025 243.134 21.7542 245.557 19.0847C248.066 16.4153 251.526 15.0805 255.938 15.0805C260.091 15.0805 263.378 16.3263 265.714 18.9068C268.05 21.4873 269.261 24.9576 269.261 29.3178C269.261 33.7669 267.963 37.3263 265.541 39.9958C263.032 42.6653 259.658 44 255.333 44C251.18 44 247.893 42.7542 245.47 40.2627C243.134 37.6822 241.837 34.2119 241.837 29.9407ZM248.412 29.6737C248.412 32.5212 249.017 34.7458 250.315 36.2585C251.613 37.7712 253.429 38.572 255.765 38.572C258.014 38.572 259.831 37.8602 261.042 36.2585C262.253 34.7458 262.859 32.5212 262.859 29.4958C262.859 26.5593 262.253 24.3347 261.042 22.733C259.831 21.2203 258.014 20.4195 255.852 20.4195C253.516 20.4195 251.786 21.2203 250.488 22.822C249.104 24.5127 248.412 26.7373 248.412 29.6737ZM290.283 21.0424H280.853V43.2881H274.451V21.0424H269.953V15.7034H274.451V11.8771C274.451 9.02966 275.403 6.62712 277.22 4.75847C279.036 2.88983 281.372 2 284.227 2C285.006 2 285.698 2.08898 286.303 2.08898C286.909 2.08898 287.428 2.26695 287.861 2.44492V8.05085C287.688 7.96186 287.255 7.7839 286.736 7.60593C286.217 7.42797 285.611 7.33898 284.919 7.33898C283.622 7.33898 282.583 7.7839 281.891 8.58475C281.199 9.38559 280.853 10.7203 280.853 12.322V15.6144H290.283V9.38559L296.598 7.42797V15.6144H303V20.9534H296.598V33.8559C296.598 35.5466 296.944 36.7034 297.463 37.4153C298.069 38.1271 299.02 38.483 300.318 38.483C300.664 38.483 301.097 38.3941 301.616 38.2161C302.135 38.0381 302.567 37.8602 302.913 37.5932V42.9322C302.481 43.1992 301.875 43.3771 300.924 43.5551C299.972 43.733 299.107 43.822 298.155 43.822C295.474 43.822 293.484 43.1102 292.186 41.6864C290.888 40.2627 290.196 38.0381 290.196 35.1017L290.283 21.0424Z" fill="white" fill-opacity="0.8"/>
<path d="M34.2 0H0V34.2H34.2V0Z" fill="#F25022"/>
<path d="M71.9998 0H37.7998V34.2H71.9998V0Z" fill="#7FBA00"/>
<path d="M34.2 37.8H0V72H34.2V37.8Z" fill="#00A4EF"/>
<path d="M71.9998 37.8H37.7998V72H71.9998V37.8Z" fill="#FFB900"/>
<path d="M134.441 71V53.1045H147.71V56.1318H138.054V60.0991H147.039V63.1143H138.054V67.9849H148.052V71H134.441ZM163.231 71H160.045V69.0957C159.516 69.8363 158.889 70.3896 158.165 70.7559C157.449 71.1139 156.725 71.293 155.992 71.293C154.503 71.293 153.225 70.6948 152.159 69.4985C151.101 68.2941 150.572 66.6177 150.572 64.4692C150.572 62.272 151.089 60.6037 152.123 59.4644C153.156 58.3169 154.462 57.7432 156.041 57.7432C157.49 57.7432 158.743 58.3454 159.801 59.5498V53.1045H163.231V71ZM154.076 64.2373C154.076 65.6208 154.267 66.6217 154.649 67.2402C155.203 68.1354 155.976 68.583 156.969 68.583C157.758 68.583 158.43 68.2493 158.983 67.582C159.536 66.9066 159.813 65.9015 159.813 64.5669C159.813 63.0776 159.544 62.0075 159.007 61.3564C158.47 60.6973 157.783 60.3677 156.944 60.3677C156.131 60.3677 155.447 60.6932 154.894 61.3442C154.348 61.9871 154.076 62.9515 154.076 64.2373ZM166.557 71.8545L170.476 72.3306C170.541 72.7863 170.691 73.0996 170.927 73.2705C171.253 73.5146 171.765 73.6367 172.465 73.6367C173.361 73.6367 174.032 73.5024 174.479 73.2339C174.781 73.0549 175.008 72.766 175.163 72.3672C175.269 72.0824 175.322 71.5575 175.322 70.7925V68.9004C174.296 70.3001 173.002 71 171.44 71C169.698 71 168.319 70.2635 167.302 68.7905C166.504 67.6268 166.105 66.1782 166.105 64.4448C166.105 62.272 166.626 60.6118 167.668 59.4644C168.718 58.3169 170.02 57.7432 171.574 57.7432C173.177 57.7432 174.5 58.4471 175.542 59.855V58.0361H178.752V69.6694C178.752 71.1994 178.626 72.3428 178.374 73.0996C178.121 73.8564 177.767 74.4505 177.312 74.8818C176.856 75.3132 176.245 75.6509 175.48 75.895C174.724 76.1392 173.763 76.2612 172.6 76.2612C170.402 76.2612 168.844 75.8828 167.924 75.126C167.005 74.3773 166.545 73.4251 166.545 72.2695C166.545 72.1556 166.549 72.0173 166.557 71.8545ZM169.621 64.2495C169.621 65.6248 169.886 66.634 170.415 67.2769C170.952 67.9116 171.611 68.229 172.392 68.229C173.23 68.229 173.938 67.9035 174.516 67.2524C175.094 66.5933 175.383 65.6208 175.383 64.335C175.383 62.9922 175.106 61.9953 174.553 61.3442C173.999 60.6932 173.299 60.3677 172.453 60.3677C171.631 60.3677 170.952 60.6891 170.415 61.332C169.886 61.9668 169.621 62.9393 169.621 64.2495ZM189.915 66.874L193.333 67.4478C192.894 68.701 192.198 69.6572 191.246 70.3164C190.302 70.9674 189.118 71.293 187.693 71.293C185.439 71.293 183.771 70.5565 182.688 69.0835C181.834 67.9035 181.407 66.4142 181.407 64.6157C181.407 62.4673 181.968 60.7868 183.091 59.5742C184.214 58.3535 185.634 57.7432 187.352 57.7432C189.28 57.7432 190.802 58.382 191.917 59.6597C193.032 60.9292 193.565 62.8783 193.516 65.5068H184.922C184.947 66.5241 185.223 67.3175 185.752 67.8872C186.281 68.4487 186.941 68.7295 187.73 68.7295C188.267 68.7295 188.719 68.583 189.085 68.29C189.451 67.9971 189.728 67.5251 189.915 66.874ZM190.11 63.4072C190.086 62.4144 189.83 61.6616 189.341 61.1489C188.853 60.6281 188.259 60.3677 187.559 60.3677C186.81 60.3677 186.192 60.6403 185.704 61.1855C185.215 61.7308 184.975 62.4714 184.983 63.4072H190.11ZM219.016 71H215.085L213.523 66.9351H206.37L204.893 71H201.06L208.03 53.1045H211.851L219.016 71ZM212.363 63.9199L209.897 57.2793L207.48 63.9199H212.363ZM233.06 71H229.874V69.0957C229.345 69.8363 228.718 70.3896 227.994 70.7559C227.278 71.1139 226.554 71.293 225.821 71.293C224.332 71.293 223.054 70.6948 221.988 69.4985C220.93 68.2941 220.401 66.6177 220.401 64.4692C220.401 62.272 220.918 60.6037 221.952 59.4644C222.985 58.3169 224.291 57.7432 225.87 57.7432C227.319 57.7432 228.572 58.3454 229.63 59.5498V53.1045H233.06V71ZM223.905 64.2373C223.905 65.6208 224.096 66.6217 224.479 67.2402C225.032 68.1354 225.805 68.583 226.798 68.583C227.587 68.583 228.259 68.2493 228.812 67.582C229.365 66.9066 229.642 65.9015 229.642 64.5669C229.642 63.0776 229.374 62.0075 228.836 61.3564C228.299 60.6973 227.612 60.3677 226.773 60.3677C225.96 60.3677 225.276 60.6932 224.723 61.3442C224.177 61.9871 223.905 62.9515 223.905 64.2373ZM248.593 71H245.407V69.0957C244.878 69.8363 244.252 70.3896 243.527 70.7559C242.811 71.1139 242.087 71.293 241.354 71.293C239.865 71.293 238.588 70.6948 237.521 69.4985C236.464 68.2941 235.935 66.6177 235.935 64.4692C235.935 62.272 236.451 60.6037 237.485 59.4644C238.518 58.3169 239.825 57.7432 241.403 57.7432C242.852 57.7432 244.105 58.3454 245.163 59.5498V53.1045H248.593V71ZM239.438 64.2373C239.438 65.6208 239.629 66.6217 240.012 67.2402C240.565 68.1354 241.338 68.583 242.331 68.583C243.12 68.583 243.792 68.2493 244.345 67.582C244.899 66.9066 245.175 65.9015 245.175 64.5669C245.175 63.0776 244.907 62.0075 244.37 61.3564C243.833 60.6973 243.145 60.3677 242.307 60.3677C241.493 60.3677 240.809 60.6932 240.256 61.3442C239.711 61.9871 239.438 62.9515 239.438 64.2373ZM251.846 66.2271V62.7969H258.584V66.2271H251.846ZM260.019 64.335C260.019 63.1956 260.299 62.0929 260.861 61.0269C261.422 59.9608 262.216 59.147 263.241 58.5854C264.275 58.0239 265.426 57.7432 266.696 57.7432C268.657 57.7432 270.264 58.382 271.518 59.6597C272.771 60.9292 273.397 62.5365 273.397 64.4814C273.397 66.4427 272.763 68.0703 271.493 69.3643C270.232 70.6501 268.641 71.293 266.72 71.293C265.532 71.293 264.397 71.0244 263.314 70.4873C262.24 69.9502 261.422 69.1649 260.861 68.1313C260.299 67.0897 260.019 65.8242 260.019 64.335ZM263.534 64.5181C263.534 65.8039 263.839 66.7886 264.45 67.4722C265.06 68.1558 265.813 68.4976 266.708 68.4976C267.603 68.4976 268.352 68.1558 268.954 67.4722C269.564 66.7886 269.87 65.7957 269.87 64.4937C269.87 63.2241 269.564 62.2476 268.954 61.564C268.352 60.8804 267.603 60.5386 266.708 60.5386C265.813 60.5386 265.06 60.8804 264.45 61.564C263.839 62.2476 263.534 63.2323 263.534 64.5181ZM288.137 71H284.707V64.3838C284.707 62.984 284.634 62.0807 284.487 61.6738C284.341 61.2588 284.101 60.9373 283.767 60.7095C283.442 60.4816 283.047 60.3677 282.583 60.3677C281.989 60.3677 281.456 60.5304 280.984 60.856C280.512 61.1815 280.186 61.6128 280.007 62.1499C279.836 62.687 279.751 63.6799 279.751 65.1284V71H276.321V58.0361H279.507V59.9404C280.638 58.4756 282.062 57.7432 283.779 57.7432C284.536 57.7432 285.228 57.8815 285.854 58.1582C286.481 58.4268 286.953 58.7726 287.271 59.1958C287.596 59.619 287.82 60.0991 287.942 60.6362C288.072 61.1733 288.137 61.9424 288.137 62.9434V71ZM290.67 67.3013L294.112 66.7764C294.259 67.4437 294.556 67.9523 295.003 68.3022C295.451 68.644 296.078 68.8149 296.883 68.8149C297.77 68.8149 298.438 68.6522 298.885 68.3267C299.186 68.0988 299.337 67.7936 299.337 67.4111C299.337 67.1507 299.256 66.9351 299.093 66.7642C298.922 66.6014 298.539 66.4508 297.945 66.3125C295.178 65.7021 293.425 65.1447 292.684 64.6401C291.659 63.9403 291.146 62.9678 291.146 61.7227C291.146 60.5996 291.59 59.6556 292.477 58.8906C293.364 58.1257 294.739 57.7432 296.603 57.7432C298.377 57.7432 299.695 58.0321 300.558 58.6099C301.42 59.1877 302.014 60.0422 302.34 61.1733L299.105 61.7715C298.967 61.2669 298.702 60.8804 298.312 60.6118C297.929 60.3433 297.38 60.209 296.664 60.209C295.76 60.209 295.113 60.3351 294.723 60.5874C294.462 60.7664 294.332 60.9984 294.332 61.2832C294.332 61.5273 294.446 61.7349 294.674 61.9058C294.983 62.1336 296.049 62.4551 297.872 62.8701C299.703 63.2852 300.981 63.7938 301.705 64.396C302.421 65.0063 302.779 65.8568 302.779 66.9473C302.779 68.1354 302.283 69.1567 301.29 70.0112C300.297 70.8657 298.828 71.293 296.883 71.293C295.117 71.293 293.718 70.9349 292.684 70.2188C291.659 69.5026 290.987 68.5301 290.67 67.3013Z" fill="white"/>
</svg>
