<svg width="152" height="28" viewBox="0 0 152 28" fill="none" xmlns="http://www.w3.org/2000/svg">
<path d="M0 3.99543L11.4211 2.42922V13.4566H0V3.99543ZM12.7968 2.20548L27.9289 0V13.3607H12.7968V2.20548ZM0 14.6201H11.4211V25.6795L0 24.0813V14.6201ZM12.7968 14.7671H27.9289V28L12.7968 25.8584V14.7671ZM36.4708 5.43379L38.6334 5.44658L41.9926 17.6247C42.2325 18.4749 42.4085 19.3443 42.5173 20.2265C43.6882 15.2402 45.2878 10.3817 46.6442 5.45936L48.5157 5.46575L51.4078 16.0137C51.7693 17.4137 52.2396 18.7945 52.3836 20.2329C53.4393 15.2466 54.9525 10.3881 56.1586 5.46575L58.2893 5.45616L53.5545 22.3968H51.251L47.8279 10.2187C47.636 9.56347 47.556 8.88585 47.4952 8.20502C47.4056 8.78995 47.3224 9.38128 47.1753 9.95342L43.7202 22.3553C42.9524 22.3968 42.1845 22.4 41.4167 22.3936L36.49 5.45297L36.4708 5.43379ZM59.505 5.56164C59.5457 5.23897 59.7079 4.94391 59.9587 4.73654C60.2094 4.52916 60.5299 4.42507 60.8547 4.44543C61.1796 4.4658 61.4845 4.6091 61.7074 4.84616C61.9302 5.08323 62.0543 5.39623 62.0543 5.72146C62.0543 6.04669 61.9302 6.3597 61.7074 6.59676C61.4845 6.83382 61.1796 6.97712 60.8547 6.99749C60.5299 7.01786 60.2094 6.91376 59.9587 6.70639C59.7079 6.49901 59.5457 6.20396 59.505 5.88128V5.56164ZM59.7929 10.2283H61.7124V22.3744H59.7929V10.2283ZM66.8823 12.1845C67.9796 10.2347 70.539 9.33333 72.6025 10.2347C74.2436 10.874 74.8547 12.7726 74.9059 14.39C74.9955 17.0493 74.9219 19.7119 74.9443 22.3712C74.3044 22.3712 73.6646 22.3712 73.0247 22.368C72.9928 19.811 73.0887 17.2539 72.98 14.6968C72.9288 13.4311 72.3913 11.9096 71.0125 11.5868C68.997 10.9795 66.9911 12.7918 66.9271 14.7831C66.8695 17.3082 66.9239 19.8429 66.9047 22.3712H64.9852V10.2283H66.9047L66.8791 12.1845H66.8823ZM86.3782 4.47489H88.2977V22.3744H86.3846L86.3302 20.4247C84.9449 22.9114 81.2435 23.4612 79.132 21.6169C77.6188 20.316 77.1581 18.1968 77.2381 16.279C77.2541 14.3356 77.8939 12.2836 79.4455 11.005C81.461 9.34932 85.0121 9.44521 86.4198 11.8776L86.407 4.4621L86.3782 4.47489ZM82.28 11.526C80.7444 11.769 79.7047 13.169 79.4167 14.6169C79.0392 16.3621 79.1064 18.3886 80.2069 19.8589C81.397 21.4379 84.014 21.4731 85.2936 19.9804C86.1574 19.079 86.407 17.7877 86.4134 16.5922C86.423 15.3137 86.5317 13.8753 85.6839 12.8205C84.9353 11.7562 83.5405 11.2767 82.2928 11.542L82.28 11.526ZM95.6558 9.94384C97.3674 9.79361 99.2709 10.0621 100.551 11.2991C102.003 12.6416 102.438 14.7192 102.355 16.605C102.333 18.3151 101.699 20.0571 100.445 21.2397C97.8281 23.6178 92.9589 23.0936 91.2953 19.8269C89.9901 17.0877 90.2524 13.3064 92.639 11.2288C93.4932 10.5064 94.5745 10.174 95.6462 9.93744L95.6558 9.94384ZM95.3007 11.6763C92.4854 12.5393 92.0056 16.2151 92.8853 18.6443C93.5891 20.7922 96.3085 21.7447 98.292 20.7411C99.6196 20.1338 100.224 18.6315 100.352 17.2571C100.496 15.6589 100.368 13.837 99.2325 12.5904C98.2728 11.51 96.6476 11.2799 95.2975 11.6731L95.3007 11.6763ZM103.334 10.2283H105.337L107.704 18.9224C107.864 19.4658 107.928 20.0283 107.986 20.5909C108.891 17.1068 110.033 13.6868 111.063 10.2347L112.813 10.2443C113.693 13.6963 114.787 17.0845 115.516 20.6005C116.268 17.1484 117.34 13.7283 118.172 10.3082C118.812 10.2763 119.458 10.2667 120.104 10.2603L116.489 22.4064H114.499C113.635 19.1142 112.516 15.8858 111.812 12.5616C110.98 15.8858 109.819 19.1142 108.868 22.4064H106.949L103.334 10.2603V10.2283ZM124.768 9.90868C125.968 9.82557 127.19 9.94064 128.32 10.3817C128.633 10.9763 128.39 11.7562 128.464 12.4274C127.12 11.5868 125.264 11.053 123.793 11.9064C122.791 12.4498 122.743 14.0575 123.719 14.6553C125.117 15.5598 126.893 15.7963 128.134 16.9566C129.503 18.2735 129.171 20.7922 127.568 21.7831C125.616 23.0233 123.057 22.9018 121.009 21.9557L120.993 19.8078C122.446 20.9137 124.481 21.5274 126.24 20.7411C127.254 20.2297 127.305 18.6763 126.413 18.0242C125.015 16.995 123.086 16.832 121.87 15.547C120.645 14.3132 120.865 12.031 122.232 11.0082C122.935 10.3594 123.895 10.1644 124.791 9.91187L124.768 9.90868ZM138.205 5.17808L138.877 5.08219V22.3744H136.983L137.005 7.9589C135.799 8.78995 134.497 9.50594 133.07 9.90228L133.093 7.98447C134.948 7.35479 136.644 6.33836 138.179 5.15251L138.205 5.17808ZM145.883 5.14612C147.547 4.86804 149.402 5.47534 150.394 6.88813C151.802 8.86986 151.93 11.4269 152 13.7603C151.952 16.2342 151.68 18.9064 150.1 20.9201C148.644 22.8283 145.653 23.2758 143.701 21.8726C142.118 20.7315 141.494 18.7402 141.216 16.8863C140.896 14.147 140.928 11.2607 141.878 8.67169C142.479 6.89772 143.964 5.37945 145.877 5.15571L145.883 5.14612ZM145.582 6.87215C143.877 7.56256 143.388 9.57626 143.151 11.2192C142.901 13.5014 142.844 15.8539 143.388 18.0913C143.66 19.1973 144.232 20.3703 145.33 20.8562C146.577 21.4826 148.241 20.9425 148.881 19.7151C149.927 17.9091 149.953 15.7516 149.969 13.7059C149.927 11.7242 149.847 9.61461 148.753 7.88858C148.103 6.84018 146.705 6.41826 145.573 6.87215" fill="#0078D6"/>
</svg>
