<?xml version="1.0" encoding="utf-8"?>
<!-- Generator: Adobe Illustrator 15.0.0, SVG Export Plug-In  -->
<!DOCTYPE svg [
	<!ENTITY ns_flows "http://ns.adobe.com/Flows/1.0/">
]>
<svg version="1.2" baseProfile="tiny"
	 xmlns="http://www.w3.org/2000/svg" xmlns:xlink="http://www.w3.org/1999/xlink" xmlns:a="http://ns.adobe.com/AdobeSVGViewerExtensions/3.0/"
	 x="0px" y="0px" width="159px" height="41px" viewBox="-5.7 -6.6 159 41" xml:space="preserve">
<defs>
</defs>
<g>
	<polygon fill="#FFFFFF" points="13.8,2.4 13.8,14.8 30.2,14.8 30.2,0 	"/>
	<polygon fill="#FFFFFF" points="0,14.9 12.8,14.9 12.8,2.5 0,4.4 	"/>
	<polygon fill="#FFFFFF" points="13.8,27.9 30.2,30.3 30.2,15.9 13.8,15.9 	"/>
	<polygon fill="#FFFFFF" points="0,25.9 12.8,27.8 12.8,15.9 0,15.9 	"/>
</g>
<text transform="matrix(1 0 0 1 39.3369 24.4199)" fill="#FFFFFF" font-family="'MyriadPro-Regular'" font-size="28">W</text>
<text transform="matrix(1 0 0 1 62.5771 24.4199)" fill="#FFFFFF" font-family="'MyriadPro-Regular'" font-size="28">i</text>
<text transform="matrix(1 0 0 1 69.1289 24.4199)" fill="#FFFFFF" font-family="'MyriadPro-Regular'" font-size="28">n</text>
<text transform="matrix(1 0 0 1 84.6689 24.4199)" fill="#FFFFFF" font-family="'MyriadPro-Regular'" font-size="28">d</text>
<text transform="matrix(1 0 0 1 100.46 24.4199)" fill="#FFFFFF" font-family="'MyriadPro-Regular'" font-size="28">o</text>
<text transform="matrix(1 0 0 1 115.6367 24.4199)" fill="#FFFFFF" font-family="'MyriadPro-Regular'" font-size="28">w</text>
<text transform="matrix(1 0 0 1 136.0771 24.4199)" fill="#FFFFFF" font-family="'MyriadPro-Regular'" font-size="28">s</text>
</svg>
