<?xml version="1.0" encoding="utf-8"?>
<!-- Generator: Adobe Illustrator 21.0.0, SVG Export Plug-In . SVG Version: 6.00 Build 0)  -->
<svg version="1.1" id="Layer_1" xmlns="http://www.w3.org/2000/svg" xmlns:xlink="http://www.w3.org/1999/xlink" x="0px" y="0px"
	 viewBox="0 0 100 100" style="enable-background:new 0 0 100 100;" xml:space="preserve">
<style type="text/css">
	.st0{fill:#F2F2F2;}
	.st1{fill:#BB9167;}
	.st2{fill:#83BEEC;}
	.st3{fill:#8E562E;}
	.st4{fill:#383838;}
	.st5{fill:#D8B094;}
	.st6{fill:#16C60C;}
	.st7{fill:#FFFFFF;}
	.st8{fill:#E81224;}
	.st9{fill:#13A10E;}
	.st10{fill:#3A96DD;}
	.st11{fill:#FFB900;}
	.st12{fill:#0063B1;}
	.st13{fill:#1F1F1F;}
	.st14{fill:#A8A8A8;}
	.st15{fill:#997758;}
	.st16{fill:#00B294;}
	.st17{fill:#E5E5E5;}
	.st18{fill:#CA5010;}
	.st19{fill:#B3DBF2;}
	.st20{fill:#0078D7;}
	.st21{fill:#CCCCCC;}
	.st22{fill:#613D30;}
	.st23{fill:none;stroke:#00008b;stroke-width:0.25;stroke-miterlimit:10;}
</style>
<g>
	<circle class="st0" cx="50" cy="50" r="50"/>
	<path class="st1" d="M71.9,56.5h9.9v38.8h-6l-3.3-33.1c-0.1-0.7-1.1-0.7-1.1,0l-3.3,33.1h-6V56.5H71.9"/>
	<g>
		<polygon class="st2" points="74.5,25.9 71.9,27.2 69.4,25.9 62,25.9 62,27.6 62,57.8 71.1,57.8 72.4,57.8 72.8,57.8 81.9,57.8 
			81.9,25.9 		"/>
	</g>
	<path class="st3" d="M58.2,98.7c0-1.2,1-2.2,2.2-2.2h0.4l1.3-1.3h6v3.9h-9.9V98.7z"/>
	<rect x="58.2" y="99.1" class="st4" width="9.9" height="0.9"/>
	<path class="st3" d="M85.7,98.7c0-1.2-1-2.2-2.2-2.2h-0.4l-1.3-1.3h-6v3.9h9.9V98.7z"/>
	
		<rect x="75.8" y="99.1" transform="matrix(-1 -4.553214e-11 4.553214e-11 -1 161.5542 199.1385)" class="st4" width="9.9" height="0.9"/>
	<path class="st2" d="M58.2,47.4c-0.2,0-0.5,0-0.7-0.1c-1.6-0.4-2.6-2-2.2-3.7l3.9-15.5c0.4-1.6,2-2.6,3.7-2.2
		c1.6,0.4,2.6,2,2.2,3.7l-3.9,15.5C60.7,46.5,59.5,47.4,58.2,47.4z"/>
	<path class="st2" d="M90,45.9c0.2-0.1,0.5-0.2,0.7-0.3c1.5-0.8,2-2.6,1.2-4.1l-7.7-14c-0.8-1.5-2.6-2-4.1-1.2
		c-1.5,0.8-2,2.6-1.2,4.1l7.7,14C87.2,45.6,88.7,46.2,90,45.9z"/>
	<circle class="st5" cx="58.2" cy="59.9" r="3"/>
	<rect x="55.1" y="50" class="st5" width="6" height="9.9"/>
	<g>
		<path class="st6" d="M61.2,49.2v-4.7c0-1.7-1.3-3-3-3s-3,1.3-3,3v4.7H61.2z"/>
	</g>
	<g>
		<path class="st7" d="M70.7,39c-0.1,0-0.2-0.1-0.2-0.1L66.1,26c0-0.1,0-0.2,0.1-0.3c0.1,0,0.2,0,0.3,0.1l4.3,12.9
			C70.9,38.9,70.8,39,70.7,39C70.7,39,70.7,39,70.7,39z"/>
		<path class="st7" d="M72.4,39C72.4,39,72.3,39,72.4,39c-0.2,0-0.2-0.2-0.2-0.3l4.3-12.9c0-0.1,0.2-0.2,0.3-0.1
			c0.1,0,0.2,0.2,0.1,0.3l-4.3,12.9C72.6,39,72.5,39,72.4,39z"/>
	</g>
	<g>
		<path class="st7" d="M69.8,41.8c0,0.2,0.2,0.4,0.4,0.4h2.6c0.2,0,0.4-0.2,0.4-0.4v-5.2c0-0.2-0.2-0.4-0.4-0.4h-2.6
			c-0.2,0-0.4,0.2-0.4,0.4V41.8z"/>
		<g>
			<rect x="70.2" y="38" class="st8" width="1.2" height="1.2"/>
			<rect x="71.6" y="38" class="st9" width="1.2" height="1.2"/>
			<rect x="70.2" y="39.4" class="st10" width="1.2" height="1.2"/>
			<rect x="71.6" y="39.4" class="st11" width="1.2" height="1.2"/>
		</g>
	</g>
	<polygon class="st0" points="67.2,25.9 70.7,29.4 70.7,31.9 72.4,31.9 72.4,29.4 75.8,25.9 74.1,25.9 68.1,25.9 	"/>
	<circle class="st12" cx="71.5" cy="29.4" r="0.4"/>
	<circle class="st12" cx="71.5" cy="31.1" r="0.4"/>
	<polyline class="st5" points="74.1,25.9 71.5,28.5 68.9,25.9 	"/>
	<rect x="55.1" y="49.2" class="st0" width="6" height="1.7"/>
	<rect x="62" y="56.1" class="st0" width="19.8" height="1.7"/>
	<path class="st5" d="M62,59.5c-0.2,0-0.4-0.1-0.6-0.3l-1.7-1.7c-0.3-0.3-0.3-0.9,0-1.2c0.3-0.3,0.9-0.3,1.2,0l1.7,1.7
		c0.3,0.3,0.3,0.9,0,1.2C62.5,59.4,62.3,59.5,62,59.5z"/>
	<g>
		<g>
			<path class="st5" d="M78.8,12.2v5.2c0,4.3-3.5,7.8-7.8,7.8c-4.3,0-7.8-3.5-7.8-7.8v-1.7c0-1.3,0.4-2.4,0.9-3.4H78.8z"/>
		</g>
		<g>
			<path class="st1" d="M64.2,12.2h2.6v4.3c0,2.4,1.9,4.3,4.3,4.3c0-0.5,0.4-0.9,0.9-0.9h3.4c0.5,0,0.9,0.4,0.9,0.9
				c0.9,0,1.8-0.5,2.3-1.2c-1,3.2-3.9,5.5-7.5,5.5c-0.7,0-1.4-0.2-2-0.4c-1.9-0.8-3.2-2.6-3.2-4.8v-3.4H65v1.7
				c0,0.7-0.7,1.3-1.4,1.3c-0.2-0.7-0.3-1.4-0.3-2.2v-1.7C63.3,14.4,63.6,13.2,64.2,12.2z"/>
		</g>
		<path class="st1" d="M74.5,18.2c0,0.5-0.4,0.9-0.9,0.9c-0.5,0-0.9-0.4-0.9-0.9"/>
		<path class="st5" d="M73.6,22.1c0.5,0,1-0.2,1.4-0.5c0.2-0.2,0.2-0.4,0-0.6c-0.2-0.2-0.4-0.2-0.6,0c-0.4,0.4-1.1,0.4-1.6,0
			c-0.2-0.2-0.4-0.2-0.6,0c-0.2,0.2-0.2,0.4,0,0.6C72.6,21.9,73.1,22.1,73.6,22.1z"/>
		<path class="st13" d="M70.2,14.8c0.5,0,0.9,0.4,0.9,0.9v0.9c0,0.5-0.4,0.9-0.9,0.9c-0.5,0-0.9-0.4-0.9-0.9v-0.9
			C69.3,15.1,69.7,14.8,70.2,14.8z"/>
		<path class="st13" d="M77.1,14.8c0.5,0,0.9,0.4,0.9,0.9v0.9c0,0.5-0.4,0.9-0.9,0.9c-0.5,0-0.9-0.4-0.9-0.9v-0.9
			C76.2,15.1,76.6,14.8,77.1,14.8z"/>
		<path class="st3" d="M64.2,12.2c1.3-2.6,3.9-4.3,6.9-4.3h4.3c2.4,0,4.3,1.9,4.3,4.3"/>
		<path class="st5" d="M64.1,17.3c0,0.5,0.4,0.9,0.9,0.9h0.9v-3.4H65c-0.5,0-0.9,0.4-0.9,0.9V17.3z"/>
	</g>
	<path class="st4" d="M23.9,92.2l-0.3-2.6l-2.9-29.3h19l-2.9,29.3l-0.3,2.6l-0.3,2.6l1.7,1.7H31v-4.3v-2.6V65.5
		c0-0.5-0.4-0.9-0.9-0.9s-0.9,0.4-0.9,0.9v24.1v2.6v4.3h-6.9l1.7-1.7L23.9,92.2z"/>
	<path class="st13" d="M39.6,98.3c0-1-0.8-1.7-1.7-1.7l0,0l-1.7-1.7l0.9-8.6h-6v12.9h8.6V98.3z"/>
	<polygon class="st4" points="39.6,99.1 39.6,100 34.5,100 33.6,99.1 33.6,100 31,100 31,99.1 	"/>
	<path class="st13" d="M20.7,98.3c0-1,0.8-1.7,1.7-1.7l0,0l1.7-1.7l-0.9-8.6h6v12.9h-8.6V98.3z"/>
	<polygon class="st4" points="20.7,99.1 20.7,100 25.9,100 26.7,99.1 26.7,100 29.3,100 29.3,99.1 	"/>
	<path class="st4" d="M21.5,23.3c0-4.8,3.9-8.6,8.6-8.6s8.6,3.9,8.6,8.6v10.3H21.5V23.3z"/>
	<path class="st1" d="M22.4,24.2c4.3,0,7.8-3.5,7.8-7.8c0,4.3,3.5,7.8,7.8,7.8c0,4.3-3.5,7.8-7.8,7.8S22.4,28.5,22.4,24.2z"/>
	<path class="st14" d="M17.2,52.6c-0.2,0-0.4,0-0.6-0.1c-1.4-0.3-2.2-1.7-1.9-3.1l3.4-13.8c0.3-1.4,1.7-2.2,3.1-1.9
		c1.4,0.3,2.2,1.7,1.9,3.1l-3.4,13.8C19.5,51.8,18.4,52.6,17.2,52.6z"/>
	<path class="st14" d="M43.1,55.2c-0.4,0-0.8-0.1-1.2-0.3c-1.3-0.6-1.8-2.2-1.2-3.5l4.3-8.6c0.6-1.3,2.2-1.8,3.5-1.2
		c1.3,0.6,1.8,2.2,1.2,3.5l-4.3,8.6C44.9,54.7,44,55.2,43.1,55.2z"/>
	<path class="st14" d="M46.5,45.7c-0.7,0-1.3-0.3-1.8-0.8l-6.9-6.9c-1-1-1-2.6,0-3.7c1-1,2.6-1,3.7,0l6.9,6.9c1,1,1,2.6,0,3.7
		C47.9,45.5,47.2,45.7,46.5,45.7z"/>
	<path class="st13" d="M32.7,24.2c0-0.5,0.4-0.9,0.9-0.9s0.9,0.4,0.9,0.9V25c0,0.5-0.4,0.9-0.9,0.9s-0.9-0.4-0.9-0.9V24.2z"/>
	<path class="st13" d="M25.9,24.2c0-0.5,0.4-0.9,0.9-0.9s0.9,0.4,0.9,0.9V25c0,0.5-0.4,0.9-0.9,0.9s-0.9-0.4-0.9-0.9V24.2z"/>
	<path class="st15" d="M31,25.9c0,0.5-0.4,0.9-0.9,0.9s-0.9-0.4-0.9-0.9"/>
	<path class="st7" d="M31.5,28.5c0,0.7-0.6,1.3-1.3,1.3s-1.3-0.6-1.3-1.3"/>
	<path class="st16" d="M34.5,33.7c0,2.6-2.1,4.7-4.7,4.7S25,36.3,25,33.7"/>
	<path class="st1" d="M33.6,33.7c0,2.1-1.7,3.9-3.9,3.9s-3.9-1.7-3.9-3.9"/>
	<path class="st0" d="M30.2,62.1c0,1.9,1.5,3.4,3.4,3.4h6v-5.2h-9.5V62.1z"/>
	
		<rect x="20.7" y="33.7" transform="matrix(-1 -4.486645e-11 4.486645e-11 -1 60.3249 92.3091)" class="st14" width="19" height="25"/>
	<polyline class="st2" points="30.2,37.1 33.6,33.7 26.7,33.7 	"/>
	<path class="st0" d="M30.2,62.1c0,1.9-1.5,3.4-3.4,3.4h-6v-5.2h9.5V62.1z"/>
	<polygon class="st17" points="31.9,33.7 30.2,35.4 28.4,33.7 	"/>
	
		<rect x="20.7" y="58.6" transform="matrix(-1 -4.491442e-11 4.491442e-11 -1 60.3249 119.878)" class="st2" width="19" height="2.6"/>
	
		<rect x="30.4" y="32.7" transform="matrix(0.8944 -0.4472 0.4472 0.8944 -11.6426 18.0061)" class="st0" width="3.9" height="1.9"/>
	<rect x="27" y="31.7" transform="matrix(0.4472 -0.8944 0.8944 0.4472 -14.6258 43.6598)" class="st0" width="1.9" height="3.9"/>
	<path class="st0" d="M42.2,57.4c-0.5,0-0.9-0.1-1.3-0.3c-1.5-0.7-2.1-2.6-1.3-4l0.9-1.7c0.7-1.5,2.6-2.1,4-1.3
		c1.5,0.7,2.1,2.6,1.3,4l-0.9,1.7C44.4,56.7,43.3,57.4,42.2,57.4z"/>
	<rect x="39.6" y="51.8" class="st1" width="2.6" height="1.7"/>
	<path class="st1" d="M38.8,58.6c-0.9,0-1.9-0.5-2.3-1.4c-0.6-1.3-0.1-2.8,1.2-3.5l3.4-1.7c1.3-0.6,2.8-0.1,3.5,1.2
		c0.6,1.3,0.1,2.8-1.2,3.5l-3.4,1.7C39.6,58.6,39.2,58.6,38.8,58.6z"/>
	<path class="st14" d="M17.2,52.6H9.5c-1.4,0-2.6-1.2-2.6-2.6s1.2-2.6,2.6-2.6h7.8c1.4,0,2.6,1.2,2.6,2.6S18.7,52.6,17.2,52.6z"/>
	<path class="st0" d="M9.5,53H7.8c-1.7,0-3-1.4-3-3c0-1.7,1.4-3,3-3h1.7c1.7,0,3,1.4,3,3C12.5,51.7,11.2,53,9.5,53z"/>
	<g>
		<path class="st13" d="M20.3,49.2c0.5,0,0.9-0.4,0.9-0.9v-0.9h-6v1.7H20.3z"/>
		<path class="st13" d="M1.7,39.4l2.4,9.5c0,0.2,0.2,0.3,0.4,0.3H17c0.3,0,0.5-0.3,0.4-0.5L15,39.2c0-0.2-0.2-0.3-0.4-0.3H2.2
			C1.9,38.8,1.7,39.1,1.7,39.4z"/>
		<path class="st4" d="M1.3,39.4l2.4,9.5c0,0.2,0.2,0.3,0.4,0.3h12.5c0.3,0,0.5-0.3,0.4-0.5l-2.4-9.5c0-0.2-0.2-0.3-0.4-0.3H1.7
			C1.5,38.8,1.2,39.1,1.3,39.4z"/>
	</g>
	<path class="st1" d="M7.8,52.6c-0.9,0-1.9-0.5-2.3-1.4l-0.9-1.7C4,48.2,4.5,46.6,5.7,46c1.3-0.6,2.8-0.1,3.5,1.2l0.9,1.7
		c0.6,1.3,0.1,2.8-1.2,3.5C8.5,52.5,8.2,52.6,7.8,52.6z"/>
	<path class="st18" d="M24.8,23.8v2.3c0,0.4,0.3,0.6,0.6,0.6h2.2c0.6,0,1.1-0.5,1.1-1.1v-2.8h-2c0.2-0.1,0.4-0.3,0.6-0.4h1.8v1.2
		c0.3-0.2,0.7-0.4,1.1-0.4s0.8,0.1,1.1,0.4v-1.2H33c0.2,0.2,0.4,0.3,0.6,0.4h-2v2.8c0,0.6,0.5,1.1,1.1,1.1h2.2
		c0.4,0,0.6-0.3,0.6-0.6v-2.3c0.1,0,0.3,0.1,0.4,0.1v2.2c0,0.6-0.5,1.1-1.1,1.1h-2.2c-0.8,0-1.5-0.7-1.5-1.5v-1.4
		c-0.3-0.3-0.7-0.5-1.1-0.5s-0.8,0.2-1.1,0.5v1.4c0,0.8-0.7,1.5-1.5,1.5h-2.2c-0.6,0-1.1-0.5-1.1-1.1v-2.2
		C24.5,23.9,24.6,23.9,24.8,23.8z"/>
	<g>
		<path class="st0" d="M31.5,45.5C31.4,45.5,31.4,45.5,31.5,45.5c-0.2,0-0.2-0.2-0.2-0.3l3.9-11.6c0-0.1,0.2-0.2,0.3-0.1
			c0.1,0,0.2,0.2,0.1,0.3l-3.9,11.6C31.6,45.5,31.5,45.5,31.5,45.5z"/>
		<path class="st0" d="M28.9,45.5c-0.1,0-0.2-0.1-0.2-0.1l-3.9-11.6c0-0.1,0-0.2,0.1-0.3c0.1,0,0.2,0,0.3,0.1l3.9,11.6
			C29.1,45.3,29.1,45.5,28.9,45.5C28.9,45.5,28.9,45.5,28.9,45.5z"/>
		<path class="st17" d="M31.9,50c0,0.2-0.2,0.4-0.4,0.4h-2.6c-0.2,0-0.4-0.2-0.4-0.4v-5.2c0-0.2,0.2-0.4,0.4-0.4h2.6
			c0.2,0,0.4,0.2,0.4,0.4V50z"/>
		<g>
			
				<rect x="30.3" y="46.2" transform="matrix(-1 -5.067248e-11 5.067248e-11 -1 61.7248 93.4937)" class="st8" width="1.2" height="1.2"/>
			
				<rect x="28.9" y="46.2" transform="matrix(-1 -4.222723e-11 4.222723e-11 -1 58.9249 93.4937)" class="st9" width="1.2" height="1.2"/>
			
				<rect x="30.3" y="47.6" transform="matrix(-1 -4.222723e-11 4.222723e-11 -1 61.7248 96.2936)" class="st10" width="1.2" height="1.2"/>
			
				<rect x="28.9" y="47.6" transform="matrix(-1 -5.067248e-11 5.067248e-11 -1 58.9249 96.2936)" class="st11" width="1.2" height="1.2"/>
		</g>
	</g>
	<path class="st4" d="M53.4,28.5c0,1.9,1.5,3.4,3.4,3.4c1.9,0,3.4-1.5,3.4-3.4c-0.5,0-0.9-0.4-0.9-0.9V19h-6"/>
	<g>
		<polygon class="st3" points="43.9,95.7 42.2,97.4 49.1,97.4 49.1,93.1 43.7,93.1 		"/>
		<g>
			<path class="st2" d="M40.5,61.2l2.9,29.3h5.7V66.4c0-0.5,0.4-0.9,0.9-0.9c0.5,0,0.9,0.4,0.9,0.9v24.1h5.7l2.9-29.3H40.5z"/>
			<polygon class="st19" points="50.8,93.1 56.3,93.1 56.5,90.5 50.8,90.5 			"/>
			<polygon class="st19" points="43.7,93.1 49.1,93.1 49.1,90.5 43.4,90.5 			"/>
		</g>
		<polygon class="st3" points="50.8,93.1 50.8,97.4 57.7,97.4 56,95.7 56.3,93.1 		"/>
	</g>
	<g>
		<path class="st12" d="M39.6,46.3c-0.4-1.6-2-2.6-3.6-2.2c-1.6,0.4-2.6,2-2.2,3.6l1.3,5.4l5.9-1.5L39.6,46.3z"/>
		<path class="st3" d="M42.1,57.1l-1.3-5.4L35,53.1l1.3,5.4c0.3,1.4,1.6,2.3,2.9,2.3c0.2,0,0.5,0,0.7-0.1
			C41.5,60.3,42.5,58.7,42.1,57.1z"/>
		<rect x="34.9" y="52" transform="matrix(0.9702 -0.2423 0.2423 0.9702 -11.5671 10.7487)" class="st20" width="6" height="0.9"/>
	</g>
	<path class="st12" d="M36.6,50c-0.5,0-0.9-0.1-1.3-0.3c-1.5-0.7-2.1-2.6-1.3-4l5.6-11.2c0.5-1,1.6-1.7,2.7-1.7h8.2c1.7,0,3,1.3,3,3
		s-1.3,3-3,3h-6.3l-4.8,9.5C38.8,49.4,37.7,50,36.6,50z"/>
	<path class="st21" d="M45.2,32.8c-2.6,0-4.7,2.1-4.7,4.7v23.7h19V38l-1.7-5.2H45.2z"/>
	<path class="st12" d="M40.5,65.5c2.4,0,4.3-1.9,4.3-4.3V32.8c-2.4,0-4.3,1.9-4.3,4.3V65.5z"/>
	<path class="st3" d="M41.8,62.1c-0.5,0-0.9-0.1-1.3-0.3l-2.6-1.3c-1.5-0.7-2.1-2.6-1.3-4c0.7-1.5,2.6-2.1,4-1.3l2.6,1.3
		c1.5,0.7,2.1,2.6,1.3,4C44,61.5,42.9,62.1,41.8,62.1z"/>
	<path class="st3" d="M53.8,32.8l-2.2,4.4c-0.5,1-1.5,1.6-2.6,1.6h0c-1.6,0-2.9-1.3-2.9-2.9v-3.1"/>
	<circle class="st3" cx="49.5" cy="23.8" r="8.2"/>
	<path class="st22" d="M47.4,29.4c0.8,0,1.5-0.4,2.1-1c0.2-0.2,0.1-0.5-0.1-0.6c-0.2-0.2-0.5-0.1-0.6,0.1c-0.4,0.5-0.9,0.7-1.4,0.7
		c-0.5,0-1-0.3-1.4-0.7c-0.2-0.2-0.4-0.2-0.6-0.1c-0.2,0.2-0.2,0.4-0.1,0.6C45.9,29,46.6,29.4,47.4,29.4z"/>
	<path class="st22" d="M48.3,25.9c0,0.5-0.4,0.9-0.9,0.9c-0.5,0-0.9-0.4-0.9-0.9"/>
	<path class="st13" d="M43.9,22.5c0.5,0,0.9,0.4,0.9,0.9v0.9c0,0.5-0.4,0.9-0.9,0.9c-0.5,0-0.9-0.4-0.9-0.9v-0.9
		C43.1,22.8,43.5,22.5,43.9,22.5z"/>
	<path class="st13" d="M50.8,22.5c0.5,0,0.9,0.4,0.9,0.9v0.9c0,0.5-0.4,0.9-0.9,0.9c-0.5,0-0.9-0.4-0.9-0.9v-0.9
		C50,22.8,50.4,22.5,50.8,22.5z"/>
	<g>
		<path class="st4" d="M49.5,15.6c4.5,0,8.2,3.7,8.2,8.2c0,0.9-0.1,1.8-0.4,2.6l0,0c-0.7,0-1.3-0.6-1.3-1.3v-1.7h-1.3l-3-3
			c-1.5,1.9-3.7,3-6,3h-4.3C41.6,19,45.2,15.6,49.5,15.6z"/>
	</g>
	<circle class="st4" cx="56" cy="19" r="3.4"/>
	<path class="st3" d="M56,23.3c0-0.5-0.4-0.9-0.9-0.9s-0.9,0.4-0.9,0.9v0.9c0,0.5,0.4,0.9,0.9,0.9s0.9-0.4,0.9-0.9V23.3z"/>
	<path class="st17" d="M53.3,32.8L51.2,37c-0.4,0.9-1.3,1.4-2.2,1.4c-1.4,0-2.5-1.1-2.5-2.5v-3.1h-0.9v3.1c0,1.9,1.5,3.4,3.4,3.4
		c1.3,0,2.4-0.7,3-1.9l2.3-4.6H53.3z"/>
	<path class="st12" d="M60.7,52.6c-1.4,0-2.6-0.9-2.9-2.3l-3.4-13.8c-0.4-1.6,0.6-3.3,2.2-3.7c1.6-0.4,3.3,0.6,3.7,2.2l3.4,13.8
		c0.4,1.6-0.6,3.3-2.2,3.7C61.2,52.6,61,52.6,60.7,52.6z"/>
	<path class="st12" d="M54.3,32.8v28.4c0,2.4,1.9,4.3,4.3,4.3h0.9V37.1h-0.9l-0.9-4.3H54.3"/>
	<path class="st3" d="M59.2,59.3c-0.3-0.3-0.9-0.3-1.2,0l-1.7,1.7c-0.3,0.3-0.3,0.9,0,1.2c0.2,0.2,0.4,0.3,0.6,0.3
		c0.2,0,0.4-0.1,0.6-0.3l1.7-1.7C59.5,60.2,59.5,59.7,59.2,59.3z"/>
	<g>
		<path class="st12" d="M63.8,49.6c0-1.7-1.3-3-3-3c-1.7,0-3,1.3-3,3v6.9h6V49.6z"/>
		<path class="st3" d="M57.7,56.5v6.9c0,1.7,1.3,3,3,3c1.7,0,3-1.3,3-3v-6.9H57.7z"/>
	</g>
	<rect x="57.7" y="56.1" class="st20" width="6" height="0.9"/>
	<path class="st4" d="M54.3,28.5c-0.5,0-0.9-0.4-0.9-0.9v-6h0.9V28.5z"/>
	<path class="st12" d="M39.6,99.1c0-1,0.8-1.7,1.7-1.7h6.9l0.9-0.9v3.4h-9.5V99.1z"/>
	<path class="st12" d="M60.3,99.1c0-1-0.8-1.7-1.7-1.7h-6.9l-0.9-0.9v3.4h9.5V99.1z"/>
	
		<rect x="39.6" y="99.1" transform="matrix(-1 -4.721746e-11 4.721746e-11 -1 88.7525 199.1385)" class="st5" width="9.5" height="0.9"/>
	<rect x="50.8" y="99.1" class="st5" width="9.5" height="0.9"/>
	<g>
		<g>
			<path class="st7" d="M49.1,45.9c-0.1,0-0.2-0.1-0.2-0.1l-4.3-12.9c0-0.1,0-0.2,0.1-0.3c0.1,0,0.2,0,0.3,0.1l4.3,12.9
				C49.4,45.8,49.3,45.9,49.1,45.9C49.2,45.9,49.1,45.9,49.1,45.9z"/>
			<path class="st7" d="M50,45.9C50,45.9,49.9,45.9,50,45.9c-0.2,0-0.2-0.2-0.2-0.3l4.3-12.9c0-0.1,0.2-0.2,0.3-0.1
				c0.1,0,0.2,0.2,0.1,0.3l-4.3,12.9C50.2,45.9,50.1,45.9,50,45.9z"/>
		</g>
		<g>
			<path class="st7" d="M47.8,47.9c0,0.2,0.2,0.4,0.4,0.4h2.6c0.2,0,0.4-0.2,0.4-0.4v-5.2c0-0.2-0.2-0.4-0.4-0.4h-2.6
				c-0.2,0-0.4,0.2-0.4,0.4V47.9z"/>
			<g>
				<rect x="48.3" y="44" class="st8" width="1.2" height="1.2"/>
				<rect x="49.7" y="44" class="st9" width="1.2" height="1.2"/>
				<rect x="48.3" y="45.4" class="st10" width="1.2" height="1.2"/>
				<rect x="49.7" y="45.4" class="st11" width="1.2" height="1.2"/>
			</g>
		</g>
	</g>
	<g>
		<path class="st5" d="M80.1,54.4c-0.2-0.1-0.4-0.2-0.6-0.1L77,54.8c-0.5,0.1-0.8,0.6-0.7,1c0.1,0.5,0.6,0.8,1,0.7l2.4-0.5
			c0.5-0.1,0.8-0.6,0.7-1C80.4,54.7,80.3,54.5,80.1,54.4z"/>
		<ellipse transform="matrix(0.5404 -0.8414 0.8414 0.5404 -12.8288 94.1786)" class="st5" cx="79.8" cy="58.8" rx="3" ry="3"/>
		<rect x="78.6" y="52.5" transform="matrix(0.8414 0.5404 -0.5404 0.8414 43.1758 -35.2563)" class="st5" width="6" height="6.9"/>
	</g>
	<path class="st2" d="M86.9,42c0.9-1.4,2.8-1.8,4.2-0.9c1.4,0.9,1.8,2.8,0.9,4.2l-5.7,9.1l-5-3.4L86.9,42z"/>
	
		<rect x="80.9" y="51.5" transform="matrix(-0.8464 -0.5326 0.5326 -0.8464 127.1287 141.3532)" class="st0" width="6" height="1.7"/>
</g>
</svg>
