<svg width="82" height="18" viewBox="0 0 82 18" fill="none" xmlns="http://www.w3.org/2000/svg">
<path d="M34.1019 3.49765V13.9905H32.2802V5.75654H32.256L29.0012 13.9905H27.7868L24.4591 5.75654H24.4349V13.9905H22.7589V3.49765H25.3821L28.394 11.2702H28.4426L31.6244 3.49765H34.1019V3.49765ZM35.6078 4.29919C35.6078 4.00772 35.705 3.76483 35.9236 3.57052C36.1422 3.3762 36.3851 3.27905 36.6766 3.27905C36.9923 3.27905 37.2595 3.3762 37.4538 3.57052C37.6481 3.76483 37.7696 4.00772 37.7696 4.29919C37.7696 4.59066 37.6724 4.83355 37.4538 5.02786C37.2352 5.22218 36.9923 5.31933 36.6766 5.31933C36.3608 5.31933 36.1179 5.22218 35.9236 5.02786C35.7293 4.80926 35.6078 4.56637 35.6078 4.29919ZM37.5753 6.46092V13.9905H35.8022V6.46092H37.5753ZM42.9432 12.7032C43.2103 12.7032 43.5018 12.6546 43.8176 12.5089C44.1333 12.3875 44.4248 12.2174 44.692 12.0231V13.6748C44.4005 13.8448 44.0847 13.9663 43.7204 14.0391C43.3561 14.112 42.9674 14.1606 42.5302 14.1606C41.4129 14.1606 40.5142 13.8205 39.8341 13.1161C39.1298 12.4117 38.7897 11.5131 38.7897 10.4443C38.7897 9.22988 39.1541 8.23402 39.8584 7.45677C40.5628 6.67952 41.5587 6.2909 42.8703 6.2909C43.2103 6.2909 43.5504 6.33947 43.8661 6.41234C44.2062 6.48521 44.4734 6.60665 44.6677 6.70381V8.40405C44.4005 8.20973 44.109 8.03971 43.8419 7.94255C43.5504 7.8454 43.2589 7.77253 42.9674 7.77253C42.2631 7.77253 41.7044 7.99113 41.2672 8.45262C40.83 8.91412 40.6357 9.52135 40.6357 10.2986C40.6357 11.0516 40.8543 11.6588 41.2672 12.0717C41.6801 12.4846 42.2388 12.7032 42.9432 12.7032ZM49.7198 6.33947C49.8655 6.33947 49.987 6.33947 50.1084 6.36376C50.2299 6.38805 50.327 6.41234 50.3999 6.43663V8.23402C50.3028 8.16116 50.1813 8.08829 49.987 8.03971C49.7927 7.99113 49.5984 7.94255 49.3312 7.94255C48.894 7.94255 48.5296 8.13687 48.2382 8.5012C47.9467 8.86554 47.7767 9.42419 47.7767 10.2014V13.9905H46.0036V6.46092H47.7767V7.65108H47.801C47.971 7.23817 48.2139 6.92241 48.5296 6.67952C48.8697 6.46092 49.2583 6.33947 49.7198 6.33947ZM50.4971 10.3472C50.4971 9.10843 50.8614 8.11258 51.5415 7.38391C52.2459 6.65523 53.2174 6.2909 54.4562 6.2909C55.6221 6.2909 56.545 6.63094 57.2009 7.33533C57.8567 8.03971 58.1967 8.98699 58.1967 10.1772C58.1967 11.3916 57.8324 12.3632 57.1523 13.0918C56.4479 13.8205 55.5006 14.1849 54.2862 14.1849C53.1203 14.1849 52.1973 13.8448 51.5172 13.1647C50.8371 12.4603 50.4971 11.5131 50.4971 10.3472ZM52.343 10.2743C52.343 11.0516 52.5131 11.6588 52.8774 12.0717C53.2417 12.4846 53.7518 12.7032 54.4076 12.7032C55.0391 12.7032 55.5492 12.5089 55.8892 12.0717C56.2293 11.6588 56.3993 11.0516 56.3993 10.2257C56.3993 9.42419 56.2293 8.81696 55.8892 8.37976C55.5492 7.96684 55.0391 7.74824 54.4319 7.74824C53.7761 7.74824 53.2903 7.96684 52.926 8.40405C52.5131 8.86554 52.343 9.47277 52.343 10.2743ZM60.8442 8.45262C60.8442 8.69552 60.9171 8.91412 61.0871 9.05985C61.2571 9.20559 61.5972 9.37561 62.1558 9.59421C62.8602 9.88568 63.3703 10.2014 63.6375 10.5415C63.9289 10.9058 64.0747 11.3187 64.0747 11.8288C64.0747 12.5332 63.8075 13.0918 63.2488 13.529C62.7145 13.9663 61.9615 14.1606 61.0385 14.1606C60.7228 14.1606 60.3827 14.112 59.9941 14.0391C59.6055 13.9663 59.2897 13.8691 59.0225 13.7476V11.9988C59.3383 12.2174 59.7026 12.4117 60.067 12.5332C60.4313 12.6546 60.7714 12.7275 61.0871 12.7275C61.4757 12.7275 61.7915 12.6789 61.9615 12.5575C62.1558 12.436 62.253 12.266 62.253 11.9988C62.253 11.7559 62.1558 11.5616 61.9615 11.3673C61.7672 11.1973 61.3786 11.003 60.8442 10.7844C60.1884 10.5172 59.7269 10.2014 59.4597 9.86139C59.1926 9.52134 59.0468 9.08414 59.0468 8.54978C59.0468 7.86969 59.314 7.31104 59.8484 6.87383C60.3827 6.43663 61.0871 6.21803 61.9372 6.21803C62.2044 6.21803 62.4959 6.24232 62.8116 6.31518C63.1274 6.38805 63.4189 6.46092 63.6375 6.53379V8.25831C63.3946 8.11258 63.1274 7.96684 62.8116 7.8454C62.4959 7.72395 62.1801 7.67537 61.8887 7.67537C61.5486 7.67537 61.2814 7.74824 61.1114 7.86969C60.9414 8.03971 60.8442 8.20973 60.8442 8.45262ZM64.8276 10.3472C64.8276 9.10843 65.192 8.11258 65.8721 7.38391C66.5765 6.65523 67.548 6.2909 68.7868 6.2909C69.9526 6.2909 70.8756 6.63094 71.5314 7.33533C72.1872 8.03971 72.5273 8.98699 72.5273 10.1772C72.5273 11.3916 72.1629 12.3632 71.4828 13.0918C70.7785 13.8205 69.8312 14.1849 68.6167 14.1849C67.4509 14.1849 66.5279 13.8448 65.8478 13.1647C65.192 12.4603 64.8276 11.5131 64.8276 10.3472ZM66.6736 10.2743C66.6736 11.0516 66.8436 11.6588 67.208 12.0717C67.5723 12.4846 68.0824 12.7032 68.7382 12.7032C69.3697 12.7032 69.8798 12.5089 70.2198 12.0717C70.5599 11.6588 70.7299 11.0516 70.7299 10.2257C70.7299 9.42419 70.5599 8.81696 70.2198 8.37976C69.8798 7.96684 69.3697 7.74824 68.7625 7.74824C68.1067 7.74824 67.6209 7.96684 67.2565 8.40405C66.8679 8.86554 66.6736 9.47277 66.6736 10.2743ZM78.4295 7.91826H75.782V13.9905H73.9846V7.91826H72.7216V6.46092H73.9846V5.41649C73.9846 4.63924 74.2518 3.98343 74.7619 3.47336C75.2719 2.96329 75.9278 2.7204 76.7293 2.7204C76.9479 2.7204 77.1422 2.74469 77.3122 2.74469C77.4823 2.74469 77.628 2.79327 77.7494 2.84184V4.37206C77.7009 4.34777 77.5794 4.29919 77.4337 4.25061C77.2879 4.20203 77.1179 4.17774 76.9236 4.17774C76.5593 4.17774 76.2678 4.29919 76.0735 4.51779C75.8792 4.73639 75.782 5.10073 75.782 5.53793V6.43663H78.4295V4.73639L80.2026 4.20203V6.43663H82V7.89398H80.2026V11.4159C80.2026 11.8774 80.2998 12.1931 80.4455 12.3875C80.6156 12.5818 80.8827 12.6789 81.2471 12.6789C81.3442 12.6789 81.4657 12.6546 81.6114 12.6061C81.7571 12.5575 81.8786 12.5089 81.9757 12.436V13.8934C81.8543 13.9663 81.6843 14.0148 81.4171 14.0634C81.1499 14.112 80.907 14.1363 80.6398 14.1363C79.8869 14.1363 79.3282 13.942 78.9639 13.5533C78.5996 13.1647 78.4052 12.5575 78.4052 11.7559L78.4295 7.91826Z" fill="#737373"/>
<path d="M8.30687 0H0V8.30687H8.30687V0Z" fill="#F25022"/>
<path d="M17.4881 0H9.18127V8.30687H17.4881V0Z" fill="#7FBA00"/>
<path d="M8.30687 9.18127H0V17.4881H8.30687V9.18127Z" fill="#00A4EF"/>
<path d="M17.4881 9.18127H9.18127V17.4881H17.4881V9.18127Z" fill="#FFB900"/>
</svg>
