<svg width="62" height="39" viewBox="0 0 62 39" fill="none" xmlns="http://www.w3.org/2000/svg">
<path d="M27.142 0.211275C26.8078 0.0469961 26.4337 -0.0237022 26.061 0.00699907C25.6883 0.0377004 25.3315 0.168606 25.0302 0.385236L0.820567 17.8528C0.566526 18.0366 0.359999 18.2759 0.217512 18.5517C0.0750249 18.8275 0.000533207 19.1321 2.85209e-06 19.4411C-0.000527503 19.7501 0.072915 20.055 0.214455 20.3312C0.355994 20.6075 0.561703 20.8475 0.815112 21.0321L25.0258 38.6096C25.3265 38.8283 25.6835 38.9608 26.0568 38.9926C26.4301 39.0243 26.8051 38.9539 27.1398 38.7893C27.4746 38.6247 27.756 38.3723 27.9526 38.0603C28.1491 37.7483 28.2531 37.3891 28.253 37.0226V29.8806H59.9777C60.2433 29.8808 60.5064 29.8297 60.7518 29.7304C60.9972 29.6311 61.2202 29.4854 61.408 29.3017C61.5958 29.1181 61.7448 28.9 61.8464 28.66C61.9479 28.42 62.0001 28.1628 62 27.903V11.0972C62.0001 10.8374 61.9479 10.5802 61.8464 10.3402C61.7448 10.1002 61.5958 9.88213 61.408 9.69847C61.2202 9.5148 60.9972 9.36914 60.7518 9.26981C60.5064 9.17047 60.2433 9.11942 59.9777 9.11956H28.253V1.97543C28.2521 1.60979 28.1479 1.25151 27.9518 0.940171C27.7558 0.628837 27.4755 0.376578 27.142 0.211275Z" fill="#FF8731"/>
</svg>
