<svg width="200" height="156" viewBox="0 0 200 156" fill="none" xmlns="http://www.w3.org/2000/svg">
<g filter="url(#filter0_d)">
<path d="M180.793 6H19.1044C14.6284 6 11 10.5822 11 16.2348V129.765C11 135.418 14.6284 140 19.1044 140H180.793C185.269 140 188.898 135.418 188.898 129.765V16.2348C188.898 10.5822 185.269 6 180.793 6Z" fill="white"/>
</g>
<path d="M11 11.0934C11 8.28042 13.2693 6 16.0686 6H183.931C186.731 6 189 8.28042 189 11.0934V28.5282H11V11.0934Z" fill="url(#paint0_linear)"/>
<path d="M87.5176 54.403H52.066C51.2189 54.403 50.5322 55.3145 50.5322 56.4386V59.5006C50.5322 60.6252 51.2189 61.5361 52.066 61.5361H87.5176C88.3646 61.5361 89.0513 60.6252 89.0513 59.5006V56.4386C89.0513 55.3145 88.3646 54.403 87.5176 54.403Z" fill="#F2F4F5"/>
<path d="M87.5176 64.0837H52.066C51.2189 64.0837 50.5322 64.9951 50.5322 66.1192V69.1812C50.5322 70.3058 51.2189 71.2167 52.066 71.2167H87.5176C88.3646 71.2167 89.0513 70.3058 89.0513 69.1812V66.1192C89.0513 64.9951 88.3646 64.0837 87.5176 64.0837Z" fill="#F2F4F5"/>
<path d="M44.4824 50.8365H25.1599C24.0577 50.8365 23.1641 51.7349 23.1641 52.8429V72.2674C23.1641 73.3754 24.0577 74.2738 25.1599 74.2738H44.4824C45.5847 74.2738 46.4783 73.3754 46.4783 72.2674V52.8429C46.4783 51.7349 45.5847 50.8365 44.4824 50.8365Z" fill="#CCCACA"/>
<path d="M87.5176 82.9354H52.066C51.2189 82.9354 50.5322 83.8468 50.5322 84.9709V88.0329C50.5322 89.1575 51.2189 90.0684 52.066 90.0684H87.5176C88.3646 90.0684 89.0513 89.1575 89.0513 88.0329V84.9709C89.0513 83.8468 88.3646 82.9354 87.5176 82.9354Z" fill="#F2F4F5"/>
<path d="M87.5176 92.616H52.066C51.2189 92.616 50.5322 93.5274 50.5322 94.6515V97.7135C50.5322 98.8381 51.2189 99.749 52.066 99.749H87.5176C88.3646 99.749 89.0513 98.8381 89.0513 97.7135V94.6515C89.0513 93.5274 88.3646 92.616 87.5176 92.616Z" fill="#F2F4F5"/>
<path d="M44.4824 79.3688H25.1599C24.0577 79.3688 23.1641 80.2672 23.1641 81.3752V100.8C23.1641 101.908 24.0577 102.806 25.1599 102.806H44.4824C45.5847 102.806 46.4783 101.908 46.4783 100.8V81.3752C46.4783 80.2672 45.5847 79.3688 44.4824 79.3688Z" fill="#CCCACA"/>
<path d="M87.5176 111.468H52.066C51.2189 111.468 50.5322 112.379 50.5322 113.503V116.565C50.5322 117.69 51.2189 118.601 52.066 118.601H87.5176C88.3646 118.601 89.0513 117.69 89.0513 116.565V113.503C89.0513 112.379 88.3646 111.468 87.5176 111.468Z" fill="#F2F4F5"/>
<path d="M87.5176 121.148H52.066C51.2189 121.148 50.5322 122.06 50.5322 123.184V126.246C50.5322 127.37 51.2189 128.281 52.066 128.281H87.5176C88.3646 128.281 89.0513 127.37 89.0513 126.246V123.184C89.0513 122.06 88.3646 121.148 87.5176 121.148Z" fill="#F2F4F5"/>
<path d="M44.4824 107.901H25.1599C24.0577 107.901 23.1641 108.8 23.1641 109.908V129.332C23.1641 130.44 24.0577 131.338 25.1599 131.338H44.4824C45.5847 131.338 46.4783 130.44 46.4783 129.332V109.908C46.4783 108.8 45.5847 107.901 44.4824 107.901Z" fill="#CCCACA"/>
<path d="M53.0495 37.9538C53.0495 36.8492 52.1541 35.9538 51.0495 35.9538H25.1641C24.0595 35.9538 23.1641 36.8492 23.1641 37.9538V38.4599C23.1641 39.5645 24.0595 40.4599 25.1641 40.4599H51.0495C52.1541 40.4599 53.0495 39.5645 53.0495 38.4599V37.9538Z" fill="#F2F4F5"/>
<path d="M147.833 38.1448C147.833 37.0402 146.937 36.1448 145.833 36.1448H106.414C105.309 36.1448 104.414 37.0402 104.414 38.1448V38.5078C104.414 39.6124 105.309 40.5078 106.414 40.5078H145.833C146.937 40.5078 147.833 39.6124 147.833 38.5078V38.1448Z" fill="#F2F4F5"/>
<path d="M98.3316 38.0608C98.3316 36.9563 97.4362 36.0608 96.3316 36.0608H60.7988C59.6943 36.0608 58.7988 36.9563 58.7988 38.0608V38.6464C58.7988 39.751 59.6943 40.6464 60.7988 40.6464H96.3316C97.4362 40.6464 98.3316 39.751 98.3316 38.6464V38.0608Z" fill="#F2F4F5"/>
<path d="M176.733 37.9538C176.733 36.8492 175.838 35.9538 174.733 35.9538H155.419C154.314 35.9538 153.419 36.8492 153.419 37.9538V38.4599C153.419 39.5645 154.314 40.4599 155.419 40.4599H174.733C175.838 40.4599 176.733 39.5645 176.733 38.4599V37.9538Z" fill="#F2F4F5"/>
<path fill-rule="evenodd" clip-rule="evenodd" d="M63.3008 17.3364C63.3008 15.6774 64.6374 14.3326 66.2943 14.3326H114.372C116.025 14.3326 117.365 15.6737 117.365 17.3364V29.4455H63.3008V17.3364Z" fill="url(#paint1_linear)"/>
<path d="M110.6 20.4341H75.8779V23.1253H110.6V20.4341Z" fill="#EAEAEA"/>
<path d="M70.471 24.9711C71.9641 24.9711 73.1739 23.7523 73.1739 22.2489C73.1739 20.7454 71.9641 19.5266 70.471 19.5266C68.9784 19.5266 67.7686 20.7454 67.7686 22.2489C67.7686 23.7523 68.9784 24.9711 70.471 24.9711Z" fill="url(#paint2_linear)"/>
<path fill-rule="evenodd" clip-rule="evenodd" d="M121.577 15.9431C121.577 14.2841 122.914 12.9392 124.571 12.9392H172.649C174.302 12.9392 175.642 14.2804 175.642 15.9431V28.0521H121.577V15.9431Z" fill="#8E8E8E"/>
<path d="M24.0514 20.2034C26.0171 20.2034 27.6107 18.6041 27.6107 16.6312C27.6107 14.6584 26.0171 13.0591 24.0514 13.0591C22.0857 13.0591 20.4922 14.6584 20.4922 16.6312C20.4922 18.6041 22.0857 20.2034 24.0514 20.2034Z" fill="white"/>
<path d="M35.9166 20.2034C37.8823 20.2034 39.4759 18.6041 39.4759 16.6312C39.4759 14.6584 37.8823 13.0591 35.9166 13.0591C33.9509 13.0591 32.3574 14.6584 32.3574 16.6312C32.3574 18.6041 33.9509 20.2034 35.9166 20.2034Z" fill="white"/>
<path d="M47.7809 20.2034C49.7466 20.2034 51.3402 18.6041 51.3402 16.6312C51.3402 14.6584 49.7466 13.0591 47.7809 13.0591C45.8152 13.0591 44.2217 14.6584 44.2217 16.6312C44.2217 18.6041 45.8152 20.2034 47.7809 20.2034Z" fill="white"/>
<path d="M164.762 19.5266L168.339 23.125" stroke="white" stroke-linecap="square" stroke-linejoin="round"/>
<path d="M168.296 19.2998L164.718 22.8981" stroke="white" stroke-linecap="square" stroke-linejoin="round"/>
<path d="M169.878 50.8365H103.51C99.7236 50.8365 96.6543 53.9222 96.6543 57.7281V124.447C96.6543 128.253 99.7236 131.338 103.51 131.338H169.878C173.664 131.338 176.734 128.253 176.734 124.447V57.7281C176.734 53.9222 173.664 50.8365 169.878 50.8365Z" fill="#CCCACA"/>
<defs>
<filter id="filter0_d" x="0" y="0" width="199.898" height="156" filterUnits="userSpaceOnUse" color-interpolation-filters="sRGB">
<feFlood flood-opacity="0" result="BackgroundImageFix"/>
<feColorMatrix in="SourceAlpha" type="matrix" values="0 0 0 0 0 0 0 0 0 0 0 0 0 0 0 0 0 0 127 0"/>
<feOffset dy="5"/>
<feGaussianBlur stdDeviation="5.5"/>
<feColorMatrix type="matrix" values="0 0 0 0 0.152941 0 0 0 0 0.180392 0 0 0 0 0.25098 0 0 0 0.2 0"/>
<feBlend mode="normal" in2="BackgroundImageFix" result="effect1_dropShadow"/>
<feBlend mode="normal" in="SourceGraphic" in2="effect1_dropShadow" result="shape"/>
</filter>
<linearGradient id="paint0_linear" x1="21.6441" y1="28.411" x2="174.97" y2="28.411" gradientUnits="userSpaceOnUse">
<stop/>
<stop offset="1" stop-color="#505050"/>
</linearGradient>
<linearGradient id="paint1_linear" x1="83.0725" y1="31.5638" x2="83.0725" y2="11.4006" gradientUnits="userSpaceOnUse">
<stop stop-color="white"/>
<stop offset="1" stop-color="#F2EDFD"/>
</linearGradient>
<linearGradient id="paint2_linear" x1="67.7686" y1="22.2873" x2="73.1739" y2="22.2873" gradientUnits="userSpaceOnUse">
<stop stop-color="#FF5500"/>
<stop offset="0.57237" stop-color="#FF2000"/>
<stop offset="1" stop-color="#FF2000"/>
</linearGradient>
</defs>
</svg>
