<svg width="378" height="35" viewBox="0 0 378 35" fill="none" xmlns="http://www.w3.org/2000/svg">
<rect width="378" height="35" fill="#1A2235"/>
<rect y="2" width="8" height="4" fill="#D2D4DC"/>
<rect x="13" y="2" width="8" height="4" fill="#D2D4DC"/>
<rect x="26" y="2" width="8" height="4" fill="#D2D4DC"/>
<rect x="39" y="2" width="8" height="4" fill="#D2D4DC"/>
<rect x="52" y="2" width="8" height="4" fill="#D2D4DC"/>
<rect x="65" y="2" width="8" height="4" fill="#D2D4DC"/>
<rect x="78" y="2" width="8" height="4" fill="#D2D4DC"/>
<rect x="91" y="2" width="8" height="4" fill="#D2D4DC"/>
<rect x="104" y="2" width="8" height="4" fill="#D2D4DC"/>
<rect x="117" y="2" width="8" height="4" fill="#D2D4DC"/>
<rect x="130" y="2" width="8" height="4" fill="#D2D4DC"/>
<rect x="143" y="2" width="8" height="4" fill="#D2D4DC"/>
<rect x="156" y="2" width="8" height="4" fill="#D2D4DC"/>
<rect x="169" y="2" width="8" height="4" fill="#D2D4DC"/>
<rect x="182" y="2" width="8" height="4" fill="#D2D4DC"/>
<rect x="195" y="2" width="8" height="4" fill="#D2D4DC"/>
<rect x="208" y="2" width="8" height="4" fill="#D2D4DC"/>
<rect x="221" y="2" width="8" height="4" fill="#D2D4DC"/>
<rect x="234" y="2" width="8" height="4" fill="#D2D4DC"/>
<rect x="247" y="2" width="8" height="4" fill="#D2D4DC"/>
<rect x="260" y="2" width="8" height="4" fill="#D2D4DC"/>
<rect x="273" y="2" width="8" height="4" fill="#D2D4DC"/>
<rect x="286" y="2" width="8" height="4" fill="#D2D4DC"/>
<rect x="299" y="2" width="8" height="4" fill="#D2D4DC"/>
<rect x="312" y="2" width="8" height="4" fill="#D2D4DC"/>
<rect x="325" y="2" width="8" height="4" fill="#D2D4DC"/>
<rect x="338" y="2" width="8" height="4" fill="#D2D4DC"/>
<rect x="351" y="2" width="8" height="4" fill="#D2D4DC"/>
<rect x="364" y="2" width="8" height="4" fill="#D2D4DC"/>
<rect x="377" y="2" width="8" height="4" fill="#D2D4DC"/>
<rect y="29" width="8" height="4" fill="#D2D4DC"/>
<rect x="13" y="29" width="8" height="4" fill="#D2D4DC"/>
<rect x="26" y="29" width="8" height="4" fill="#D2D4DC"/>
<rect x="39" y="29" width="8" height="4" fill="#D2D4DC"/>
<rect x="52" y="29" width="8" height="4" fill="#D2D4DC"/>
<rect x="65" y="29" width="8" height="4" fill="#D2D4DC"/>
<rect x="78" y="29" width="8" height="4" fill="#D2D4DC"/>
<rect x="91" y="29" width="8" height="4" fill="#D2D4DC"/>
<rect x="104" y="29" width="8" height="4" fill="#D2D4DC"/>
<rect x="117" y="29" width="8" height="4" fill="#D2D4DC"/>
<rect x="130" y="29" width="8" height="4" fill="#D2D4DC"/>
<rect x="143" y="29" width="8" height="4" fill="#D2D4DC"/>
<rect x="156" y="29" width="8" height="4" fill="#D2D4DC"/>
<rect x="169" y="29" width="8" height="4" fill="#D2D4DC"/>
<rect x="182" y="29" width="8" height="4" fill="#D2D4DC"/>
<rect x="195" y="29" width="8" height="4" fill="#D2D4DC"/>
<rect x="208" y="29" width="8" height="4" fill="#D2D4DC"/>
<rect x="221" y="29" width="8" height="4" fill="#D2D4DC"/>
<rect x="234" y="29" width="8" height="4" fill="#D2D4DC"/>
<rect x="247" y="29" width="8" height="4" fill="#D2D4DC"/>
<rect x="260" y="29" width="8" height="4" fill="#D2D4DC"/>
<rect x="273" y="29" width="8" height="4" fill="#D2D4DC"/>
<rect x="286" y="29" width="8" height="4" fill="#D2D4DC"/>
<rect x="299" y="29" width="8" height="4" fill="#D2D4DC"/>
<rect x="312" y="29" width="8" height="4" fill="#D2D4DC"/>
<rect x="325" y="29" width="8" height="4" fill="#D2D4DC"/>
<rect x="338" y="29" width="8" height="4" fill="#D2D4DC"/>
<rect x="351" y="29" width="8" height="4" fill="#D2D4DC"/>
<rect x="364" y="29" width="8" height="4" fill="#D2D4DC"/>
<rect x="377" y="29" width="8" height="4" fill="#D2D4DC"/>
<rect x="-16" y="8" width="35.3118" height="19" fill="#D2D4DC"/>
<rect x="25.3652" y="8" width="36.3207" height="19" fill="#D2D4DC"/>
<rect x="67.7395" y="8" width="35.3118" height="19" fill="#D2D4DC"/>
<rect x="110.114" y="8" width="34.3029" height="19" fill="#D2D4DC"/>
<rect x="152.488" y="8" width="34.3029" height="19" fill="#D2D4DC"/>
<rect x="193.853" y="8" width="35.3118" height="19" fill="#D2D4DC"/>
<rect x="235.218" y="8" width="36.3207" height="19" fill="#D2D4DC"/>
<rect x="277.592" y="8" width="35.3118" height="19" fill="#D2D4DC"/>
<rect x="318.958" y="8" width="35.3118" height="19" fill="#D2D4DC"/>
<rect x="360.323" y="8" width="35.3118" height="19" fill="#D2D4DC"/>
</svg>
