<svg xmlns="http://www.w3.org/2000/svg" width="26" height="20" viewBox="0 0 26 20"><g><g><path fill="#85b6ff" d="M17.83 8.925A.626.626 0 0 0 18.266 10h2.237c0 4.138-3.362 7.5-7.5 7.5-.987 0-1.95-.188-2.812-.55-.45-.188-.963-.05-1.3.287a1.253 1.253 0 0 0 .425 2.05 9.785 9.785 0 0 0 3.687.713c5.525 0 10-4.475 10-10h2.238a.619.619 0 0 0 .437-1.063L22.192 5.45a.615.615 0 0 0-.875-.013zM5.503 10c0-4.138 3.363-7.5 7.5-7.5.988 0 1.95.188 2.813.55.45.188.962.05 1.3-.287a1.253 1.253 0 0 0-.425-2.05A9.785 9.785 0 0 0 13.004 0c-5.525 0-10 4.475-10 10H.767a.619.619 0 0 0-.438 1.063l3.488 3.487c.25.25.637.25.887 0l3.488-3.487c.387-.388.112-1.063-.45-1.063z"/></g></g></svg>